<svg viewBox="0 0 330 200" xmlns="http://www.w3.org/2000/svg"><g><g><g><g><g><line x1="40" y1="178" x2="35" y2="178" style="visibility: inherit;" fill="rgb(0, 0, 0)" stroke="rgb(204, 204, 204)" stroke-width="1px"></line><line x1="40" y1="158.22222222222223" x2="35" y2="158.22222222222223" style="visibility: inherit;" fill="rgb(0, 0, 0)" stroke="rgb(204, 204, 204)" stroke-width="1px"></line><line x1="40" y1="138.44444444444446" x2="35" y2="138.44444444444446" style="visibility: inherit;" fill="rgb(0, 0, 0)" stroke="rgb(204, 204, 204)" stroke-width="1px"></line><line x1="40" y1="118.66666666666667" x2="35" y2="118.66666666666667" style="visibility: inherit;" fill="rgb(0, 0, 0)" stroke="rgb(204, 204, 204)" stroke-width="1px"></line><line x1="40" y1="98.8888888888889" x2="35" y2="98.8888888888889" style="visibility: inherit;" fill="rgb(0, 0, 0)" stroke="rgb(204, 204, 204)" stroke-width="1px"></line><line x1="40" y1="79.1111111111111" x2="35" y2="79.1111111111111" style="visibility: inherit;" fill="rgb(0, 0, 0)" stroke="rgb(204, 204, 204)" stroke-width="1px"></line><line x1="40" y1="59.33333333333334" x2="35" y2="59.33333333333334" style="visibility: inherit;" fill="rgb(0, 0, 0)" stroke="rgb(204, 204, 204)" stroke-width="1px"></line><line x1="40" y1="39.55555555555554" x2="35" y2="39.55555555555554" style="visibility: inherit;" fill="rgb(0, 0, 0)" stroke="rgb(204, 204, 204)" stroke-width="1px"></line><line x1="40" y1="19.7777777777778" x2="35" y2="19.7777777777778" style="visibility: inherit;" fill="rgb(0, 0, 0)" stroke="rgb(204, 204, 204)" stroke-width="1px"></line><line x1="40" y1="0" x2="35" y2="0" style="visibility: inherit;" fill="rgb(0, 0, 0)" stroke="rgb(204, 204, 204)" stroke-width="1px"></line></g><g transform="translate(30, 0)"><text x="0" y="178" dx="0em" dy="0.3em" style="text-anchor: end; visibility: hidden; font-family: &quot;Helvetica Neue&quot;, sans-serif; font-size: 12px; font-weight: 200;" fill="rgb(50, 49, 63)" stroke="none" stroke-width="1px">-50</text><text x="0" y="158.22222222222223" dx="0em" dy="0.3em" style="text-anchor: end; visibility: inherit; font-family: &quot;Helvetica Neue&quot;, sans-serif; font-size: 12px; font-weight: 200;" fill="rgb(50, 49, 63)" stroke="none" stroke-width="1px">0</text><text x="0" y="138.44444444444446" dx="0em" dy="0.3em" style="text-anchor: end; visibility: hidden; font-family: &quot;Helvetica Neue&quot;, sans-serif; font-size: 12px; font-weight: 200;" fill="rgb(50, 49, 63)" stroke="none" stroke-width="1px">50</text><text x="0" y="118.66666666666667" dx="0em" dy="0.3em" style="text-anchor: end; visibility: inherit; font-family: &quot;Helvetica Neue&quot;, sans-serif; font-size: 12px; font-weight: 200;" fill="rgb(50, 49, 63)" stroke="none" stroke-width="1px">100</text><text x="0" y="98.8888888888889" dx="0em" dy="0.3em" style="text-anchor: end; visibility: hidden; font-family: &quot;Helvetica Neue&quot;, sans-serif; font-size: 12px; font-weight: 200;" fill="rgb(50, 49, 63)" stroke="none" stroke-width="1px">150</text><text x="0" y="79.1111111111111" dx="0em" dy="0.3em" style="text-anchor: end; visibility: inherit; font-family: &quot;Helvetica Neue&quot;, sans-serif; font-size: 12px; font-weight: 200;" fill="rgb(50, 49, 63)" stroke="none" stroke-width="1px">200</text><text x="0" y="59.33333333333334" dx="0em" dy="0.3em" style="text-anchor: end; visibility: hidden; font-family: &quot;Helvetica Neue&quot;, sans-serif; font-size: 12px; font-weight: 200;" fill="rgb(50, 49, 63)" stroke="none" stroke-width="1px">250</text><text x="0" y="39.55555555555554" dx="0em" dy="0.3em" style="text-anchor: end; visibility: inherit; font-family: &quot;Helvetica Neue&quot;, sans-serif; font-size: 12px; font-weight: 200;" fill="rgb(50, 49, 63)" stroke="none" stroke-width="1px">300</text><text x="0" y="19.7777777777778" dx="0em" dy="0.3em" style="text-anchor: end; visibility: hidden; font-family: &quot;Helvetica Neue&quot;, sans-serif; font-size: 12px; font-weight: 200;" fill="rgb(50, 49, 63)" stroke="none" stroke-width="1px">350</text><text x="0" y="0" dx="0em" dy="0.3em" style="text-anchor: end; visibility: hidden; font-family: &quot;Helvetica Neue&quot;, sans-serif; font-size: 12px; font-weight: 200;" fill="rgb(50, 49, 63)" stroke="none" stroke-width="1px">400</text></g><line x1="40" y1="0" x2="40" y2="178" fill="rgb(0, 0, 0)" stroke="rgb(204, 204, 204)" stroke-width="1px"></line></g></g><g transform="translate(40, 0)" clip-path="url(#clip_0)"><clipPath id="clip_0"><rect width="290" height="178"></rect></clipPath><g><g><g><line x1="0" y1="0" x2="0" y2="178" fill="rgb(0, 0, 0)" stroke="rgb(60, 60, 60)" stroke-width="1px" opacity="0.25"></line><line x1="24.166666666666664" y1="0" x2="24.166666666666664" y2="178" fill="rgb(0, 0, 0)" stroke="rgb(60, 60, 60)" stroke-width="1px" opacity="0.25"></line><line x1="48.33333333333333" y1="0" x2="48.33333333333333" y2="178" fill="rgb(0, 0, 0)" stroke="rgb(60, 60, 60)" stroke-width="1px" opacity="0.25"></line><line x1="72.5" y1="0" x2="72.5" y2="178" fill="rgb(0, 0, 0)" stroke="rgb(60, 60, 60)" stroke-width="1px" opacity="0.25"></line><line x1="96.66666666666666" y1="0" x2="96.66666666666666" y2="178" fill="rgb(0, 0, 0)" stroke="rgb(60, 60, 60)" stroke-width="1px" opacity="0.25"></line><line x1="120.83333333333334" y1="0" x2="120.83333333333334" y2="178" fill="rgb(0, 0, 0)" stroke="rgb(60, 60, 60)" stroke-width="1px" opacity="0.25"></line><line x1="145" y1="0" x2="145" y2="178" fill="rgb(0, 0, 0)" stroke="rgb(60, 60, 60)" stroke-width="1px" opacity="0.25"></line><line x1="169.16666666666669" y1="0" x2="169.16666666666669" y2="178" fill="rgb(0, 0, 0)" stroke="rgb(60, 60, 60)" stroke-width="1px" opacity="0.25"></line><line x1="193.33333333333331" y1="0" x2="193.33333333333331" y2="178" fill="rgb(0, 0, 0)" stroke="rgb(60, 60, 60)" stroke-width="1px" opacity="0.25"></line><line x1="217.5" y1="0" x2="217.5" y2="178" fill="rgb(0, 0, 0)" stroke="rgb(60, 60, 60)" stroke-width="1px" opacity="0.25"></line><line x1="241.66666666666669" y1="0" x2="241.66666666666669" y2="178" fill="rgb(0, 0, 0)" stroke="rgb(60, 60, 60)" stroke-width="1px" opacity="0.25"></line><line x1="265.8333333333333" y1="0" x2="265.8333333333333" y2="178" fill="rgb(0, 0, 0)" stroke="rgb(60, 60, 60)" stroke-width="1px" opacity="0.25"></line><line x1="290" y1="0" x2="290" y2="178" fill="rgb(0, 0, 0)" stroke="rgb(60, 60, 60)" stroke-width="1px" opacity="0.25"></line></g><g><line x1="0" y1="178" x2="290" y2="178" fill="rgb(0, 0, 0)" stroke="rgb(60, 60, 60)" stroke-width="1px" opacity="0.25"></line><line x1="0" y1="158.22222222222223" x2="290" y2="158.22222222222223" fill="rgb(0, 0, 0)" stroke="rgb(60, 60, 60)" stroke-width="1px" opacity="0.25"></line><line x1="0" y1="138.44444444444446" x2="290" y2="138.44444444444446" fill="rgb(0, 0, 0)" stroke="rgb(60, 60, 60)" stroke-width="1px" opacity="0.25"></line><line x1="0" y1="118.66666666666667" x2="290" y2="118.66666666666667" fill="rgb(0, 0, 0)" stroke="rgb(60, 60, 60)" stroke-width="1px" opacity="0.25"></line><line x1="0" y1="98.8888888888889" x2="290" y2="98.8888888888889" fill="rgb(0, 0, 0)" stroke="rgb(60, 60, 60)" stroke-width="1px" opacity="0.25"></line><line x1="0" y1="79.1111111111111" x2="290" y2="79.1111111111111" fill="rgb(0, 0, 0)" stroke="rgb(60, 60, 60)" stroke-width="1px" opacity="0.25"></line><line x1="0" y1="59.33333333333334" x2="290" y2="59.33333333333334" fill="rgb(0, 0, 0)" stroke="rgb(60, 60, 60)" stroke-width="1px" opacity="0.25"></line><line x1="0" y1="39.55555555555554" x2="290" y2="39.55555555555554" fill="rgb(0, 0, 0)" stroke="rgb(60, 60, 60)" stroke-width="1px" opacity="0.25"></line><line x1="0" y1="19.7777777777778" x2="290" y2="19.7777777777778" fill="rgb(0, 0, 0)" stroke="rgb(60, 60, 60)" stroke-width="1px" opacity="0.25"></line><line x1="0" y1="0" x2="290" y2="0" fill="rgb(0, 0, 0)" stroke="rgb(60, 60, 60)" stroke-width="1px" opacity="0.25"></line></g></g></g><g><g><line x1="0" y1="158.22222222222223" x2="290" y2="158.22222222222223" fill="rgb(0, 0, 0)" stroke="rgb(153, 153, 153)" stroke-width="1.5px"></line></g></g><g><g><line x1="24.166666666666664" y1="0" x2="24.166666666666664" y2="178" fill="rgb(0, 0, 0)" stroke="rgb(153, 153, 153)" stroke-width="1.5px"></line></g></g><g><g><g><g><g><path stroke="rgb(255, 112, 67)" stroke-width="2px" d="M24.272516666666668,137.65333333333334L24.4209,137.65333333333334L24.450866666666666,137.65333333333334L24.475033333333332,137.65333333333334L24.504516666666664,137.65333333333334L24.905683333333332,139.31298842343955L25.051166666666667,140.25779720883412L25.11883333333333,140.80746620933547L25.34793333333333,140.65179985630692L25.387566666666668,140.55941015749414L25.434450000000002,140.5043351729629L25.8158,142.84992917358795L26.42915,145.2045884080857L26.750083333333333,146.77376049121537L27.131433333333334,148.66425628857766L27.17155,149.79798472150915L27.514233333333333,150.4780170507731L27.520033333333334,150.88596277252478L27.6486,151.92186300932698L27.888816666666663,152.54336275083367L28.061366666666668,151.175765427363L28.078283333333335,150.3552262341189L28.246,149.8629096302761L28.26581666666667,149.56752215628495L28.3997,149.39029056767424L28.776216666666667,150.07506439759246L28.876749999999998,150.48592794795925L29.339299999999998,149.30844493457892L29.60175,146.86151050360283L29.631233333333334,145.39335042203425L29.9048,144.5124545808191L29.921233333333333,143.98391715087143L30.17401666666667,130.53434964827954L30.62835,136.388165512242L30.70423333333333,139.9004549232795L31.329183333333333,141.84960630740542L31.531216666666666,141.2786526697987L31.584866666666667,140.93608048949608L31.935283333333334,142.78742607560005L32.24606666666667,143.89823342462267L32.64771666666667,135.2296067144876L32.76371666666667,130.02843069285626L32.93578333333333,119.62950285715564L33.048883333333336,112.12436837965986L34.05518333333333,125.50039880696407L34.107866666666666,133.52601706245676L34.151849999999996,138.34138801543202L34.31183333333333,141.23061058710186L34.43605,136.00236635219068L34.578633333333336,132.86541981128906L34.59748333333334,130.98325188676432L34.696083333333334,129.8539511320553L34.731366666666666,129.17637067923198L34.932916666666664,110.25782240751937L34.96385,98.9066934445045L35.048433333333335,92.09601606670013L35.620216666666664,91.17405408446432L35.63375,90.62087689512296L36.17798333333333,86.17519280374007L36.21423333333333,83.50778234891057L36.24613333333333,81.90733607601295L36.43705,88.22529053449678L36.45203333333334,92.01606320958699L36.6676,94.2905268146411L36.73285,95.65520497767355L36.8155,99.7966785421597L37.01125,102.28156268085137L37.1113,103.77249316406638L37.35055,97.54705145399538L38.15723333333334,101.8811197612861L38.590783333333334,109.86111630121611L39.33705,109.90244755850745L39.34961666666666,109.92724631288223L39.47866666666666,109.94212556550713L39.7648,124.98216422819316L39.849866666666664,134.0061874258048L40.074616666666664,139.42060134437176L40.164516666666664,139.82124969551194L40.20995,140.06163870619605L40.21671666666666,140.20587211260653L40.54828333333334,140.2924121564528L40.56616666666667,140.34433618276057L40.81798333333333,142.90704615410078L41.05916666666667,144.44467213690493L41.324999999999996,135.3992477265874L41.32886666666666,129.97199308039689L41.46371666666667,126.71564029268258L41.55748333333333,124.76182862005399L41.76338333333334,127.86154161647684L41.76918333333333,129.72136941433055L41.78658333333333,130.83726609304279L41.81268333333334,131.5068041002701L41.83056666666667,131.9085269046065L41.84845,132.14956058720836L41.9079,132.29418079676947L42.08625,135.70361958917277L42.165033333333334,137.74928286461477L42.2008,138.97668082987997L42.65996666666667,136.074008497928L42.88713333333333,134.3324050987568L42.927733333333336,133.2874430592541L43.26316666666667,126.96446583555243L43.27766666666667,123.17067950133145L43.36998333333333,120.89440770079888L43.56621666666666,127.123311287146L43.70493333333333,130.86065343895427L43.837849999999996,133.10305873003924L43.89198333333333,134.4485019046902L44.31393333333334,139.21132336503635L44.37193333333334,142.06901624124401L44.62423333333333,137.9294097447464L44.82046666666666,135.44564584684784L45.352133333333335,131.42383195255314L45.38741666666667,129.01074361597634L45.64938333333333,130.41089061403025L46.082449999999994,136.15586770175148L46.243883333333336,139.60285395438422L46.8176,144.36082348374165L46.8524,147.21560520135608L46.92731666666667,141.80847423192478L47.01818333333333,138.56419565026596L47.05685,136.6176285012707L47.11823333333333,135.44968821187354L47.14288333333333,134.74892403823523L47.168499999999995,134.32846553405224L47.443999999999996,134.55085709820912L47.51553333333333,134.68429203670325L47.71273333333333,134.76435299979974L47.77798333333333,134.8123895776576L47.88576666666667,132.62610041326124L48.22071666666667,128.62454913684562L48.258900000000004,126.22361837099626L48.9317,109.59372657815331L49.14581666666667,99.61579150244754L49.25505,93.62903045702407L49.478833333333334,79.4360849408811L50.12988333333333,70.28742874230645L50.16806666666667,64.79823502316164L50.58083333333333,78.43449656945255L51.038066666666666,81.23669794167154L51.19031666666667,82.91801876500291L51.35126666666667,74.90814459233508L51.628699999999995,69.62755342206772L52.12218333333334,83.23075427546284L52.32228333333334,83.00689700972215L52.338233333333335,82.87258265027774L52.41218333333334,82.79199403461108L52.59391666666667,82.74364086521108L52.848150000000004,91.89151785245998L53.385616666666664,91.84246626703154L53.95595,83.26903531577446L54.40593333333334,56.132087856131335L54.49486666666666,39.849919380345455L54.725899999999996,58.71884051709618L55.87526666666667,69.2490820880355L55.88831666666666,75.56722703059907L55.89653333333334,79.35811399613722L56.23245,80.0504239532379L56.74913333333333,86.79469881638718L56.75203333333333,90.84126373427677L56.892199999999995,93.2692026850105L57.358133333333335,93.30196605545075L57.844366666666666,96.48606852215933L58.129533333333335,92.22586333551781L58.76753333333333,87.4546291124218L58.8613,84.59188857856418L59.23733333333334,94.58268870269407L59.4152,100.57716877717199L59.85358333333333,99.26896793296986L60.5752,90.09826964867081L60.66655,84.59585067809137L60.688300000000005,81.2943992957437L60.890816666666666,79.31352846633511L61.95705,84.1374504131344L62.08755,87.03180358121396L62.21515,88.7684154820617L62.30988333333333,89.81038262257036L62.65885,89.32800735132L62.71588333333333,89.03858218856976L62.75261666666666,88.86492709091964L62.99815,89.8682895878851L63.206950000000006,90.4703070860644L63.52836666666666,87.82529536274973L63.553016666666664,86.23828832876096L63.563649999999996,85.28608410836767L63.5796,84.7147615761317L63.591683333333336,84.37196805679015L63.717349999999996,84.1662919451852L64.02765000000001,79.45444183377778L64.16588333333333,76.62733176693334L65.59606666666667,85.84839906015999L66.03783333333334,85.685039436096L66.16543333333334,85.5870236616576L66.3404,87.42688086366124L66.45301666666667,88.53079518486341L66.4564,89.19314377758471L67.16206666666668,90.53988626655082L67.51055,93.08837620437494L67.58063333333334,94.6174701670694L67.60625,95.53492654468609L67.62171666666666,96.08540037125611L68.3182,82.33390688942032L68.35155,74.08301080031886L68.49171666666666,69.13247314685798L68.49945,66.16215055478146L68.58161666666666,64.37995699953554L68.5995,63.310640866387985L68.91125,59.66282896427724L68.92043333333334,57.47414182301077L69.99101666666667,64.38848509380647L70.32355,71.54331327850609L70.96251666666666,77.57665463377032L71.17421666666667,70.7539927802622L71.41008333333333,66.66039566815732L71.98815,60.24868184533884L72.44635000000001,70.48343132942551L72.48743333333333,76.62428101987754L72.64403333333333,80.46701305637097L72.83011666666667,82.77265227826703L73.27671666666667,84.31425803362687L73.64694999999999,77.4863325979539L74.05488333333334,82.56646622543902L74.06261666666667,85.61454640193007L74.35793333333334,87.28517228560248L74.58606666666667,82.59154781580594L75.19216666666667,82.46515091170579L75.34876666666668,82.38931276924569L75.35988333333333,82.34380988376964L75.69725,76.93695259692844L76.13176666666666,72.74350489149037L76.34201666666667,70.22743626822758L76.57788333333332,67.29379509426985L76.78571666666667,65.53361038989526L77.31351666666666,69.38238845615936L77.53053333333334,76.91298862925117L77.68520000000001,81.43134873310626L77.73498333333335,84.14236479541933L78.27535,66.62408554391827L78.54795,50.89178465968429L79.25699999999999,61.07195968469945L79.49141666666667,53.09828692193081L79.60064999999999,48.31408326426961L79.72728333333333,45.44356106967285L80.09606666666667,61.600358864025935L80.58423333333333,71.45265976286001L81.06853333333333,59.01026252438268L81.19855,51.54482418129628L81.30536666666667,68.42556117544441L81.34403333333333,78.55400337193332L81.38028333333332,84.63106868982666L81.50739999999999,88.27730788056266L81.90325,79.54771806167093L81.91291666666666,74.30996417033589L82.47068333333333,73.38242294664596L82.48566666666666,72.82589821243202L82.51225,72.49198337190367L82.52916666666667,72.29163446758665L82.534,72.17142512499645L82.90616666666666,64.66285507499785L83.114,60.157713044998715L83.36871666666667,67.89729449366588L83.39675000000001,72.5410433628662L83.7665,74.53618157327529L83.78003333333334,75.73326449952071L83.86171666666667,76.451514255268L84.02653333333333,76.88246410871635L84.34408333333333,59.10370068745203L84.35085,48.436442634693435L84.58236666666667,42.03608780303827L84.85013333333333,48.005652681822994L85.70611666666667,58.86561383131601L86.30931666666666,8.2633682987896L86.77428333333333,29.007798757051575L87.22619999999999,15.031345920897593L87.4205,6.6454742192052265L87.65008333333334,22.657506753745366L87.75786666666667,32.26472627446944L88.25183333333334,28.69394687579276L88.43308333333333,26.551479236586772L88.64864999999999,42.82866531972985L89.22333333333333,56.86697696961569L89.5259,64.65707507065828L89.73131666666667,68.38180059795054L89.84683333333334,70.61663591432587L90.11605,66.73620377081775L90.6482,56.18038892915733L90.84636666666667,49.84690002416107L90.85216666666668,46.046806681163304L91.16488333333334,45.34897289758686L91.65788333333334,54.74005040521878L91.67625,60.37469690979795L91.71105,63.75548481254542L91.9242,73.37862422086059L92.20840000000001,79.15250786584969L92.30023333333332,82.61683805284316L92.42783333333333,89.28388060948367L92.54818333333333,93.28410614346798L93.10498333333334,64.67268590830301L93.25191666666667,47.505833767204024L94.52985,22.807500260322428L94.53033333333333,7.988500156193481L94.59751666666666,-0.902899906283892L94.63183333333333,-9.43864396626222L94.93198333333333,27.56348028690934L95.11081666666666,49.76475483881228L95.40613333333333,62.29440845884294L95.41193333333334,69.81220063086131L95.6217,74.32287593407236L95.98275000000001,84.14928111599895L96.36506666666666,72.48245755848826L96.96488333333333,83.20325231287075L98.3622,83.14861805438912L98.40811666666667,83.11583749930014L98.72566666666665,84.2037247218023L99.32645,80.58445705530362L99.40958333333333,78.4128964554044L99.45211666666667,77.10996009546486L99.49851666666667,76.32819827950115L99.80398333333333,75.85914118992292L99.87455,75.57770693617596L100.88761666666667,71.76973527281669L100.91371666666667,69.48495227480112L100.98235,68.1140824759918L101.65128333333334,63.810671707817306L101.76728333333334,61.228625246912586L102.46473333333334,16.326508481480886L102.7209,12.327460644444074L102.89925,9.928031942221992L102.90553333333332,8.488374720888743L102.94661666666667,7.624580388088788L103.38258333333333,-22.32302954492451L104.30575,-19.17513508061728L104.62523333333334,0.3615856182963171L104.84949999999999,12.083618037644442L104.85191666666667,19.116837489253328L105.17671666666666,27.9252136046631L105.6644,-16.155094059424357L107.13325,-10.451630856768105L107.50155,19.519243708161383L107.52088333333333,37.50176844711902L107.53538333333333,48.29128329049365L107.54021666666667,54.764992196518406L107.57695,58.64921754013328L108.025,49.587752746302186L108.14051666666667,44.15087387000352L108.25313333333332,40.88874654422435L108.69103333333334,49.84880348209015L108.96846666666667,50.79461542258741L108.96895,51.3621025868858L109.4431,26.387039329909243L109.51124999999999,11.40200137572333L109.65334999999999,2.4109786032117597L109.8462,26.129253828593733L110.0637,40.36021896382289L110.1246,48.898798044960415L110.3711,60.50905660475402L110.39961666666667,67.4752117406302L110.45713333333333,71.6549048221559L111.91003333333333,21.158276226626867L112.09563333333332,-39.20192315291274L112.56495,11.762401663807907L113.04006666666666,25.094774331618083L113.31895,24.075531265637522L113.37791666666668,23.463985426049163L113.40594999999999,23.09705792229616L113.4393,22.876901420044362L113.44123333333333,22.74480751869328L113.8946,49.4051067334382L114.01108333333333,65.40128626228514L114.20828333333334,69.93588286848221L114.74768333333333,66.48597416553375L114.79843333333334,64.41602894376469L114.88494999999999,63.17406181070328L114.89171666666667,62.42888153086642L114.90911666666668,61.98177336296432L114.92893333333332,61.71350846222302L114.97436666666667,61.55254952177826L114.99804999999999,61.455974157511406L115.23053333333334,66.14469560561795L115.82986666666667,61.67970625225965L115.94731666666667,59.000712640244686L117.1571,70.3675386952579L117.41085,77.18763432826586L117.76561666666666,55.805913930292846L117.83135,42.97688169150905L117.8386,35.27946234823878L118.40361666666666,44.42634407560993L118.69845,55.4522508898104L118.70763333333333,62.06779497833067L118.73953333333334,66.03712143144284L118.81735,68.41871730331016L118.88453333333334,69.84767482643053L119.07786666666667,72.28727156252499L120.20161666666667,59.98569627084832L120.51481666666666,55.29452887362011L120.71926666666667,52.47982843528317L120.74343333333333,50.79100817228101L120.82656666666666,49.77771601447972L120.9532,57.39729627535452L121.07258333333333,61.96904443187938L121.29056666666668,64.71209332579429L121.3041,66.35792266214324L121.4926,69.24408693061928L121.77583333333334,70.9757854917049L122.0088,59.83169351724516L122.03973333333334,53.145238332569306L122.22195,49.133365221763796L122.42156666666666,59.85868579972494L122.66661666666667,66.29387814650163L123.54193333333333,70.78788244345652L124.0562,70.31984057718503L124.12096666666667,70.03901545742212L124.37036666666667,55.63052038556437L124.61106666666666,46.985423342449764L124.62218333333334,41.79836511658095L125.03108333333333,53.400796847726355L125.1698,60.36225588641358L125.3583,63.27335353184816L125.47816666666665,65.02001211910888L125.82713333333332,50.0875628270209L125.89625,41.12809325176809L125.99726666666666,35.752411506616426L126.27276666666667,46.7670024595254L126.56566666666667,52.901090364604116L126.79621666666667,55.94865421876247L126.9504,57.77719253125747L126.99390000000001,58.874315518754486L127.10265,59.532589311252664L127.38153333333334,56.13022025341827L127.86341666666667,52.50657659649539L128.06061666666668,50.33239040234169L128.07946666666666,49.02787868584943L128.267,32.739393878176315L128.79915,26.76363632690581L129.18001666666666,42.481292907254584L129.2385,51.91188685546386L129.27765,57.57024322438943L129.33613333333332,60.96525704574478L129.46228333333332,63.00226533855796L129.69235,55.52224809202366L130.0157,51.03423774410308L130.24431666666666,55.77787597979517L130.4971,58.624058921210434L130.68463333333335,53.211768686059614L131.21195,50.28083898941355L131.30958333333334,48.5222811714259L131.45458333333332,47.46714648063332L132.23758333333333,51.42251011060222L132.28205,53.795728288583575L132.57301666666666,65.82054808426128L132.7997,73.03543996166786L132.81903333333332,77.36437508811184L133.16751666666667,73.79106949731155L133.68275,60.5715305872758L133.85143333333335,52.63980724125439L134.33863333333335,51.36166212253039L134.34056666666666,50.594775051296025L134.53196666666668,39.53375391966651L134.70355,32.897141240688796L134.78716666666668,28.915173633302146L135.10955,46.30377084664795L135.54116666666667,67.9707069524332L135.56726666666668,80.97086861590438L135.59385,88.77096561398709L135.59626666666668,93.45102381283668L135.72918333333334,96.25905873214646L135.7519,97.9438796837323L135.75286666666668,98.95477225468385L135.94475,93.39064113058808L135.99888333333334,90.05216245613063L136.2652,88.04907525145616L136.64026666666666,87.48011181754035L136.86646666666667,91.09428931274644L137.42423333333335,85.03524025431453L137.53395,81.39981081925539L137.83941666666666,84.1234420471088L137.85295000000002,85.75762078382084L138.03371666666666,86.73812802584806L138.05788333333334,87.3264323710644L138.35320000000002,91.63497053374975L138.38896666666665,94.22009343136097L138.51898333333332,95.7711671699277L138.54121666666666,96.70181141306773L139.37013333333334,90.45664240339619L139.37351666666666,86.70954099759327L139.40396666666666,84.4612801541115L139.78145,86.90965698135578L139.97816666666668,88.06223863325792L140.02843333333334,88.7537876243992L141.0550333333333,83.94738368575064L142.5379,79.0066524336726L142.96855,76.51688034909245L143.01833333333332,75.02301709834437L143.2339,72.22803248122884L143.77233333333334,68.9688194887373L143.8835,67.01329169324237L143.90766666666667,65.83997501594543L144.1793,69.40798500956724L144.79893333333334,71.70701322796259L145.20976666666667,74.51043015899975L145.2117,76.19248031762208L145.40696666666665,77.20171041279548L145.42049999999998,77.8072484698995L145.73805000000002,65.19634908193972L145.73950000000002,57.629809449163815L146.13486666666665,54.6721078917205L146.16145,52.89748695725453L146.90675,30.472714396574958L147.21366666666668,41.700517526833835L147.27891666666665,48.43719940498917L147.58245000000002,59.75743075410463L147.63996666666668,66.54956956357388L147.88501666666667,70.62485284925545L148.08801666666668,80.50646726510884L149.03244999999998,78.9989914701764L149.54043333333334,51.67139488210583L150.04551666666666,36.06594804037459L150.59554999999997,53.442235490891434L150.99188333333333,53.900007961201524L151.4438,62.40222699894315L151.64341666666667,67.50355842158811L151.73331666666667,70.5643572751751L152.07358333333335,69.71105880954951L152.44961666666666,72.99641306350748L152.54773333333333,74.96762561588227L153.16446666666667,72.3530198139738L153.50328333333334,67.61981188838428L154.4453,56.23588713303056L154.48251666666667,49.405532279818345L154.95715,46.73131936789102L155.06251666666668,45.12679162073459L155.07943333333333,44.164074972440744L155.42936666666668,52.605111650131136L155.45933333333335,57.66973365674535L155.48591666666667,60.70850686071388L155.88176666666666,65.379770783095L156.28244999999998,69.7647513587459L156.31628333333333,72.3957397041364L156.33030000000002,73.97433271137072L157.2351,70.64948851571133L157.35545,68.65458199831568L157.43568333333334,67.45763808787831L157.71311666666665,68.63813840828252L157.72423333333333,69.34643860052509L158.44246666666666,70.72075204920392L158.67156666666665,74.23511789618904L158.70588333333333,76.3437374043801L158.90114999999997,77.60890910929471L159.21725,78.36801213224349L159.2733166666667,78.82347394601275L159.4826,79.0967510342743L159.92871666666665,71.82427284278683L159.97511666666668,67.46078592789432L160.921,70.69691600118102L161.78278333333333,70.8981496007086L162.06795,69.1202230937585L162.67695,70.26857830069955L162.72431666666668,70.95759142486418L162.73011666666665,71.37099929936296L162.84515,71.61904402406223L163.33186666666666,75.88164863665956L163.7108,72.26854473755128L163.71176666666668,70.10068239808632L163.81036666666668,68.79996499440736L164.10568333333333,72.92442344108888L164.10713333333334,75.39909850909777L164.30675000000002,76.88390354990311L164.54358333333332,77.7747865743863L164.61801666666665,78.30931638907623L164.68036666666669,78.63003427789019L164.96263333333334,75.4997983445119L165.11246666666668,72.98876789559603L165.17433333333332,71.4821496262465L165.58275,75.48306755352567L166.16806666666668,80.8898405321154L166.22316666666669,84.13390431926925L166.23186666666666,86.08034259156155L166.44985,81.86864999938138L167.03420000000003,84.72118999962882L167.03516666666667,86.43271399977729L167.04145,87.45962839986639L167.1125,88.07577703991984L167.19805,88.4454662239519L167.35368333333335,85.5028352899267L167.60549999999998,83.73725672951157L167.9129,85.36768737104029L167.98153333333335,86.3459457559575L168.05693333333332,86.93290078690785L168.10236666666665,87.28507380547804L169.00185,82.43326650550904L169.08305000000001,79.52218212552765L169.82835,77.61730927531659L169.95305000000002,76.47438556518998L170.10288333333332,75.78863133911399L170.30105,75.21895658124616L170.55431666666667,74.87715172652548L171.00671666666665,79.57695770258196L171.89024999999998,82.55506351043806L171.93761666666668,84.34192699515174L172.25323333333336,79.24337841931326L172.38711666666666,76.18424927381018L173.17108333333334,77.82966067539721L173.9105833333333,78.02579640523832L174.3973,79.40925562092077L174.66458333333333,76.44199781699689L175.17256666666668,83.3638653568648L175.4471,87.51698588078555L175.62738333333334,76.71819152847132L175.65638333333334,70.23891491708278L176.04885,71.41446006136081L176.11796666666666,72.11978714792758L176.37171666666669,72.54298339986764L176.4099,72.79690115103172L176.80381666666668,78.64525180173014L177.07835,75.50892885881585L177.08801666666668,73.62713509306731L177.18371666666664,72.49805883361816L177.57473333333334,77.83305752239312L177.7323,81.03405673565808L177.79223333333334,82.95465626361707L178.10060000000001,71.44923820261471L178.14941666666667,64.54598736601326L178.15570000000002,60.4040368640524L178.27991666666665,57.91886656287589L178.4988666666667,69.4019866043922L178.61776666666668,76.291858629302L178.80046666666667,80.42578184424787L179.00636666666668,81.48213577321539L179.12188333333333,82.1159481305959L179.63131666666666,80.91401332280199L179.69318333333334,80.19285243812564L179.7797,79.76015590731983L179.91261666666665,81.55742687772523L180.25771666666668,82.63578945996848L180.39933333333332,75.52991812042553L180.65695000000002,71.26639531669977L181.09726666666666,78.04339274557543L181.20118333333335,82.1095912029008L181.9315,80.75197694396272L182.00158333333334,79.93740838859986L182.0707,79.44866725538212L182.09776666666664,79.1554225754515L182.17606666666669,78.97947576749311L182.43851666666666,86.46857434938477L182.51198333333332,90.96203349851974L182.5173,93.65810898800073L182.90300000000002,90.21264317057822L183.03688333333332,88.1453636801247L183.04751666666667,86.90499598585261L183.13258333333334,86.16077536928935L183.396,79.22713188824028L183.59996666666666,75.06694579961083L184.44531666666668,78.42505636865538L184.5357,80.43992271008212L184.54295,81.64884251493814L184.57726666666667,82.37419439785175L184.79428333333334,81.86007219426662L184.79911666666666,81.55159887211552L185.01033333333334,81.36651487882486L185.41488333333334,81.88835337173937L185.54296666666664,82.20145646748806L185.99826666666667,81.75642943604839L186.23655,83.54630210607348L186.39556666666667,84.62022570808854L186.44051666666667,85.26457986929758L186.74985,81.06274792157853L186.83926666666667,78.54164875294714L187.00795,77.02898925176828L187.36996666666667,70.26717132883876L187.75711666666666,54.97630279730325L187.76001666666664,45.80178167838196L187.8359,40.297069007029165L187.83686666666668,36.99424140421749L187.87988333333334,35.012544842530474L188.35306666666668,54.23419357218495L188.36708333333334,65.76718280997765L188.74456666666666,66.99097635265326L189.33181666666667,80.22480803381417L189.45361666666668,88.16510704251074L189.65516666666667,92.45461978106201L189.74748333333332,95.02832742419275L189.81176666666667,96.5725520100712L190.06358333333336,97.34086453937606L190.31346666666667,97.80185205695896L190.53144999999998,93.33177790084204L190.72816666666665,90.6497334071719L190.81855,89.0405067109698L191.31058333333334,89.1825262488041L192.29561666666666,79.93262686039357L192.29706666666667,74.38268722734726L192.35555,71.05272344751948L192.62186666666668,77.44052295740057L193.13661666666667,78.58342488555145L193.5348833333333,86.23094382021978L194.24248333333333,90.18656629213186L194.39328333333336,88.76260644194576L194.47496666666666,87.90823053183414L194.67989999999998,87.39560498576715L194.68425,87.08802965812696L194.69391666666664,86.90348446154283L194.95298333333335,92.0140906769257L195.2251,95.08045440615541L195.3991,89.32560597702658L195.53733333333335,85.87269691954928L195.71761666666666,83.80095148506291L195.92061666666666,87.93745977992664L196.00085,90.41936475684487L196.32855,93.49072996521804L196.53203333333332,95.33354909024192L197.13813333333331,89.00279612081182L197.52721666666667,83.62212211693152L197.8790833333333,90.36171771460334L198.30731666666665,80.16547507320647L198.63308333333333,74.04772948836832L198.6442,70.37708213746545L198.97045,72.76313817136815L199.2474,84.47921623615423L199.25126666666665,91.50886307502587L199.36871666666667,95.72665117834886L200.32861666666668,77.68843515145376L200.4141666666667,66.86550553531669L200.43205,60.37174776563444L200.56641666666667,56.475493103825116L200.69111666666666,73.9155180845173L200.92795,84.37953307293259L200.97096666666667,90.65794206598177L200.99126666666666,94.42498746181127L201.46783333333332,95.261214699309L202.67133333333334,87.37717326402985L202.79603333333333,82.64674840286236L203.2556833333333,90.25116015282852L203.34026666666665,94.81380720280822L204.15323333333333,96.76028432168494L204.23298333333335,97.92817059301096L204.93236666666667,99.89468013358436L205.14358333333334,102.02391919126173L205.19868333333332,103.30146262586814L205.78013333333334,101.21998868663199L205.8101,99.9711043230903L206.24461666666667,100.32932926052085L206.46453333333332,101.49359755631251L206.49498333333332,102.1921585337875L207.1876,82.83351734249473L207.2451166666667,71.21833262771905L207.32245,64.24922179885365L207.33936666666665,60.067755301534405L207.51239999999999,78.91887540314286L207.78838333333334,90.22954746410795L208.1475,94.9590618117981L208.17795,97.79677042041219L208.53561666666667,95.22739558558065L209.06728333333334,97.64132624023728L209.19101666666668,99.08968463303127L209.40803333333335,100.11692189092987L209.75506666666666,100.73326424566903L210.0465166666667,100.1537363251792L210.47716666666668,100.43890846177418L210.91941666666668,99.50245618817563L211.39646666666667,101.78858482401648L211.53518333333335,103.160262005521L211.81841666666668,102.5592683144237L211.89285,102.19867209976533L211.92088333333334,101.98231437097031L212.32108333333335,100.90316640035998L212.3293,100.25567761799377L212.40276666666665,99.86718434857404L212.41629999999998,99.6340883869222L212.4946,99.4942308099311L212.58546666666666,99.41031626373643L213.37813333333335,98.25241198046409L213.72951666666665,91.86166941050067L213.92865,88.02722386852264L214.00985,85.72655654333579L214.43131666666665,68.6821561482237L214.70971666666668,76.33462702226755L214.73678333333334,80.92610954669388L214.79188333333335,83.68099906134965L214.8117,85.33393277014312L214.97796666666667,86.32569299541922L215.32403333333335,79.00963801947375L215.34481666666667,74.62000503390647L215.51205,71.9862252425661L215.8122,74.51973514553967L216.22351666666668,69.23628553176825L216.51303333333334,66.06621576350537L217.17181666666667,60.999729458103246L217.17616666666666,57.959837674861944L217.32116666666664,56.13590260491716L217.59279999999998,71.65487489628364L217.79531666666668,80.9662582711035L217.9321,86.55308829599547L218.15636666666666,92.91140853315282L218.40093333333334,96.72640067544725L218.43573333333336,99.0153959608239L218.64115,97.85723757649434L218.69383333333334,97.1623425458966L218.8456,96.74540552753795L218.86396666666664,96.49524331652277L218.91955,96.34514598991368L219.08436666666668,77.90130981617041L219.0979,66.83500811192447L219.30476666666667,60.1952270893769L219.88283333333334,69.02735847584836L220.24484999999999,71.47863730773125L220.28351666666669,72.94940460686095L220.30333333333334,73.83186498633881L220.6083166666667,83.22178565846995L221.06119999999999,87.74818250619307L221.24728333333334,90.46402061482696L221.50103333333334,93.35930125778508L221.51988333333333,95.09646964355993L222.20138333333333,99.30321511946929L222.41501666666667,99.77037351612601L223.14726666666667,98.78489077634227L223.4885,90.59893446580536L223.48898333333332,85.6873606794832L223.73355,82.74041640768993L224.06656666666666,81.60513873350284L224.14776666666666,80.9239721289906L224.40248333333335,81.6228277218388L224.4339,82.04214107754773L224.53975000000003,82.29372909097307L224.94575,80.54601523236164L225.3532,83.92760913941697L225.44310000000002,85.9565654836502L225.50351666666666,87.17393929019012L225.51656666666668,87.90436357411406L225.58955,88.34261814446845L225.65286666666665,88.60557088668106L225.95881666666668,89.23800919867531L226.00038333333333,89.61747218587186L226.30633333333333,88.10470553374533L226.33919999999998,87.19704554246943L226.55089999999998,86.65244954770388L226.82059999999998,79.99680306195566L226.98638333333335,76.00341517050676L226.98928333333333,73.60738243563736L227.00088333333335,72.16976279471574L227.0033,71.3071910101628L227.50741666666667,79.80831460609768L227.6384,84.90898876365861L228.09273333333334,85.12139325819516L228.09708333333333,85.24883595491708L228.11351666666664,85.32530157295027L228.33585,88.69384761043682L228.85881666666668,90.71497523292877L229.44655,93.50987402864615L229.46008333333333,95.18681330607659L229.53451666666666,96.19297687253483L229.93568333333334,93.15756390129867L230.64956666666666,92.76031611855699L231.22473333333332,96.00285633780085L231.24696666666668,97.94838046934719L231.25325,99.11569494827498L231.93958333333333,94.91119474674275L231.98018333333334,92.38849462582343L232.17593333333335,92.93176344216072L232.81973333333335,83.92261362085198L232.83423333333334,78.51712372806674L232.9251,75.27382979239557L233.15903333333335,83.1376312087707L233.27165,87.85591205859576L233.32626666666667,90.68688056849078L234.14986666666667,87.3223505633167L234.32435,85.30363256021225L234.99473333333333,91.37062398057179L235.02373333333333,95.01081883278752L235.16728333333333,97.19493574411696L235.3524,98.50540589091462L235.62355,101.50679909010434L237.16490000000002,96.34585723184038L237.5506,73.62973656132645L237.58346666666665,60.000064159018095L237.58588333333333,51.82226071763306L237.93485,70.49068976391317L238.51774999999998,80.10952496945902L239.9189333333333,88.09593720389763L239.94986666666668,92.8877845445608L240.61058333333335,87.06067072673649L240.68743333333333,83.56440243604189L240.7923166666667,91.43464146162513L240.80875,96.15678487697508L240.99531666666667,98.99007092618506L241.10406666666665,100.69004255571103L241.27613333333332,95.2229144223155L241.32398333333333,91.94263754227819L241.4685,89.9744714142558L241.55984999999998,88.79357173744238L241.66570000000002,88.08503193135432L242.02336666666667,84.81190804770148L242.07943333333336,82.8480337175098L242.3008,91.79593134161698L242.42646666666667,97.16466991608131L242.4685166666667,100.38591306075989L242.8895,100.10354783645593L242.92961666666667,99.93412870187356L243.20850000000002,99.83247722112414L243.39700000000002,99.77148633267447L243.54828333333333,99.73489179960468L244.00744999999998,96.0738239686517L244.0118,93.87718327007991L244.34095000000002,88.28719885093683L244.46903333333333,84.93320819945099L244.55168333333336,82.92081380855947L244.56521666666666,81.71337717402456L244.91563333333335,87.47602630441475L245.7576,84.92117133820439L245.86055,83.3882583584782L246.732,88.3227327928647L246.92775,91.2834174534966L247.28106666666665,61.09893936098683L247.71268333333333,55.32958583881431L247.85575,51.86797372551081L247.86203333333333,49.79100645752868L248.40191666666666,46.487937207850564L248.63101666666668,61.594095658043685L248.6924,70.65779072815954L248.72285,76.09600777022908L249.05973333333333,63.694937995470795L249.78038333333333,78.56362946394913L250.28304999999997,64.85906656725837L250.53776666666667,48.88343994035503L250.71611666666666,39.298063964213014L251.03946666666667,54.906838378527794L251.1342,64.27210302711669L251.23376666666667,69.89126181626999L251.48848333333333,67.88320153420645L251.62333333333333,66.67836536496833L252.02063333333334,77.34746366342543L252.25166666666667,83.74892264249969L252.39183333333332,90.59602025216648L252.40343333333334,94.70427881796657L252.47448333333335,97.16923395744662L252.5175,98.64820704113464L252.85341666666665,100.01025755801412L253.00131666666667,100.8274878681418L253.58035,101.00138160977397L253.86213333333333,102.37149563253105L253.90756666666667,103.19356404618529L254.0806,103.68680509437783L254.17485000000002,103.98274972329337L254.36431666666667,105.58431650064269L254.94431666666668,95.62792323371895L255.28361666666666,97.40697616245359L255.49,98.47440791969439L255.6234,99.11486697403885L255.79015,101.08136462886775L256.0052333333333,102.2612632217651L256.1309,102.9692023775035L256.13621666666666,103.39396587094654L256.48518333333334,104.12349063367904L256.52046666666666,104.56120549131855L256.73313333333334,105.61494551701335L256.78775,106.24718953243024L257.0700166666667,106.62653594168036L257.25078333333335,107.01236600945266L257.4272,107.24386405011604L257.5006666666667,107.38276287451407L257.5900833333333,107.46610216915289L257.77133333333336,107.35788352371395L258.21406666666667,108.55873011422837L258.2851166666667,109.27923806853703L258.31556666666665,109.71154284112221L258.32426666666663,109.97092570467333L258.4475166666667,110.12655542280399L258.50261666666665,110.2199332536824L258.7563666666667,108.69373772998722L258.92408333333333,107.7780204157701L258.92650000000003,107.22859002723983L259.14545,108.16470957189946L259.3586,108.72638129869523L260.25615,109.22160655699491L260.81585,107.14540837864139L261.33688333333333,107.00724502718484L261.4408,106.92434701631089L262.03288333333336,107.19105265423097L262.3011333333333,107.35107603698303L262.42679999999996,107.44709006663426L262.71438333333333,101.96692070664723L262.92415,98.67881909065501L263.0420833333333,102.40195812105966L263.3809,104.63584153930246L263.72454999999997,98.22328270135925L263.7801333333333,94.37574739859332L263.9725,97.921448439156L264.05225,100.0488690634936L264.1784,101.32532143809615L264.1832333333333,102.0911928628577L264.78305,98.27871571771462L265.3016666666667,92.82678498618432L265.3152,89.55562654726614L265.5356,92.81426481724858L265.6003666666667,94.45300333479359L265.71105,95.4362464453206L265.8333333333333,96.02619231163679" style="fill: none;" fill="none"></path></g></g></g></g><g opacity="0.2"><g><g><g><path stroke="rgb(255, 112, 67)" stroke-width="2px" d="M24.272516666666668,137.65333333333334L24.4209,137.65333333333334L24.450866666666666,137.65333333333334L24.475033333333332,137.65333333333334L24.504516666666664,137.65333333333334L24.905683333333332,141.60888888888888L25.051166666666667,141.60888888888888L25.11883333333333,141.60888888888888L25.34793333333333,140.42222222222222L25.387566666666668,140.42222222222222L25.434450000000002,140.42222222222222L25.8158,146.35555555555555L26.42915,148.7288888888889L26.750083333333333,149.12444444444444L27.131433333333334,151.49777777777777L27.17155,151.49777777777777L27.514233333333333,151.49777777777777L27.520033333333334,151.49777777777777L27.6486,153.47555555555556L27.888816666666663,153.47555555555556L28.061366666666668,149.12444444444444L28.078283333333335,149.12444444444444L28.246,149.12444444444444L28.26581666666667,149.12444444444444L28.3997,149.12444444444444L28.776216666666667,151.10222222222222L28.876749999999998,151.10222222222222L29.339299999999998,147.54222222222222L29.60175,143.19111111111113L29.631233333333334,143.19111111111113L29.9048,143.19111111111113L29.921233333333333,143.19111111111113L30.17401666666667,110.36L30.62835,145.1688888888889L30.70423333333333,145.1688888888889L31.329183333333333,144.77333333333334L31.531216666666666,140.42222222222222L31.584866666666667,140.42222222222222L31.935283333333334,145.56444444444443L32.24606666666667,145.56444444444443L32.64771666666667,122.22666666666666L32.76371666666667,122.22666666666666L32.93578333333333,104.03111111111112L33.048883333333336,100.86666666666666L34.05518333333333,145.56444444444443L34.107866666666666,145.56444444444443L34.151849999999996,145.56444444444443L34.31183333333333,145.56444444444443L34.43605,128.16L34.578633333333336,128.16L34.59748333333334,128.16L34.696083333333334,128.16L34.731366666666666,128.16L34.932916666666664,81.88L34.96385,81.88L35.048433333333335,81.88L35.620216666666664,89.7911111111111L35.63375,89.7911111111111L36.17798333333333,79.50666666666666L36.21423333333333,79.50666666666666L36.24613333333333,79.50666666666666L36.43705,97.70222222222222L36.45203333333334,97.70222222222222L36.6676,97.70222222222222L36.73285,97.70222222222222L36.8155,106.00888888888889L37.01125,106.00888888888889L37.1113,106.00888888888889L37.35055,88.20888888888888L38.15723333333334,108.38222222222223L38.590783333333334,121.83111111111111L39.33705,109.96444444444444L39.34961666666666,109.96444444444444L39.47866666666666,109.96444444444444L39.7648,147.54222222222222L39.849866666666664,147.54222222222222L40.074616666666664,147.54222222222222L40.164516666666664,140.42222222222222L40.20995,140.42222222222222L40.21671666666666,140.42222222222222L40.54828333333334,140.42222222222222L40.56616666666667,140.42222222222222L40.81798333333333,146.7511111111111L41.05916666666667,146.7511111111111L41.324999999999996,121.83111111111111L41.32886666666666,121.83111111111111L41.46371666666667,121.83111111111111L41.55748333333333,121.83111111111111L41.76338333333334,132.51111111111112L41.76918333333333,132.51111111111112L41.78658333333333,132.51111111111112L41.81268333333334,132.51111111111112L41.83056666666667,132.51111111111112L41.84845,132.51111111111112L41.9079,132.51111111111112L42.08625,140.8177777777778L42.165033333333334,140.8177777777778L42.2008,140.8177777777778L42.65996666666667,131.72L42.88713333333333,131.72L42.927733333333336,131.72L43.26316666666667,117.47999999999999L43.27766666666667,117.47999999999999L43.36998333333333,117.47999999999999L43.56621666666666,136.46666666666667L43.70493333333333,136.46666666666667L43.837849999999996,136.46666666666667L43.89198333333333,136.46666666666667L44.31393333333334,146.35555555555555L44.37193333333334,146.35555555555555L44.62423333333333,131.72L44.82046666666666,131.72L45.352133333333335,125.39111111111112L45.38741666666667,125.39111111111112L45.64938333333333,132.51111111111112L46.082449999999994,144.77333333333334L46.243883333333336,144.77333333333334L46.8176,151.49777777777777L46.8524,151.49777777777777L46.92731666666667,133.6977777777778L47.01818333333333,133.6977777777778L47.05685,133.6977777777778L47.11823333333333,133.6977777777778L47.14288333333333,133.6977777777778L47.168499999999995,133.6977777777778L47.443999999999996,134.88444444444445L47.51553333333333,134.88444444444445L47.71273333333333,134.88444444444445L47.77798333333333,134.88444444444445L47.88576666666667,129.34666666666666L48.22071666666667,122.62222222222222L48.258900000000004,122.62222222222222L48.9317,84.64888888888888L49.14581666666667,84.64888888888888L49.25505,84.64888888888888L49.478833333333334,58.14666666666666L50.12988333333333,56.56444444444445L50.16806666666667,56.56444444444445L50.58083333333333,98.8888888888889L51.038066666666666,85.44L51.19031666666667,85.44L51.35126666666667,62.893333333333345L51.628699999999995,61.70666666666666L52.12218333333334,103.63555555555556L52.32228333333334,82.67111111111112L52.338233333333335,82.67111111111112L52.41218333333334,82.67111111111112L52.59391666666667,82.67111111111112L52.848150000000004,105.61333333333333L53.385616666666664,91.76888888888888L53.95595,70.40888888888888L54.40593333333334,15.426666666666677L54.49486666666666,15.426666666666677L54.725899999999996,87.02222222222223L55.87526666666667,85.04444444444444L55.88831666666666,85.04444444444444L55.89653333333334,85.04444444444444L56.23245,81.0888888888889L56.74913333333333,96.91111111111111L56.75203333333333,96.91111111111111L56.892199999999995,96.91111111111111L57.358133333333335,93.35111111111111L57.844366666666666,101.26222222222222L58.129533333333335,85.83555555555556L58.76753333333333,80.29777777777778L58.8613,80.29777777777778L59.23733333333334,109.56888888888889L59.4152,109.56888888888889L59.85358333333333,97.30666666666667L60.5752,76.34222222222222L60.66655,76.34222222222222L60.688300000000005,76.34222222222222L60.890816666666666,76.34222222222222L61.95705,91.37333333333333L62.08755,91.37333333333333L62.21515,91.37333333333333L62.30988333333333,91.37333333333333L62.65885,88.60444444444444L62.71588333333333,88.60444444444444L62.75261666666666,88.60444444444444L62.99815,91.37333333333333L63.206950000000006,91.37333333333333L63.52836666666666,83.85777777777778L63.553016666666664,83.85777777777778L63.563649999999996,83.85777777777778L63.5796,83.85777777777778L63.591683333333336,83.85777777777778L63.717349999999996,83.85777777777778L64.02765000000001,72.38666666666666L64.16588333333333,72.38666666666666L65.59606666666667,99.67999999999999L66.03783333333334,85.44L66.16543333333334,85.44L66.3404,90.18666666666667L66.45301666666667,90.18666666666667L66.4564,90.18666666666667L67.16206666666668,92.56L67.51055,96.91111111111111L67.58063333333334,96.91111111111111L67.60625,96.91111111111111L67.62171666666666,96.91111111111111L68.3182,61.70666666666666L68.35155,61.70666666666666L68.49171666666666,61.70666666666666L68.49945,61.70666666666666L68.58161666666666,61.70666666666666L68.5995,61.70666666666666L68.91125,54.1911111111111L68.92043333333334,54.1911111111111L69.99101666666667,74.76L70.32355,82.27555555555556L70.96251666666666,86.62666666666667L71.17421666666667,60.519999999999996L71.41008333333333,60.519999999999996L71.98815,50.631111111111125L72.44635000000001,85.83555555555556L72.48743333333333,85.83555555555556L72.64403333333333,86.23111111111112L72.83011666666667,86.23111111111112L73.27671666666667,86.62666666666667L73.64694999999999,67.24444444444444L74.05488333333334,90.18666666666667L74.06261666666667,90.18666666666667L74.35793333333334,89.7911111111111L74.58606666666667,75.5511111111111L75.19216666666667,82.27555555555556L75.34876666666668,82.27555555555556L75.35988333333333,82.27555555555556L75.69725,68.82666666666668L76.13176666666666,66.45333333333333L76.34201666666667,66.45333333333333L76.57788333333332,62.893333333333345L76.78571666666667,62.893333333333345L77.31351666666666,75.15555555555557L77.53053333333334,88.20888888888888L77.68520000000001,88.20888888888888L77.73498333333335,88.20888888888888L78.27535,40.346666666666664L78.54795,27.293333333333322L79.25699999999999,76.34222222222222L79.49141666666667,41.137777777777785L79.60064999999999,41.137777777777785L79.72728333333333,41.137777777777785L80.09606666666667,85.83555555555556L80.58423333333333,86.23111111111112L81.06853333333333,40.346666666666664L81.19855,40.346666666666664L81.30536666666667,93.74666666666667L81.34403333333333,93.74666666666667L81.38028333333332,93.74666666666667L81.50739999999999,93.74666666666667L81.90325,66.45333333333333L81.91291666666666,66.45333333333333L82.47068333333333,71.99111111111112L82.48566666666666,71.99111111111112L82.51225,71.99111111111112L82.52916666666667,71.99111111111112L82.534,71.99111111111112L82.90616666666666,53.400000000000006L83.114,53.400000000000006L83.36871666666667,79.50666666666666L83.39675000000001,79.50666666666666L83.7665,77.5288888888889L83.78003333333334,77.5288888888889L83.86171666666667,77.5288888888889L84.02653333333333,77.5288888888889L84.34408333333333,32.43555555555554L84.35085,32.43555555555554L84.58236666666667,32.43555555555554L84.85013333333333,56.959999999999994L85.70611666666667,75.15555555555557L86.30931666666666,-67.63999999999999L86.77428333333333,60.124444444444435L87.22619999999999,-5.9333333333333655L87.4205,-5.9333333333333655L87.65008333333334,46.67555555555555L87.75786666666667,46.67555555555555L88.25183333333334,23.337777777777774L88.43308333333333,23.337777777777774L88.64864999999999,67.24444444444444L89.22333333333333,77.92444444444445L89.5259,76.34222222222222L89.73131666666667,73.96888888888888L89.84683333333334,73.96888888888888L90.11605,60.91555555555556L90.6482,40.346666666666664L90.84636666666667,40.346666666666664L90.85216666666668,40.346666666666664L91.16488333333334,44.30222222222224L91.65788333333334,68.82666666666668L91.67625,68.82666666666668L91.71105,68.82666666666668L91.9242,87.81333333333333L92.20840000000001,87.81333333333333L92.30023333333332,87.81333333333333L92.42783333333333,99.28444444444445L92.54818333333333,99.28444444444445L93.10498333333334,21.75555555555556L93.25191666666667,21.75555555555556L94.52985,-14.240000000000009L94.63183333333333,-14.240000000000009L94.93198333333333,83.06666666666666L95.11081666666666,83.06666666666666L95.40613333333333,81.0888888888889L95.41193333333334,81.0888888888889L95.6217,81.0888888888889L95.98275000000001,98.8888888888889L96.36506666666666,54.98222222222222L96.96488333333333,99.28444444444445L98.3622,83.06666666666666L98.40811666666667,83.06666666666666L98.72566666666665,85.83555555555556L99.32645,75.15555555555557L99.40958333333333,75.15555555555557L99.45211666666667,75.15555555555557L99.49851666666667,75.15555555555557L99.80398333333333,75.15555555555557L99.87455,75.15555555555557L100.88761666666667,66.05777777777777L100.91371666666667,66.05777777777777L100.98235,66.05777777777777L101.65128333333334,57.355555555555554L101.76728333333334,57.355555555555554L102.46473333333334,-51.02666666666667L102.7209,6.3288888888888835L102.89925,6.3288888888888835L102.90553333333332,6.3288888888888835L102.94661666666667,6.3288888888888835L103.38258333333333,-67.24444444444444L104.30575,-17.404444444444437L104.62523333333334,29.666666666666657L104.84949999999999,29.666666666666657L104.85191666666667,29.666666666666657L105.17671666666666,41.137777777777785L105.6644,-82.27555555555557L106.69680000000001,-118.27111111111111L107.04093333333334,2.373333333333335L107.11101666666667,2.373333333333335L107.13325,2.373333333333335L107.50155,64.47555555555556L107.52088333333333,64.47555555555556L107.53538333333333,64.47555555555556L107.54021666666667,64.47555555555556L107.57695,64.47555555555556L108.025,35.99555555555554L108.14051666666667,35.99555555555554L108.25313333333332,35.99555555555554L108.69103333333334,63.28888888888888L108.96846666666667,52.21333333333334L108.96895,52.21333333333334L109.4431,-11.075555555555553L109.65334999999999,-11.075555555555553L109.8462,61.70666666666666L110.0637,61.70666666666666L110.1246,61.70666666666666L110.3711,77.92444444444445L110.39961666666667,77.92444444444445L110.45713333333333,77.92444444444445L111.91003333333333,-54.58666666666667L112.09563333333332,-129.7422222222222L112.56495,88.20888888888888L113.04006666666666,45.093333333333334L113.31895,22.54666666666668L113.37791666666668,22.54666666666668L113.40594999999999,22.54666666666668L113.4393,22.54666666666668L113.44123333333333,22.54666666666668L113.8946,89.39555555555556L114.01108333333333,89.39555555555556L114.20828333333334,76.73777777777778L114.74768333333333,61.31111111111112L114.79843333333334,61.31111111111112L114.88494999999999,61.31111111111112L114.89171666666667,61.31111111111112L114.90911666666668,61.31111111111112L114.92893333333332,61.31111111111112L114.97436666666667,61.31111111111112L114.99804999999999,61.31111111111112L115.23053333333334,73.17777777777778L115.82986666666667,54.98222222222222L115.94731666666667,54.98222222222222L117.1571,87.41777777777779L117.41085,87.41777777777779L117.76561666666666,23.73333333333332L117.83135,23.73333333333332L117.8386,23.73333333333332L118.40361666666666,58.14666666666666L118.69845,71.99111111111112L118.70763333333333,71.99111111111112L118.73953333333334,71.99111111111112L118.81735,71.99111111111112L118.88453333333334,71.99111111111112L119.07786666666667,75.94666666666666L120.20161666666667,41.53333333333333L120.51481666666666,48.25777777777776L120.71926666666667,48.25777777777776L120.74343333333333,48.25777777777776L120.82656666666666,48.25777777777776L120.9532,68.82666666666668L121.07258333333333,68.82666666666668L121.29056666666668,68.82666666666668L121.3041,68.82666666666668L121.4926,73.57333333333334L121.77583333333334,73.57333333333334L122.0088,43.115555555555545L122.03973333333334,43.115555555555545L122.22195,43.115555555555545L122.42156666666666,75.94666666666666L122.66661666666667,75.94666666666666L123.54193333333333,77.5288888888889L124.0562,69.61777777777777L124.12096666666667,69.61777777777777L124.37036666666667,34.01777777777778L124.61106666666666,34.01777777777778L124.62218333333334,34.01777777777778L125.03108333333333,70.80444444444444L125.1698,70.80444444444444L125.3583,67.64L125.47816666666665,67.64L125.82713333333332,27.688888888888897L125.89625,27.688888888888897L125.99726666666666,27.688888888888897L126.27276666666667,63.28888888888888L126.56566666666667,62.102222222222224L126.79621666666667,60.519999999999996L126.9504,60.519999999999996L126.99390000000001,60.519999999999996L127.10265,60.519999999999996L127.38153333333334,51.02666666666666L127.86341666666667,47.07111111111112L128.06061666666668,47.07111111111112L128.07946666666666,47.07111111111112L128.267,8.306666666666672L128.79915,17.799999999999983L129.18001666666666,66.05777777777777L129.2385,66.05777777777777L129.27765,66.05777777777777L129.33613333333332,66.05777777777777L129.46228333333332,66.05777777777777L129.69235,44.30222222222224L130.0157,44.30222222222224L130.24431666666666,62.893333333333345L130.4971,62.893333333333345L130.68463333333335,45.093333333333334L131.21195,45.884444444444455L131.30958333333334,45.884444444444455L131.45458333333332,45.884444444444455L132.23758333333333,57.355555555555554L132.28205,57.355555555555554L132.57301666666666,83.85777777777778L132.7997,83.85777777777778L132.81903333333332,83.85777777777778L133.16751666666667,68.43111111111112L133.68275,40.74222222222224L133.85143333333335,40.74222222222224L134.33863333333335,49.44444444444446L134.34056666666666,49.44444444444446L134.53196666666668,22.942222222222227L134.70355,22.942222222222227L134.78716666666668,22.942222222222227L135.10955,72.38666666666666L135.54116666666667,100.47111111111111L135.56726666666668,100.47111111111111L135.59385,100.47111111111111L135.59626666666668,100.47111111111111L135.72918333333334,100.47111111111111L135.7519,100.47111111111111L135.75286666666668,100.47111111111111L135.94475,85.04444444444444L135.99888333333334,85.04444444444444L136.2652,85.04444444444444L136.64026666666666,86.62666666666667L136.86646666666667,96.51555555555555L137.42423333333335,75.94666666666666L137.53395,75.94666666666666L137.83941666666666,88.20888888888888L137.85295000000002,88.20888888888888L138.03371666666666,88.20888888888888L138.05788333333334,88.20888888888888L138.35320000000002,98.09777777777778L138.38896666666665,98.09777777777778L138.51898333333332,98.09777777777778L138.54121666666666,98.09777777777778L139.37013333333334,81.0888888888889L139.37351666666666,81.0888888888889L139.40396666666666,81.0888888888889L139.78145,90.58222222222223L139.97816666666668,89.7911111111111L140.02843333333334,89.7911111111111L141.0550333333333,76.73777777777778L142.5379,71.59555555555556L142.96855,72.78222222222222L143.01833333333332,72.78222222222222L143.2339,68.03555555555556L143.77233333333334,64.08L143.8835,64.08L143.90766666666667,64.08L144.1793,74.76L144.79893333333334,75.15555555555557L145.20976666666667,78.71555555555555L145.2117,78.71555555555555L145.40696666666665,78.71555555555555L145.42049999999998,78.71555555555555L145.73805000000002,46.28L145.73950000000002,46.28L146.13486666666665,50.235555555555564L146.16145,50.235555555555564L146.90675,-3.1644444444444275L147.21366666666668,58.54222222222222L147.27891666666665,58.54222222222222L147.58245000000002,76.73777777777778L147.63996666666668,76.73777777777778L147.88501666666667,76.73777777777778L148.08801666666668,95.32888888888888L149.03244999999998,76.73777777777778L149.54043333333334,10.680000000000007L150.04551666666666,12.657777777777767L150.59554999999997,79.50666666666666L150.99188333333333,54.58666666666666L151.4438,75.15555555555557L151.64341666666667,75.15555555555557L151.73331666666667,75.15555555555557L152.07358333333335,68.43111111111112L152.44961666666666,77.92444444444445L152.54773333333333,77.92444444444445L153.16446666666667,68.43111111111112L153.50328333333334,60.519999999999996L154.4453,39.16L154.48251666666667,39.16L154.95715,42.72L155.06251666666668,42.72L155.07943333333333,42.72L155.42936666666668,65.26666666666667L155.45933333333335,65.26666666666667L155.48591666666667,65.26666666666667L155.88176666666666,72.38666666666666L156.28244999999998,76.34222222222222L156.31628333333333,76.34222222222222L156.33030000000002,76.34222222222222L157.2351,65.66222222222223L157.35545,65.66222222222223L157.43568333333334,65.66222222222223L157.71311666666665,70.40888888888888L157.72423333333333,70.40888888888888L158.44246666666666,72.78222222222222L158.67156666666665,79.50666666666666L158.70588333333333,79.50666666666666L158.90114999999997,79.50666666666666L159.21725,79.50666666666666L159.2733166666667,79.50666666666666L159.4826,79.50666666666666L159.92871666666665,60.91555555555556L159.97511666666668,60.91555555555556L160.921,75.5511111111111L161.78278333333333,71.2L162.06795,66.45333333333333L162.67695,71.99111111111112L162.72431666666668,71.99111111111112L162.73011666666665,71.99111111111112L162.84515,71.99111111111112L163.33186666666666,82.27555555555556L163.7108,66.84888888888888L163.71176666666668,66.84888888888888L163.81036666666668,66.84888888888888L164.10568333333333,79.1111111111111L164.10713333333334,79.1111111111111L164.30675000000002,79.1111111111111L164.54358333333332,79.1111111111111L164.61801666666665,79.1111111111111L164.68036666666669,79.1111111111111L164.96263333333334,70.80444444444444L165.11246666666668,69.22222222222221L165.17433333333332,69.22222222222221L165.58275,81.48444444444443L166.16806666666668,89L166.22316666666669,89L166.23186666666666,89L166.44985,75.5511111111111L167.03420000000003,89L167.03516666666667,89L167.04145,89L167.1125,89L167.19805,89L167.35368333333335,81.0888888888889L167.60549999999998,81.0888888888889L167.9129,87.81333333333333L167.98153333333335,87.81333333333333L168.05693333333332,87.81333333333333L168.10236666666665,87.81333333333333L169.00185,75.15555555555557L169.08305000000001,75.15555555555557L169.82835,74.76L169.95305000000002,74.76L170.10288333333332,74.76L170.30105,74.36444444444444L170.55431666666667,74.36444444444444L171.00671666666665,86.62666666666667L171.89024999999998,87.02222222222223L171.93761666666668,87.02222222222223L172.25323333333336,71.59555555555556L172.38711666666666,71.59555555555556L173.17108333333334,80.29777777777778L173.9105833333333,78.32L174.3973,81.48444444444443L174.66458333333333,71.99111111111112L175.17256666666668,93.74666666666667L175.4471,93.74666666666667L175.62738333333334,60.519999999999996L175.65638333333334,60.519999999999996L176.04885,73.17777777777778L176.11796666666666,73.17777777777778L176.37171666666669,73.17777777777778L176.4099,73.17777777777778L176.80381666666668,87.41777777777779L177.07835,70.80444444444444L177.08801666666668,70.80444444444444L177.18371666666664,70.80444444444444L177.57473333333334,85.83555555555556L177.7323,85.83555555555556L177.79223333333334,85.83555555555556L178.10060000000001,54.1911111111111L178.14941666666667,54.1911111111111L178.15570000000002,54.1911111111111L178.27991666666665,54.1911111111111L178.4988666666667,86.62666666666667L178.61776666666668,86.62666666666667L178.80046666666667,86.62666666666667L179.00636666666668,83.06666666666666L179.12188333333333,83.06666666666666L179.63131666666666,79.1111111111111L179.69318333333334,79.1111111111111L179.7797,79.1111111111111L179.91261666666665,84.25333333333334L180.25771666666668,84.25333333333334L180.39933333333332,64.87111111111112L180.65695000000002,64.87111111111112L181.09726666666666,88.20888888888888L181.20118333333335,88.20888888888888L181.9315,78.71555555555555L182.00158333333334,78.71555555555555L182.0707,78.71555555555555L182.09776666666664,78.71555555555555L182.17606666666669,78.71555555555555L182.43851666666666,97.70222222222222L182.51198333333332,97.70222222222222L182.5173,97.70222222222222L182.90300000000002,85.04444444444444L183.03688333333332,85.04444444444444L183.04751666666667,85.04444444444444L183.13258333333334,85.04444444444444L183.396,68.82666666666668L183.59996666666666,68.82666666666668L184.44531666666668,83.46222222222222L184.5357,83.46222222222222L184.54295,83.46222222222222L184.57726666666667,83.46222222222222L184.79428333333334,81.0888888888889L184.79911666666666,81.0888888888889L185.01033333333334,81.0888888888889L185.41488333333334,82.67111111111112L185.54296666666664,82.67111111111112L185.99826666666667,81.0888888888889L186.23655,86.23111111111112L186.39556666666667,86.23111111111112L186.44051666666667,86.23111111111112L186.74985,74.76L186.83926666666667,74.76L187.00795,74.76L187.36996666666667,60.124444444444435L187.75711666666666,32.04000000000002L187.76001666666664,32.04000000000002L187.8359,32.04000000000002L187.83686666666668,32.04000000000002L187.87988333333334,32.04000000000002L188.35306666666668,83.06666666666666L188.36708333333334,83.06666666666666L188.74456666666666,68.82666666666668L189.33181666666667,100.07555555555555L189.45361666666668,100.07555555555555L189.65516666666667,98.8888888888889L189.74748333333332,98.8888888888889L189.81176666666667,98.8888888888889L190.06358333333336,98.49333333333334L190.31346666666667,98.49333333333334L190.53144999999998,86.62666666666667L190.72816666666665,86.62666666666667L190.81855,86.62666666666667L191.31058333333334,89.39555555555556L192.29561666666666,66.05777777777777L192.29706666666667,66.05777777777777L192.35555,66.05777777777777L192.62186666666668,87.02222222222223L193.13661666666667,80.29777777777778L193.5348833333333,97.70222222222222L194.24248333333333,96.11999999999999L194.39328333333336,86.62666666666667L194.47496666666666,86.62666666666667L194.67989999999998,86.62666666666667L194.68425,86.62666666666667L194.69391666666664,86.62666666666667L194.95298333333335,99.67999999999999L195.2251,99.67999999999999L195.3991,80.69333333333334L195.53733333333335,80.69333333333334L195.71761666666666,80.69333333333334L195.92061666666666,94.14222222222223L196.00085,94.14222222222223L196.32855,98.09777777777778L196.53203333333332,98.09777777777778L197.13813333333331,79.50666666666666L197.52721666666667,75.5511111111111L197.8790833333333,100.47111111111111L198.30731666666665,64.87111111111112L198.63308333333333,64.87111111111112L198.6442,64.87111111111112L198.97045,76.34222222222222L199.2474,102.05333333333333L199.25126666666665,102.05333333333333L199.36871666666667,102.05333333333333L200.32861666666668,50.631111111111125L200.4141666666667,50.631111111111125L200.43205,50.631111111111125L200.56641666666667,50.631111111111125L200.69111666666666,100.07555555555555L200.92795,100.07555555555555L200.97096666666667,100.07555555555555L200.99126666666666,100.07555555555555L201.46783333333332,96.51555555555555L202.67133333333334,75.5511111111111L202.79603333333333,75.5511111111111L203.2556833333333,101.65777777777778L203.34026666666665,101.65777777777778L204.15323333333333,99.67999999999999L204.23298333333335,99.67999999999999L204.93236666666667,102.84444444444445L205.14358333333334,105.21777777777777L205.19868333333332,105.21777777777777L205.78013333333334,98.09777777777778L205.8101,98.09777777777778L206.24461666666667,100.86666666666666L206.46453333333332,103.24000000000001L206.49498333333332,103.24000000000001L207.1876,53.79555555555555L207.2451166666667,53.79555555555555L207.32245,53.79555555555555L207.33936666666665,53.79555555555555L207.51239999999999,107.19555555555556L207.78838333333334,107.19555555555556L208.1475,102.05333333333333L208.17795,102.05333333333333L208.53561666666667,91.37333333333333L209.06728333333334,101.26222222222222L209.19101666666668,101.26222222222222L209.40803333333335,101.65777777777778L209.75506666666666,101.65777777777778L210.0465166666667,99.28444444444445L210.47716666666668,100.86666666666666L210.91941666666668,98.09777777777778L211.39646666666667,105.21777777777777L211.53518333333335,105.21777777777777L211.81841666666668,101.65777777777778L211.89285,101.65777777777778L211.92088333333334,101.65777777777778L212.32108333333335,99.28444444444445L212.3293,99.28444444444445L212.40276666666665,99.28444444444445L212.41629999999998,99.28444444444445L212.4946,99.28444444444445L212.58546666666666,99.28444444444445L213.37813333333335,96.51555555555555L213.72951666666665,82.27555555555556L213.92865,82.27555555555556L214.00985,82.27555555555556L214.43131666666665,43.115555555555545L214.70971666666668,87.81333333333333L214.73678333333334,87.81333333333333L214.79188333333335,87.81333333333333L214.8117,87.81333333333333L214.97796666666667,87.81333333333333L215.32403333333335,68.03555555555556L215.34481666666667,68.03555555555556L215.51205,68.03555555555556L215.8122,78.32L216.22351666666668,61.31111111111112L216.51303333333334,61.31111111111112L217.17181666666667,53.400000000000006L217.17616666666666,53.400000000000006L217.32116666666664,53.400000000000006L217.59279999999998,94.93333333333334L217.79531666666668,94.93333333333334L217.9321,94.93333333333334L218.15636666666666,102.44888888888889L218.40093333333334,102.44888888888889L218.43573333333336,102.44888888888889L218.64115,96.11999999999999L218.69383333333334,96.11999999999999L218.8456,96.11999999999999L218.86396666666664,96.11999999999999L218.91955,96.11999999999999L219.08436666666668,50.235555555555564L219.0979,50.235555555555564L219.30476666666667,50.235555555555564L219.88283333333334,82.27555555555556L220.24484999999999,75.15555555555557L220.28351666666669,75.15555555555557L220.30333333333334,75.15555555555557L220.6083166666667,97.30666666666667L221.06119999999999,94.53777777777778L221.24728333333334,94.53777777777778L221.50103333333334,97.70222222222222L221.51988333333333,97.70222222222222L222.20138333333333,105.61333333333333L222.41501666666667,100.47111111111111L223.14726666666667,97.30666666666667L223.4885,78.32L223.48898333333332,78.32L223.73355,78.32L224.06656666666666,79.90222222222222L224.14776666666666,79.90222222222222L224.40248333333335,82.67111111111112L224.4339,82.67111111111112L224.53975000000003,82.67111111111112L224.94575,77.92444444444445L225.3532,89L225.44310000000002,89L225.50351666666666,89L225.51656666666668,89L225.58955,89L225.65286666666665,89L225.95881666666668,90.18666666666667L226.00038333333333,90.18666666666667L226.30633333333333,85.83555555555556L226.33919999999998,85.83555555555556L226.55089999999998,85.83555555555556L226.82059999999998,70.01333333333334L226.98638333333335,70.01333333333334L226.98928333333333,70.01333333333334L227.00088333333335,70.01333333333334L227.0033,70.01333333333334L227.50741666666667,92.56L227.6384,92.56L228.09273333333334,85.44L228.09708333333333,85.44L228.11351666666664,85.44L228.33585,93.74666666666667L228.85881666666668,93.74666666666667L229.44655,97.70222222222222L229.46008333333333,97.70222222222222L229.53451666666666,97.70222222222222L229.93568333333334,88.60444444444444L230.64956666666666,92.16444444444444L231.22473333333332,100.86666666666666L231.24696666666668,100.86666666666666L231.25325,100.86666666666666L231.93958333333333,88.60444444444444L231.98018333333334,88.60444444444444L232.17593333333335,93.74666666666667L232.81973333333335,70.40888888888888L232.83423333333334,70.40888888888888L232.9251,70.40888888888888L233.15903333333335,94.93333333333334L233.27165,94.93333333333334L233.32626666666667,94.93333333333334L234.14986666666667,82.27555555555556L234.32435,82.27555555555556L234.99473333333333,100.47111111111111L235.02373333333333,100.47111111111111L235.16728333333333,100.47111111111111L235.3524,100.47111111111111L235.62355,106.00888888888889L237.16490000000002,88.60444444444444L237.5506,39.55555555555554L237.58346666666665,39.55555555555554L237.58588333333333,39.55555555555554L237.93485,98.49333333333334L238.51774999999998,94.53777777777778L239.9189333333333,100.07555555555555L239.94986666666668,100.07555555555555L240.61058333333335,78.32L240.68743333333333,78.32L240.7923166666667,103.24000000000001L240.80875,103.24000000000001L240.99531666666667,103.24000000000001L241.10406666666665,103.24000000000001L241.27613333333332,87.02222222222223L241.32398333333333,87.02222222222223L241.4685,87.02222222222223L241.55984999999998,87.02222222222223L241.66570000000002,87.02222222222223L242.02336666666667,79.90222222222222L242.07943333333336,79.90222222222222L242.3008,105.21777777777777L242.42646666666667,105.21777777777777L242.4685166666667,105.21777777777777L242.8895,99.67999999999999L242.92961666666667,99.67999999999999L243.20850000000002,99.67999999999999L243.39700000000002,99.67999999999999L243.54828333333333,99.67999999999999L244.00744999999998,90.58222222222223L244.0118,90.58222222222223L244.34095000000002,79.90222222222222L244.46903333333333,79.90222222222222L244.55168333333336,79.90222222222222L244.56521666666666,79.90222222222222L244.91563333333335,96.11999999999999L245.7576,81.0888888888889L245.86055,81.0888888888889L246.732,95.72444444444444L246.92775,95.72444444444444L247.28106666666665,15.822222222222223L247.71268333333333,46.67555555555555L247.85575,46.67555555555555L247.86203333333333,46.67555555555555L248.40191666666666,41.53333333333333L248.63101666666668,84.25333333333334L248.6924,84.25333333333334L248.72285,84.25333333333334L249.05973333333333,45.093333333333334L249.78038333333333,100.86666666666666L250.28304999999997,44.30222222222224L250.53776666666667,24.920000000000016L250.71611666666666,24.920000000000016L251.03946666666667,78.32L251.1342,78.32L251.23376666666667,78.32L251.48848333333333,64.87111111111112L251.62333333333333,64.87111111111112L252.02063333333334,93.35111111111111L252.25166666666667,93.35111111111111L252.39183333333332,100.86666666666666L252.40343333333334,100.86666666666666L252.47448333333335,100.86666666666666L252.5175,100.86666666666666L252.85341666666665,102.05333333333333L253.00131666666667,102.05333333333333L253.58035,101.26222222222222L253.86213333333333,104.42666666666666L253.90756666666667,104.42666666666666L254.0806,104.42666666666666L254.17485000000002,104.42666666666666L254.36431666666667,107.98666666666666L254.94431666666668,80.69333333333334L255.28361666666666,100.07555555555555L255.49,100.07555555555555L255.6234,100.07555555555555L255.79015,104.03111111111112L256.0052333333333,104.03111111111112L256.1309,104.03111111111112L256.13621666666666,104.03111111111112L256.48518333333334,105.21777777777777L256.52046666666666,105.21777777777777L256.73313333333334,107.19555555555556L256.78775,107.19555555555556L257.0700166666667,107.19555555555556L257.25078333333335,107.59111111111112L257.4272,107.59111111111112L257.5006666666667,107.59111111111112L257.5900833333333,107.59111111111112L257.77133333333336,107.19555555555556L258.21406666666667,110.36L258.2851166666667,110.36L258.31556666666665,110.36L258.32426666666663,110.36L258.4475166666667,110.36L258.50261666666665,110.36L258.7563666666667,106.40444444444445L258.92408333333333,106.40444444444445L258.92650000000003,106.40444444444445L259.14545,109.56888888888889L259.3586,109.56888888888889L260.25615,109.96444444444444L260.81585,104.03111111111112L261.33688333333333,106.8L261.4408,106.8L262.03288333333336,107.59111111111112L262.3011333333333,107.59111111111112L262.42679999999996,107.59111111111112L262.71438333333333,93.74666666666667L262.92415,93.74666666666667L263.0420833333333,107.98666666666666L263.3809,107.98666666666666L263.72454999999997,88.60444444444444L263.7801333333333,88.60444444444444L263.9725,103.24000000000001L264.05225,103.24000000000001L264.1784,103.24000000000001L264.1832333333333,103.24000000000001L264.78305,92.56L265.3016666666667,84.64888888888888L265.3152,84.64888888888888L265.5356,97.70222222222222L265.6003666666667,96.91111111111111L265.71105,96.91111111111111L265.8333333333333,96.91111111111111" style="fill: none;" fill="none"></path></g></g></g></g></g></g><g transform="translate(40, 178)" clip-path="url(#clip_1)"><clipPath id="clip_1"><rect width="290" height="22"></rect></clipPath><g><g><line x1="0" y1="0" x2="0" y2="5" style="visibility: inherit;" fill="rgb(0, 0, 0)" stroke="rgb(204, 204, 204)" stroke-width="1px"></line><line x1="24.166666666666664" y1="0" x2="24.166666666666664" y2="5" style="visibility: inherit;" fill="rgb(0, 0, 0)" stroke="rgb(204, 204, 204)" stroke-width="1px"></line><line x1="48.33333333333333" y1="0" x2="48.33333333333333" y2="5" style="visibility: inherit;" fill="rgb(0, 0, 0)" stroke="rgb(204, 204, 204)" stroke-width="1px"></line><line x1="72.5" y1="0" x2="72.5" y2="5" style="visibility: inherit;" fill="rgb(0, 0, 0)" stroke="rgb(204, 204, 204)" stroke-width="1px"></line><line x1="96.66666666666666" y1="0" x2="96.66666666666666" y2="5" style="visibility: inherit;" fill="rgb(0, 0, 0)" stroke="rgb(204, 204, 204)" stroke-width="1px"></line><line x1="120.83333333333334" y1="0" x2="120.83333333333334" y2="5" style="visibility: inherit;" fill="rgb(0, 0, 0)" stroke="rgb(204, 204, 204)" stroke-width="1px"></line><line x1="145" y1="0" x2="145" y2="5" style="visibility: inherit;" fill="rgb(0, 0, 0)" stroke="rgb(204, 204, 204)" stroke-width="1px"></line><line x1="169.16666666666669" y1="0" x2="169.16666666666669" y2="5" style="visibility: inherit;" fill="rgb(0, 0, 0)" stroke="rgb(204, 204, 204)" stroke-width="1px"></line><line x1="193.33333333333331" y1="0" x2="193.33333333333331" y2="5" style="visibility: inherit;" fill="rgb(0, 0, 0)" stroke="rgb(204, 204, 204)" stroke-width="1px"></line><line x1="217.5" y1="0" x2="217.5" y2="5" style="visibility: inherit;" fill="rgb(0, 0, 0)" stroke="rgb(204, 204, 204)" stroke-width="1px"></line><line x1="241.66666666666669" y1="0" x2="241.66666666666669" y2="5" style="visibility: inherit;" fill="rgb(0, 0, 0)" stroke="rgb(204, 204, 204)" stroke-width="1px"></line><line x1="265.8333333333333" y1="0" x2="265.8333333333333" y2="5" style="visibility: inherit;" fill="rgb(0, 0, 0)" stroke="rgb(204, 204, 204)" stroke-width="1px"></line><line x1="290" y1="0" x2="290" y2="5" style="visibility: inherit;" fill="rgb(0, 0, 0)" stroke="rgb(204, 204, 204)" stroke-width="1px"></line></g><g transform="translate(0, 8)"><text x="0" y="0" dx="0em" dy="0.95em" style="text-anchor: middle; visibility: hidden; font-family: &quot;Helvetica Neue&quot;, sans-serif; font-size: 12px; font-weight: 200;" fill="rgb(50, 49, 63)" stroke="none" stroke-width="1px">-50k</text><text x="24.166666666666664" y="0" dx="0em" dy="0.95em" style="text-anchor: middle; visibility: inherit; font-family: &quot;Helvetica Neue&quot;, sans-serif; font-size: 12px; font-weight: 200;" fill="rgb(50, 49, 63)" stroke="none" stroke-width="1px">0</text><text x="48.33333333333333" y="0" dx="0em" dy="0.95em" style="text-anchor: middle; visibility: hidden; font-family: &quot;Helvetica Neue&quot;, sans-serif; font-size: 12px; font-weight: 200;" fill="rgb(50, 49, 63)" stroke="none" stroke-width="1px">50k</text><text x="72.5" y="0" dx="0em" dy="0.95em" style="text-anchor: middle; visibility: inherit; font-family: &quot;Helvetica Neue&quot;, sans-serif; font-size: 12px; font-weight: 200;" fill="rgb(50, 49, 63)" stroke="none" stroke-width="1px">100k</text><text x="96.66666666666666" y="0" dx="0em" dy="0.95em" style="text-anchor: middle; visibility: hidden; font-family: &quot;Helvetica Neue&quot;, sans-serif; font-size: 12px; font-weight: 200;" fill="rgb(50, 49, 63)" stroke="none" stroke-width="1px">150k</text><text x="120.83333333333334" y="0" dx="0em" dy="0.95em" style="text-anchor: middle; visibility: inherit; font-family: &quot;Helvetica Neue&quot;, sans-serif; font-size: 12px; font-weight: 200;" fill="rgb(50, 49, 63)" stroke="none" stroke-width="1px">200k</text><text x="145" y="0" dx="0em" dy="0.95em" style="text-anchor: middle; visibility: hidden; font-family: &quot;Helvetica Neue&quot;, sans-serif; font-size: 12px; font-weight: 200;" fill="rgb(50, 49, 63)" stroke="none" stroke-width="1px">250k</text><text x="169.16666666666669" y="0" dx="0em" dy="0.95em" style="text-anchor: middle; visibility: inherit; font-family: &quot;Helvetica Neue&quot;, sans-serif; font-size: 12px; font-weight: 200;" fill="rgb(50, 49, 63)" stroke="none" stroke-width="1px">300k</text><text x="193.33333333333331" y="0" dx="0em" dy="0.95em" style="text-anchor: middle; visibility: hidden; font-family: &quot;Helvetica Neue&quot;, sans-serif; font-size: 12px; font-weight: 200;" fill="rgb(50, 49, 63)" stroke="none" stroke-width="1px">350k</text><text x="217.5" y="0" dx="0em" dy="0.95em" style="text-anchor: middle; visibility: inherit; font-family: &quot;Helvetica Neue&quot;, sans-serif; font-size: 12px; font-weight: 200;" fill="rgb(50, 49, 63)" stroke="none" stroke-width="1px">400k</text><text x="241.66666666666669" y="0" dx="0em" dy="0.95em" style="text-anchor: middle; visibility: hidden; font-family: &quot;Helvetica Neue&quot;, sans-serif; font-size: 12px; font-weight: 200;" fill="rgb(50, 49, 63)" stroke="none" stroke-width="1px">450k</text><text x="265.8333333333333" y="0" dx="0em" dy="0.95em" style="text-anchor: middle; visibility: inherit; font-family: &quot;Helvetica Neue&quot;, sans-serif; font-size: 12px; font-weight: 200;" fill="rgb(50, 49, 63)" stroke="none" stroke-width="1px">500k</text><text x="290" y="0" dx="0em" dy="0.95em" style="text-anchor: middle; visibility: hidden; font-family: &quot;Helvetica Neue&quot;, sans-serif; font-size: 12px; font-weight: 200;" fill="rgb(50, 49, 63)" stroke="none" stroke-width="1px">550k</text></g><line x1="0" y1="0" x2="290" y2="0" fill="rgb(0, 0, 0)" stroke="rgb(204, 204, 204)" stroke-width="1px"></line></g></g></g></g></svg>