<svg viewBox="0 0 330 200" xmlns="http://www.w3.org/2000/svg"><g><g><g><g><g><line x1="60" y1="178" x2="55" y2="178" style="visibility: inherit;" fill="rgb(0, 0, 0)" stroke="rgb(204, 204, 204)" stroke-width="1px"></line><line x1="60" y1="161.8181818181818" x2="55" y2="161.8181818181818" style="visibility: inherit;" fill="rgb(0, 0, 0)" stroke="rgb(204, 204, 204)" stroke-width="1px"></line><line x1="60" y1="145.63636363636363" x2="55" y2="145.63636363636363" style="visibility: inherit;" fill="rgb(0, 0, 0)" stroke="rgb(204, 204, 204)" stroke-width="1px"></line><line x1="60" y1="129.45454545454547" x2="55" y2="129.45454545454547" style="visibility: inherit;" fill="rgb(0, 0, 0)" stroke="rgb(204, 204, 204)" stroke-width="1px"></line><line x1="60" y1="113.27272727272727" x2="55" y2="113.27272727272727" style="visibility: inherit;" fill="rgb(0, 0, 0)" stroke="rgb(204, 204, 204)" stroke-width="1px"></line><line x1="60" y1="97.09090909090908" x2="55" y2="97.09090909090908" style="visibility: inherit;" fill="rgb(0, 0, 0)" stroke="rgb(204, 204, 204)" stroke-width="1px"></line><line x1="60" y1="80.90909090909089" x2="55" y2="80.90909090909089" style="visibility: inherit;" fill="rgb(0, 0, 0)" stroke="rgb(204, 204, 204)" stroke-width="1px"></line><line x1="60" y1="64.72727272727275" x2="55" y2="64.72727272727275" style="visibility: inherit;" fill="rgb(0, 0, 0)" stroke="rgb(204, 204, 204)" stroke-width="1px"></line><line x1="60" y1="48.54545454545453" x2="55" y2="48.54545454545453" style="visibility: inherit;" fill="rgb(0, 0, 0)" stroke="rgb(204, 204, 204)" stroke-width="1px"></line><line x1="60" y1="32.363636363636374" x2="55" y2="32.363636363636374" style="visibility: inherit;" fill="rgb(0, 0, 0)" stroke="rgb(204, 204, 204)" stroke-width="1px"></line><line x1="60" y1="16.181818181818187" x2="55" y2="16.181818181818187" style="visibility: inherit;" fill="rgb(0, 0, 0)" stroke="rgb(204, 204, 204)" stroke-width="1px"></line><line x1="60" y1="0" x2="55" y2="0" style="visibility: inherit;" fill="rgb(0, 0, 0)" stroke="rgb(204, 204, 204)" stroke-width="1px"></line></g><g transform="translate(50, 0)"><text x="0" y="178" dx="0em" dy="0.3em" style="text-anchor: end; visibility: hidden; font-family: &quot;Helvetica Neue&quot;, sans-serif; font-size: 12px; font-weight: 200;" fill="rgb(50, 49, 63)" stroke="none" stroke-width="1px">-0.02</text><text x="0" y="161.8181818181818" dx="0em" dy="0.3em" style="text-anchor: end; visibility: inherit; font-family: &quot;Helvetica Neue&quot;, sans-serif; font-size: 12px; font-weight: 200;" fill="rgb(50, 49, 63)" stroke="none" stroke-width="1px">0</text><text x="0" y="145.63636363636363" dx="0em" dy="0.3em" style="text-anchor: end; visibility: hidden; font-family: &quot;Helvetica Neue&quot;, sans-serif; font-size: 12px; font-weight: 200;" fill="rgb(50, 49, 63)" stroke="none" stroke-width="1px">0.02</text><text x="0" y="129.45454545454547" dx="0em" dy="0.3em" style="text-anchor: end; visibility: inherit; font-family: &quot;Helvetica Neue&quot;, sans-serif; font-size: 12px; font-weight: 200;" fill="rgb(50, 49, 63)" stroke="none" stroke-width="1px">0.04</text><text x="0" y="113.27272727272727" dx="0em" dy="0.3em" style="text-anchor: end; visibility: hidden; font-family: &quot;Helvetica Neue&quot;, sans-serif; font-size: 12px; font-weight: 200;" fill="rgb(50, 49, 63)" stroke="none" stroke-width="1px">0.06</text><text x="0" y="97.09090909090908" dx="0em" dy="0.3em" style="text-anchor: end; visibility: inherit; font-family: &quot;Helvetica Neue&quot;, sans-serif; font-size: 12px; font-weight: 200;" fill="rgb(50, 49, 63)" stroke="none" stroke-width="1px">0.08</text><text x="0" y="80.90909090909089" dx="0em" dy="0.3em" style="text-anchor: end; visibility: hidden; font-family: &quot;Helvetica Neue&quot;, sans-serif; font-size: 12px; font-weight: 200;" fill="rgb(50, 49, 63)" stroke="none" stroke-width="1px">0.1</text><text x="0" y="64.72727272727275" dx="0em" dy="0.3em" style="text-anchor: end; visibility: inherit; font-family: &quot;Helvetica Neue&quot;, sans-serif; font-size: 12px; font-weight: 200;" fill="rgb(50, 49, 63)" stroke="none" stroke-width="1px">0.12</text><text x="0" y="48.54545454545453" dx="0em" dy="0.3em" style="text-anchor: end; visibility: hidden; font-family: &quot;Helvetica Neue&quot;, sans-serif; font-size: 12px; font-weight: 200;" fill="rgb(50, 49, 63)" stroke="none" stroke-width="1px">0.14</text><text x="0" y="32.363636363636374" dx="0em" dy="0.3em" style="text-anchor: end; visibility: inherit; font-family: &quot;Helvetica Neue&quot;, sans-serif; font-size: 12px; font-weight: 200;" fill="rgb(50, 49, 63)" stroke="none" stroke-width="1px">0.16</text><text x="0" y="16.181818181818187" dx="0em" dy="0.3em" style="text-anchor: end; visibility: hidden; font-family: &quot;Helvetica Neue&quot;, sans-serif; font-size: 12px; font-weight: 200;" fill="rgb(50, 49, 63)" stroke="none" stroke-width="1px">0.18</text><text x="0" y="0" dx="0em" dy="0.3em" style="text-anchor: end; visibility: hidden; font-family: &quot;Helvetica Neue&quot;, sans-serif; font-size: 12px; font-weight: 200;" fill="rgb(50, 49, 63)" stroke="none" stroke-width="1px">0.2</text></g><line x1="60" y1="0" x2="60" y2="178" fill="rgb(0, 0, 0)" stroke="rgb(204, 204, 204)" stroke-width="1px"></line></g></g><g transform="translate(60, 0)" clip-path="url(#clip_0)"><clipPath id="clip_0"><rect width="270" height="178"></rect></clipPath><g><g><g><line x1="0" y1="0" x2="0" y2="178" fill="rgb(0, 0, 0)" stroke="rgb(60, 60, 60)" stroke-width="1px" opacity="0.25"></line><line x1="22.5" y1="0" x2="22.5" y2="178" fill="rgb(0, 0, 0)" stroke="rgb(60, 60, 60)" stroke-width="1px" opacity="0.25"></line><line x1="45" y1="0" x2="45" y2="178" fill="rgb(0, 0, 0)" stroke="rgb(60, 60, 60)" stroke-width="1px" opacity="0.25"></line><line x1="67.5" y1="0" x2="67.5" y2="178" fill="rgb(0, 0, 0)" stroke="rgb(60, 60, 60)" stroke-width="1px" opacity="0.25"></line><line x1="90" y1="0" x2="90" y2="178" fill="rgb(0, 0, 0)" stroke="rgb(60, 60, 60)" stroke-width="1px" opacity="0.25"></line><line x1="112.5" y1="0" x2="112.5" y2="178" fill="rgb(0, 0, 0)" stroke="rgb(60, 60, 60)" stroke-width="1px" opacity="0.25"></line><line x1="135" y1="0" x2="135" y2="178" fill="rgb(0, 0, 0)" stroke="rgb(60, 60, 60)" stroke-width="1px" opacity="0.25"></line><line x1="157.5" y1="0" x2="157.5" y2="178" fill="rgb(0, 0, 0)" stroke="rgb(60, 60, 60)" stroke-width="1px" opacity="0.25"></line><line x1="180" y1="0" x2="180" y2="178" fill="rgb(0, 0, 0)" stroke="rgb(60, 60, 60)" stroke-width="1px" opacity="0.25"></line><line x1="202.5" y1="0" x2="202.5" y2="178" fill="rgb(0, 0, 0)" stroke="rgb(60, 60, 60)" stroke-width="1px" opacity="0.25"></line><line x1="225" y1="0" x2="225" y2="178" fill="rgb(0, 0, 0)" stroke="rgb(60, 60, 60)" stroke-width="1px" opacity="0.25"></line><line x1="247.5" y1="0" x2="247.5" y2="178" fill="rgb(0, 0, 0)" stroke="rgb(60, 60, 60)" stroke-width="1px" opacity="0.25"></line><line x1="270" y1="0" x2="270" y2="178" fill="rgb(0, 0, 0)" stroke="rgb(60, 60, 60)" stroke-width="1px" opacity="0.25"></line></g><g><line x1="0" y1="178" x2="270" y2="178" fill="rgb(0, 0, 0)" stroke="rgb(60, 60, 60)" stroke-width="1px" opacity="0.25"></line><line x1="0" y1="161.8181818181818" x2="270" y2="161.8181818181818" fill="rgb(0, 0, 0)" stroke="rgb(60, 60, 60)" stroke-width="1px" opacity="0.25"></line><line x1="0" y1="145.63636363636363" x2="270" y2="145.63636363636363" fill="rgb(0, 0, 0)" stroke="rgb(60, 60, 60)" stroke-width="1px" opacity="0.25"></line><line x1="0" y1="129.45454545454547" x2="270" y2="129.45454545454547" fill="rgb(0, 0, 0)" stroke="rgb(60, 60, 60)" stroke-width="1px" opacity="0.25"></line><line x1="0" y1="113.27272727272727" x2="270" y2="113.27272727272727" fill="rgb(0, 0, 0)" stroke="rgb(60, 60, 60)" stroke-width="1px" opacity="0.25"></line><line x1="0" y1="97.09090909090908" x2="270" y2="97.09090909090908" fill="rgb(0, 0, 0)" stroke="rgb(60, 60, 60)" stroke-width="1px" opacity="0.25"></line><line x1="0" y1="80.90909090909089" x2="270" y2="80.90909090909089" fill="rgb(0, 0, 0)" stroke="rgb(60, 60, 60)" stroke-width="1px" opacity="0.25"></line><line x1="0" y1="64.72727272727275" x2="270" y2="64.72727272727275" fill="rgb(0, 0, 0)" stroke="rgb(60, 60, 60)" stroke-width="1px" opacity="0.25"></line><line x1="0" y1="48.54545454545453" x2="270" y2="48.54545454545453" fill="rgb(0, 0, 0)" stroke="rgb(60, 60, 60)" stroke-width="1px" opacity="0.25"></line><line x1="0" y1="32.363636363636374" x2="270" y2="32.363636363636374" fill="rgb(0, 0, 0)" stroke="rgb(60, 60, 60)" stroke-width="1px" opacity="0.25"></line><line x1="0" y1="16.181818181818187" x2="270" y2="16.181818181818187" fill="rgb(0, 0, 0)" stroke="rgb(60, 60, 60)" stroke-width="1px" opacity="0.25"></line><line x1="0" y1="0" x2="270" y2="0" fill="rgb(0, 0, 0)" stroke="rgb(60, 60, 60)" stroke-width="1px" opacity="0.25"></line></g></g></g><g><g><line x1="0" y1="161.8181818181818" x2="270" y2="161.8181818181818" fill="rgb(0, 0, 0)" stroke="rgb(153, 153, 153)" stroke-width="1.5px"></line></g></g><g><g><line x1="22.5" y1="0" x2="22.5" y2="178" fill="rgb(0, 0, 0)" stroke="rgb(153, 153, 153)" stroke-width="1.5px"></line></g></g><g><g><g><g><g><path stroke="rgb(0, 153, 136)" stroke-width="2px" d="M22.5837,-26.19933036240664L22.72185,31.099545376722887L22.749750000000002,52.77677248324855L22.77225,65.03728901234784L22.799699999999998,73.54717256807119L23.15925,89.25514831414097L23.2947,99.82374141428839L23.3577,106.67403876028243L23.5629,105.00388581805767L23.5998,105.33921355390798L23.643449999999998,106.88284992128911L23.99175,110.01600514902879L24.55785,115.02188800645115L24.86025,119.74494790380207L25.21305,123.09989920636679L25.250400000000003,126.1702671407215L25.56945,126.44717677866666L25.574849999999998,126.72555709413453L25.69455,129.21539363782674L25.9182,131.71338633860236L26.068949999999997,131.83681038351034L26.0847,132.03311709026124L26.2449,134.8047428810571L26.263350000000003,137.24711795398923L26.388,138.46952378740437L26.73675,138.74379570923412L26.83035,139.5452594486473L27.2556,140.97807546817518L27.4878,142.65467311821087L27.51525,144.23305885189822L27.769949999999998,144.8234417783638L27.78525,145.3488600750324L27.9711,146.39769718667986L28.3833,145.06445325424036L28.453950000000003,144.2945845164833L29.02815,144.66471739708157L29.19645,145.4311847232423L29.2464,146.16248725238034L29.29275,147.16590849370934L29.56275,146.93796274082442L29.8575,148.05006038660042L30.1959,142.08946960062673L30.3039,139.05814352168034L30.4029,138.16583256624125L30.5046,138.17305386155383L31.406850000000002,138.6201411743968L31.4559,138.8177379721974L31.49685,136.6103112935648L31.64985,137.36679207505523L31.73175,138.45292289876195L31.864500000000003,139.7049413529952L31.88205,140.86044654311473L31.977899999999998,136.87620286053598L32.01075,135.067087698359L32.112,135.67643055074242L32.1408,136.39844565298804L32.21955,137.08404203664486L32.67945,137.78365874927528L32.69205,138.4773443215757L33.11325,140.35780261197291L33.147,142.0517865583186L33.1767,143.57025505276704L33.286049999999996,138.21699836734138L33.300000000000004,133.57602414320127L33.50475,134.2070024524793L33.5655,131.63714870463264L33.5835,129.3607150463351L33.78555,129.42683093331297L33.878699999999995,129.74260645523782L34.02225,131.2712157872181L34.7256,131.1032915551785L35.0883,132.38399313511513L35.712,129.0790204394995L35.7237,126.50985338316345L35.84385,126.47908130675711L36.1053,129.47234806371745L36.1845,131.55165021770478L36.393750000000004,131.12614549994004L36.463049999999996,133.83641692015988L36.50535,136.38387988791996L36.51165,138.67112104325122L36.82035,140.2888347868667L36.836999999999996,141.71287689667957L37.0638,136.7417792350036L37.28835,136.1173071824552L37.50075,138.28724888308366L37.50435,140.23275557713498L37.56375,141.82616194128119L37.6299,143.3011500554168L37.7172,144.5822773489384L37.8855,145.4222476864177L37.8909,146.20262130617962L37.9071,146.94375769099264L37.931400000000004,147.51909136503463L37.94805,148.01884420831638L37.9647,148.49226013758206L38.02005,148.94427125998092L38.16675,149.27783985174392L38.2401,149.22507858309677L38.28015,149.33800191580863L38.67795,148.67636425576197L38.9124,149.74703585895224L38.9502,150.70521632027342L39.2382,149.32297556719027L39.2517,146.25743574333686L39.33765,144.57762884068097L39.496050000000004,144.41005488070346L39.62925,145.85745242152467L39.753,147.15642067042393L39.803399999999996,148.25156458125429L40.19265,149.03946524882696L40.24665,149.80466758436157L40.45185,150.51502854983778L40.66425,150.26862786606088L41.13225,150.38365879209925L41.1651,150.55121260318623L41.3802,149.96693778950947L41.772600000000004,150.47499227346233L41.9274,150.9467661430933L42.4584,150.23936512323294L42.4908,149.827987155152L42.5331,149.64659860941123L42.6177,149.73662211755445L42.65369999999999,149.88776028155846L42.71084999999999,150.03317915454105L42.733799999999995,150.18120241918365L42.7626,150.8510404855674L42.993,151.0617409111229L43.0596,151.24914087813505L43.27155,151.3537060775317L43.3323,151.2833023583122L43.40025,151.3355997351623L43.718849999999996,151.6210803421569L43.7544,151.7759486111165L44.1639,151.98845640510737L44.36325,152.3122993707412L44.46495,152.6209651992675L44.5689,153.20841627887015L45.06525,153.46861518217878L45.1008,153.73161333714376L45.41805,153.38616812517841L45.7659,153.5387976020886L45.93105,153.5116144152223L45.9729,153.55755709948963L46.22985,153.3612858368239L46.64295,153.52863308296486L46.74375,153.68529821022065L46.7586,153.80324860674764L46.84185,153.5470850751766L46.8486,152.89020551665845L47.01105,152.45714727276325L47.18835,152.4141270744482L47.64015,152.79275217096134L48.0897,152.93334875174747L48.3669,153.0751213384569L48.4497,153.2370117578798L48.58425,153.42488301143376L49.488749999999996,153.43298766773088L49.524750000000004,152.9693970591155L49.53735,152.22940709084008L49.7628,152.16811198054185L50.193000000000005,152.4033985646283L50.195699999999995,152.59658451711653L50.3262,152.80258427411542L50.71725,152.963207259474L51.129900000000006,152.9692276917578L51.338249999999995,153.08120237770277L51.8832,152.95963195388455L51.9705,152.90992394726527L52.2954,153.16522706688468L52.461,153.27648815571717L52.64234999999999,153.3863020086291L52.85025,153.36485830499655L53.4258,153.39000705417396L53.51085,153.38575893699368L53.5311,153.3957481902177L53.765550000000005,153.44234474739147L54.63315,153.41060849038155L54.75465,153.40305420124778L54.87345,153.45578341027542L55.116,153.05366376939364L55.4688,153.06047536247573L55.5219,152.97836647946505L55.5561,152.94745781856864L55.70910000000001,152.91840303774975L55.96515,152.83410800689012L56.18025,152.76934506177867L56.2032,152.71132463146444L56.2131,152.6639287264903L56.22795,152.5983134961374L56.2392,152.55918780261783L56.4525,152.61122687774858L56.6442,152.66561793822154L56.8341,152.66574895653076L58.362750000000005,152.70032058105136L58.7916,152.66012561657462L58.9104,152.47679364552917L59.1219,152.43566226426984L59.174549999999996,152.4525014404866L59.226749999999996,152.29761090590276L59.2299,152.1636962897368L60.045300000000005,151.89277029743073L60.4233,151.85376388735122L60.48855,151.78611821211888L60.51240000000001,151.72955864351474L60.5268,151.7185491876097L61.115399999999994,151.83379682305042L61.14645,151.93555653722433L61.3701,151.88494739448709L61.3773,151.86127240359676L61.4538,151.9208869766092L61.47045,151.9513802114449L61.642799999999994,151.92961248423074L61.7931,152.09269270332857L62.9514,152.2803728483721L63.305099999999996,152.29619989493142L64.0269,152.486487784545L64.11330000000001,152.68213825136445L64.33290000000001,152.47802287360048L65.0394,150.56234485996148L65.46825,149.55504800853717L65.5065,148.63627163341772L65.57085,148.00969621269616L65.8737,147.16303976797832L65.99655,146.5054614093118L66.31425,145.53704148424958L66.5559,145.11991515943015L66.80115,144.8952778269468L67.04055,145.17493997537503L67.04775,145.44459134592313L67.39784999999999,145.6206030075901L67.6494,145.84750632984282L68.25195,145.65082884556813L68.39775,145.53638591738581L68.53275000000001,145.18712232207835L68.74560000000001,145.1585454368327L69.16544999999999,145.68619347793407L69.47550000000001,145.84524696409204L69.5871,145.28575855322305L69.92775,145.6339414345473L70.3044,146.4620753981569L70.416,146.72766880572243L70.53885000000001,146.9687655708492L70.7922,146.97046283642788L70.83855,147.13058440261128L71.34075,147.307769022222L71.44605,147.41528447929014L72.2295,147.56903504703024L72.315,147.62837245547743L72.4167,147.54543202044474L72.63765,147.59464186929128L72.8991,147.55042821069486L73.557,147.84347897390765L73.9728,147.7866740028201L74.09385,147.84893403745406L74.12039999999999,147.8638604367434L74.1564,147.82442268842655L74.19015,147.80656450675792L74.4597,148.14521280721328L74.83455,148.10021526901596L74.84355,148.09887665253504L75.42360000000001,148.0989203373068L75.43755,148.12973661352999L75.4623,148.19711238437995L75.47805,148.25766648479637L75.48255,148.32495113177333L75.82815000000001,148.51185734418635L76.02165,148.63374367921085L76.28580000000001,148.6999245045569L76.3119,148.77770227356677L76.6485,148.78577798846354L76.6611,148.78106313111257L76.73715,148.67789342934208L76.89059999999999,148.54536762605534L77.16465000000001,148.84991576212357L77.17095,149.13243115400581L77.38650000000001,149.10380061174664L77.66775,148.69685741568762L78.471,148.91705249414397L78.8751,148.47505599537033L79.19685,148.36878245335862L79.55055,148.56388223642588L79.8156,148.71256985560274L79.9029,148.86992399970026L80.00325000000001,149.13071242333623L80.397,149.2144531192207L80.7093,149.33066695928625L80.80695,149.50601485049907L81.34155,149.2573626770388L81.71415,149.36290584505488L82.12724999999999,149.4339295236304L82.23479999999999,149.41810803559733L82.47555,148.69455863244457L83.0088,148.71750437572194L83.19330000000001,148.4425196510693L83.1987,148.1742409416915L83.57715,147.86356846747904L84.0762,147.6527068404359L84.0933,147.507242693289L84.1257,147.38144606493734L84.46905,147.2178690893306L84.81645,146.86390797163727L84.90195,146.59814831392808L84.95415,146.3676117692172L85.19579999999999,146.6570458945963L85.7376,146.55759529879688L85.87440000000001,146.42130929588268L87.15555,146.28176706408823L87.15599999999999,146.15744271627528L87.21855,146.0943348919257L87.23205,146.07343289992173L87.2505,146.09052972047212L87.60645000000001,145.8666620893523L87.90885,145.93090309142275L88.09649999999999,146.08554007139904L88.1019,146.2304261249966L88.43445000000001,146.09099288406154L88.8651,146.0331483801744L89.29305,145.80890448283844L89.90639999999999,146.08728331386388L91.34774999999999,145.84400445844864L91.53225,145.7973688978126L91.746,145.60289074225756L92.45385,145.72821230510056L92.53125,145.72645541877446L92.57085000000001,145.81635949552862L92.61405,145.98691290653474L92.9574,145.46716008009207L93.0231,144.92111152184708L94.37265,143.01860720135926L94.39694999999999,141.01175381709209L94.46085000000001,139.62879564504172L94.94505000000001,138.38453446670863L95.18445,137.0374550656482L95.36534999999999,136.04712410416965L95.7213,135.30046529128967L95.78745,134.56022201717144L96.057,134.16361267551184L96.06285,133.72940116811483L96.1011,133.201970272234L96.28245,133.03171153984397L96.72075000000001,132.92939343561466L96.9633,132.84064194040442L97.11495,132.44314531866505L97.4493,131.66627921981302L97.45155,130.99754182442987L97.6212,130.80763611121174L97.93935,130.03667122300794L98.8983,128.43953024563976L99.15119999999999,128.02836352117686L99.21645000000001,127.41194829044512L99.23715,126.74168095873878L99.65385,125.51897801100499L99.67185,124.30295377579506L99.68535,123.39023176906781L99.68985,122.64263672031683L99.72405,121.95191762572657L100.11825,120.46346604335372L100.2258,119.74623358758095L100.33065,119.5595373856451L100.7208,119.38322323862816L100.737,119.34435845749906L101.0025,118.88726198717464L101.00295,118.4825408427468L101.35755,118.0439768026151L101.42099999999999,117.40142677809968L101.5533,116.6039727347395L101.6235,115.52891920688731L101.96955,115.2918245447057L102.02625,114.96462096064866L102.27600000000001,116.65843483983282L102.30255,117.82265332189488L102.35610000000001,118.78902890694695L103.66875,118.23205033421907L103.84155,117.1605196616468L104.30595,116.72791222335741L104.72355,115.96932339041366L104.8293,115.42535409688267L105.00885,115.46652258508783L105.03495000000001,115.3176863296253L105.066,114.34745548939961L105.06779999999999,113.49988143542045L105.53625,114.21747001589831L105.6447,113.63224063141492L105.73604999999999,113.73865884032317L106.3647,112.79267356451355L106.41195,112.60740379356471L106.4925,112.80832495621205L106.4988,113.04566744550654L106.515,113.27008062622532L106.53345,113.37240609058257L106.57575,113.78954662611297L106.59779999999999,114.28400709225289L106.8147,115.4585394484854L107.36055,115.78244694216917L107.4699,115.92996422573862L108.15885,109.42883127009948L108.73259999999999,103.1949222362883L109.12635,99.75891523100019L109.3041,95.9755491461872L109.4607,91.07412826509673L109.46745,86.85324886961854L109.9872,81.26183196747695L110.16405,77.40557842359355L110.1726,74.00973845771188L110.2023,71.09897422933868L110.40165,68.8717497800593L110.4642,68.83309828608836L110.55105,69.2739686365011L110.68785,69.2954966868534L111.55545000000001,68.73981448792317L111.88485,66.77928357553364L112.18860000000001,64.7441819051862L112.2111,62.57201776563765L112.2885,60.61513619443724L112.30515,59.277674394599785L112.41629999999999,58.36704609734966L112.7097,55.23263609195949L112.7223,53.14835616699989L112.80195,52.96820109508809L113.19614999999999,53.92248542848999L113.28255,55.09881210531552L113.31135,55.92505401448501L113.60205,58.321317018571506L113.69475,60.75896777184438L114.02414999999999,60.225768849677365L114.7068,59.36746010615269L115.3656,60.88495443390627L115.4259,62.83055762924525L115.51725,64.1245805839968L115.8858,65.83024579142709L115.89614999999999,67.3566023867837L116.3214,66.60025146313656L116.45055,66.26108724728738L116.52345,66.40101939229314L116.81099999999999,65.00693276876991L116.98785,63.6966603633241L117.16290000000001,62.90764209358183L117.25694999999999,63.6463099723603L117.40589999999999,64.29552335138487L117.79244999999999,62.91431451755412L117.8964,61.19969014478879L118.2042,59.97553436784696L118.24470000000001,58.01332088528676L118.34594999999999,56.42327132637227L118.67715000000001,55.84909876175696L119.18835,55.02863444783557L119.46285,54.939178499482665L119.4804,55.35324554296477L119.48490000000001,55.62524222556047L119.9898,56.08743169805372L120.3588,56.05024336244081L120.41325,56.73499796996296L120.4497,56.67027109561258L120.50415,57.112398856615584L120.84615000000001,57.688635746275125L120.93119999999999,57.61274574474709L121.42755,50.93561057153485L121.65075,48.99880265886233L121.8861,46.34110159709326L121.93245,43.66426599354389L122.5728,41.77353648351482L122.66369999999999,41.41331531899246L122.7987,40.28991478784607L123.55154999999999,38.84621302036348L123.59295,38.2476738018558L123.90435000000001,37.35222292610533L124.11540000000001,37.46314200706411L124.13340000000001,37.53749763620311L124.4745,36.49488463632889L125.019,35.5492400236771L125.3088,33.96164440447336L125.7579,30.504874641253224L125.7597,27.519155090512783L125.78444999999999,25.406271628364777L125.9442,23.682845903803525L126.14670000000001,26.692321669545976L126.34965,30.36555669684512L126.81089999999999,33.535586029377015L126.8352,35.78690010560783L126.85995,37.60154128409425L126.8622,39.27982975437453L127.1295,39.57644439014766L127.15065,40.27307177321694L127.15155,40.94091362202906L127.2474,42.11787267779127L127.29780000000001,43.11658861702381L127.63709999999999,42.48876192390051L127.99125,40.30363512614403L128.1321,38.37737496471084L128.81969999999998,40.3430524334575L128.92185,40.77729508430784L129.12705,40.61394372852925L129.13965000000002,40.111773869120356L129.3768,42.25784008892742L129.3993,44.57887191971545L129.69315,44.305875810767674L129.72645,44.58098057242742L129.8475,44.735112485553174L129.8682,43.6867429752175L130.75289999999998,43.4778173565534L130.75605,43.418984235387L130.7844,43.66407692689819L131.23080000000002,44.02455068949976L131.51925,44.48848402275172L131.56605,43.19620550776784L132.70905,41.68126848786355L134.32005,40.45904291917691L134.7966,38.97979035898874L134.84295,36.79524892636843L134.94150000000002,35.01764768477659L135.4248,36.5215540164819L135.62595,38.34570311341952L135.64845,39.74078517976969L135.80685,41.217259908312485L136.4904,43.7189826090661L136.78289999999998,43.74768963928764L136.78470000000002,43.820633914985336L137.06055,46.215845541203464L137.07315,48.32224584897719L137.2419,49.17007641094705L137.24325000000002,49.807973723852314L137.6388,51.59106033230481L137.66355000000001,52.81879927139222L138.38805000000002,53.057674562086945L138.56085000000002,52.88177835507716L138.7107,54.3438499243683L138.90105,57.2422179332204L138.9546,59.834137841455785L139.23675,60.22288735576535L139.35465,60.7082890498763L140.18355,61.49744082019588L140.63490000000002,59.35759408402264L141.10784999999998,59.906018150995536L141.89894999999999,62.20240205970575L142.1505,63.02047890147203L142.6158,62.64247261036009L142.8264,63.534080182721056L142.83225,63.88437906563081L142.97265000000002,63.87450760840646L143.05634999999998,62.75120739121219L143.49599999999998,63.55583549800417L143.8614,64.7076248151811L143.95274999999998,64.74529423158499L144.66060000000002,66.89171204479103L144.86535,68.72716231071993L145.7802,67.4236053083413L146.0394,66.65817295471216L146.4426,66.36746192348538L146.54070000000002,66.82779504068704L146.55644999999998,67.55211597704465L146.8638,62.32402367450378L146.8917,57.93010541821073L146.91645,54.638867534781085L147.2769,52.40813770620093L147.55725,51.40114348260548L147.58875,50.3166214193061L147.69225,50.499818459559876L148.3992,48.29232537932043L148.62869999999998,50.2399772319376L148.7034,50.438209970254604L148.86225,49.51426595130138L148.8726,48.70928862674475L149.66955,48.45853369248283L149.79375000000002,47.61110962705399L149.8257,46.6770680281594L150.156,45.2263710216811L150.48090000000002,42.04575983619776L150.5331,41.00393867002046L150.72795000000002,39.70282948063229L151.11855,40.00757242320114L151.16175,40.24271686715929L152.20485,37.94717873086188L152.946,38.029629361450304L153.2124,37.68741913465067L153.8091,37.90393491449797L153.85320000000002,38.14181874163418L153.8586,38.499671011872294L154.07999999999998,41.25971575109358L154.6155,41.980375765245185L155.0322,42.50550265772435L155.03310000000002,42.6255047096146L155.1249,43.935988392396354L155.41965,42.788909785227304L155.421,41.72136209783551L155.60684999999998,41.73403619323554L155.90474999999998,41.0391612306548L155.97405,40.91560549363578L156.03209999999999,40.44948679079462L156.2958,43.510135866486195L156.4335,44.52928469642575L156.4911,45.94387745047999L156.90599999999998,46.041737963155725L157.60125000000002,48.47826717496085L157.65255,50.33906636742179L157.66065,51.933930114601154L157.77,52.61378149709661L158.35995,51.779267464770925L158.36085000000003,50.99614567824122L158.36669999999998,50.26432371948016L158.52375,47.49991175934866L158.60340000000002,44.69517732597788L158.661,42.716691210306294L158.99985,41.54675708511763L159.2064,40.60988930623006L159.27030000000002,40.33410873361311L159.51059999999998,42.02016897620939L159.5529,43.84314909889807L160.38495,45.085188951107284L160.46055,46.34530473563916L161.08605,46.847209012198675L161.3187,46.2735012281405L161.4582,46.00815423396344L161.54775,44.78322897342517L161.91405,42.893753629270805L162.34244999999999,44.894203024407375L163.20645000000002,44.92513694142497L163.25055,44.41333326875662L163.53945000000002,44.628256246426815L163.66410000000002,44.466948027077336L164.448,43.21088001359266L165.1401,43.93610280550314L165.76425,44.78834146242093L165.91545,44.10865045443575L166.41899999999998,45.86477419902741L166.82264999999998,47.07273214204889L166.87980000000002,48.22333624193473L166.9068,49.167678133349625L167.29515,47.89157939223085L167.3595,46.82382737366504L167.68665,45.32110010692986L167.72220000000002,43.73717726864976L168.18480000000002,43.90967231521623L168.4539,44.44674747382439L168.46290000000002,44.91427301478103L168.552,44.94498789599987L168.9282,46.0751644128068L169.0749,47.78266697625037L169.13070000000002,49.98014705248599L169.3908,48.016165867892596L169.43625,47.142068903277504L169.4421,45.56799782950219L169.55775,45.249447112753074L169.90515000000002,46.53782410569204L170.01585,46.82010158730043L170.2917,48.26167961127982L170.32725,49.082811985645776L170.39835,49.82458600861716L170.5059,49.723183618966914L171.1404,52.51510261352705L171.198,54.10630465427394L171.27855,55.13432669206607L171.3186,55.68791360465421L171.76005,54.029952200070085L171.78615,51.57817874686005L172.2096,51.90114793807018L172.66455,51.56321549734788L172.76129999999998,51.45899301566955L173.57895000000002,48.174826169919754L173.64419999999998,46.56447072305701L173.8296,47.830972940485026L173.85479999999998,49.689344427398424L173.9277,49.42697521032483L174.10365,48.45002090318431L174.3966,47.56337627975864L174.40155000000001,46.974158609966736L174.80115,48.12124711077294L174.92579999999998,48.71153567038587L174.9357,49.36275287798486L175.0149,49.54971661701461L175.29165,48.25649583817716L175.48155,44.787992094830884L176.5566,45.648594618139356L176.64075,46.780025443429935L176.6475,47.928985207537096L176.67945,49.55549175971089L176.7942,50.981011337665024L176.7987,52.36495487496802L177.08175,53.50314970612068L177.51059999999998,55.74225980351859L177.62984999999998,57.66650846851044L178.04835,57.859455938047105L178.18875,56.34221145055227L178.5168,52.88497576439124L178.55865,49.66136691182405L178.84395,53.193002704304774L178.9272,55.77252833128617L179.01855,57.406712719435376L179.08425,58.52794632329052L179.40735,58.99108818727342L179.7129,59.25198991770124L179.7156,59.49633024612909L179.78625,57.945911204770184L179.78715,56.363058345602695L179.8272,55.61591905853594L180.2754,54.30044060472673L180.28844999999998,52.60848007481013L180.69345,49.063817322813264L181.27485000000001,48.23928790738833L181.52235000000002,49.65991030657062L181.64294999999998,50.28543347046711L181.72889999999998,51.132813448135394L181.78875,52.158541016849696L182.08305,54.852639658651654L182.4624,54.087926335558635L182.58435,53.68574399528278L182.8827,50.6377876996055L182.96685,48.89500512472284L183.4695,49.44528908759875L184.47795000000002,49.96519877439391L184.4793,50.403197139378705L184.7583,47.26713881129345L184.9257,44.624521901047416L185.55795,43.35283997125501L186.01875,43.110111957629556L186.8778,41.14593428895478L186.9372,39.970057734940525L187.01325,39.757546580924355L187.3323,38.80356891328893L187.33635,37.04755082492622L187.34535,35.053532713443474L187.5204,34.16935018775368L187.9983,36.096010115622846L188.07255,38.03901610935327L188.38935,33.45733216389516L188.66520000000003,34.32850096238971L188.78175,33.88852506313532L188.85645,33.51623877376744L189.1584,29.253931313261177L189.34785,25.581968645986024L190.08405,21.52540650379362L190.47465,25.432490043094532L190.737,26.575769017075288L191.11364999999998,28.28958355805679L191.4795,28.5307109580545L191.48985,28.221770249880365L191.78055,26.798278165447186L191.97495,27.505120133686773L191.97854999999998,28.12542615819649L192.08790000000002,29.25081386081908L192.8565,27.875692608441454L192.93615,28.002131848498436L192.95280000000002,28.274583282140725L193.131,23.503273504653805L193.18140000000002,21.612900963247228L193.40189999999998,18.13091584598675L193.44195000000002,14.843034056733018L193.46085,12.165921418803123L193.9221,12.636834782224554L195.174,14.604265875746847L195.2901,16.047314117585813L195.7014,16.940440653068435L195.87105,17.819566006118208L195.975,19.072654457622946L196.57665,20.114315241229207L196.74179999999998,19.280046884539587L197.44335,20.06562037962823L197.72955000000002,19.526861383708734L197.76285,19.30941201471063L197.78085,19.385920464545876L198.3141,20.57954438938779L198.32535,21.8293024105551L198.35325,23.137147711325298L198.73935,23.622776694137542L198.882,25.096474446824345L198.99135,24.443452369436585L199.6029,25.75377905563181L199.65644999999998,26.372869106438202L199.72845,27.053868113488278L199.74419999999998,27.87150046423079L199.89405000000002,25.543704818442478L199.99935000000002,26.830276993050205L200.15099999999998,27.336646330774443L200.5002,28.640536411509743L200.52855,29.83062467111492L200.87369999999999,30.608332251256257L201.34529999999998,32.21175957069079L201.4605,33.62024110159936L201.59865,34.27877580655024L201.9609,34.105850699969125L202.21380000000002,35.59376623774452L202.61565000000002,38.52149375080549L203.04495,36.0083995969141L203.49045,35.97686450173762L203.6196,35.36800009450593L203.8194,36.12419723666858L203.94404999999998,32.37731833715492L203.97015000000002,30.941185282619244L204.27615,29.744447556121713L204.28379999999999,28.7278886158482L204.46425000000002,30.904893639776162L204.47685,33.40530600553399L204.54975,35.818703695152664L204.63435,38.18820797563893L205.4529,37.92400856026816L205.80435,39.95430325483483L205.98975,39.371138438718305L206.06535,38.680606314526784L206.4492,38.006215506157105L206.7669,38.07802067943345L206.7921,38.137915611993634L206.8434,38.48378230669647L206.86185,38.946138594576496L207.09990000000002,39.38513987830956L207.31995,36.02639593803488L207.33929999999998,33.25567743401061L207.61695,35.78640761707885L207.80595,36.160357748986314L208.20915,36.04822572340191L208.5876,32.26479587145758L209.0871,30.49341791521627L209.09115000000003,29.022039643874763L209.22615,28.104280525293746L209.5371,31.027234256184755L209.81969999999998,33.66812005306508L209.94705,35.00824219908293L210.09285,35.91558383501584L210.4551,37.86712960701138L210.48749999999998,39.55308011389087L210.75705,43.12489032884574L210.80610000000001,44.91984295292997L210.94740000000002,47.183289900601466L210.9645,49.069880130100216L211.01625,50.16844458506493L211.0203,51.23116679764814L211.0473,51.932564978339954L211.14945,50.542304842303466L211.34205,49.42199351421266L211.83885,47.37230249617096L212.14034999999998,42.05819284003667L212.17634999999999,37.175866137227075L212.1948,33.82694211112539L212.4621,38.32855247360297L212.81175,39.98986688954187L213.0453,39.91304557816122L213.21315,39.758046787642826L213.2307,39.639164310013484L213.91875,39.8804009378878L214.0524,40.157893530050785L214.76655,42.20310520692723L214.99380000000002,42.27336609136353L214.99425,42.35152790883794L215.29080000000002,41.07528404160175L215.31195,39.57605738807982L215.5122,39.13820593985258L215.62199999999999,35.9399899627044L215.77365,32.94586746235882L215.80290000000002,30.62186480522874L215.90144999999998,29.167522411916423L216.2493,30.0182423674338L216.65024999999997,31.771583886439174L216.73395,33.96989755032607L216.7902,36.10421356356656L216.80235,37.994742386526696L216.8703,39.440804824736034L216.9765,37.007167233166626L217.1844,37.79179778352483L217.2231,39.1813976492715L217.50390000000002,39.28303062256265L217.53449999999998,38.982638556331636L217.7316,39.969979789387565L217.9746,41.529653026178096L218.12895,44.059514155875064L218.13165,46.320224562270624L218.14245,48.48337906047553L218.1447,50.21925894257157L218.16944999999998,51.45318047664709L218.5785,49.870066077397865L218.75175,48.756702683710444L219.0924,48.503815347425814L219.09645,48.2738488689769L219.11175,48.106572304526196L219.32145,46.77269675931754L219.80655000000002,48.05908478765241L220.38885,47.711090463525096L220.40145,47.74988681885762L220.47075,47.94758655993351L220.8357,43.355964640636586L221.55975,41.19525461726181L222.14565,40.74844894571254L222.16635,39.999853217109745L222.1722,39.237150518342986L222.90480000000002,38.28376058968874L222.9426,38.29190128491359L223.05194999999998,38.66970281539159L223.60635,38.97907201657165L223.61984999999999,39.33268314841456L223.7895,41.703504114265115L223.93574999999998,42.30953268393037L224.04059999999998,41.71860949886852L224.09144999999998,40.929795387351874L224.8425,40.73904959553548L225.06795,42.36488546306549L225.63764999999998,42.5668170878464L225.66465,42.36558178165484L225.79829999999998,42.912529119108115L226.0935,38.99986482404529L226.28699999999998,36.55432289906912L226.74735,36.04399607134485L226.8621,40.022966811125L227.68560000000002,39.53733798371471L227.96550000000002,40.82031075919801L227.9961,41.83451600433733L227.99835,42.8232077819446L228.3129,42.381557185696494L228.8592,43.50859062116655L230.12505000000002,39.53048608681382L230.15384999999998,35.317034798689065L230.7357,33.34360433622663L230.80725,32.475421263182L230.8428,32.30392316261006L230.8923,23.71206301889893L231.066,26.222210721153687L231.16725,29.822356471075153L231.24689999999998,32.629093434744675L231.29145,35.15190509257016L231.46875,30.933243039199112L231.5538,29.48059479478539L231.65235,29.827875503831763L231.94170000000003,30.66743723898614L231.9939,31.57164026865445L232.14015,31.134931392501613L232.30575,27.40705743302044L232.3449,25.858796336618752L232.74495,28.612472757592343L232.7823,28.66571382721773L232.97580000000002,29.755484082302416L233.1981,27.189720210542248L233.33894999999998,29.001552891314788L233.72234999999998,29.119976031297057L233.7264,29.35667669577893L233.89335,29.12590057782569L233.9442,28.927790521861198L234.1629,26.77797204462709L234.23985,25.796928805347136L234.25245,25.21406992115172L234.54405,27.41086860316466L234.79155,27.787591528886168L235.1763,30.871579267647803L235.27215,31.686000425604504L236.08710000000002,30.538336316742374L236.3301,24.06346084421142L236.4975,22.71818690885027L236.84355,24.517421622664926L236.97674999999998,27.735181645548067L236.9826,30.644063596504907L237.4029,32.02353292625256L237.5325,31.911035464405074L237.58965,31.987709984036172L237.7098,28.540556531063856L237.8952,28.822908857467496L238.60979999999998,29.81108794285737L238.94865,32.10853828875534L239.0823,35.45146588122691L239.24835000000002,38.17149776761718L239.5359,34.943886128876585L239.6241,35.18251253848351L239.71679999999998,35.85686484293706L239.84820000000002,36.013150076282756L240.04035000000002,36.82182023435885L240.40665,38.96751198276385L240.62175000000002,38.66112455250152L240.68744999999998,38.84679576732998L240.69825,38.99629993663143L240.8544,35.75929032484376L240.89445,35.20550720847453L241.14374999999998,37.014655234481694L241.36425,40.230545560017816L241.9461,43.79517814282272L242.23409999999998,46.848729036125775L242.2764,49.94688940730467L242.4375,51.359283301955884L242.52525,52.575411821846856L242.6868,53.7184333771379L243.2781,53.29974348709548L243.7398,52.1965103764598L243.7578,51.18719905841277L243.9963,46.947040402759626L244.1205,44.940403216201986L244.21455,44.69938466042075L244.4913,47.02140650287629L244.60829999999999,49.19952056014185L244.61325,51.233388314117136L245.0466,50.882546304910875L245.07944999999998,50.564505015590896L245.21985,49.457857969341234L245.38500000000002,49.74894512449987L245.6478,48.127333830412L245.84535,49.76514356922888L246.0096,49.54117270234738L246.078,48.954488760632785L246.28545,50.67861545956359L246.39659999999998,50.353231520250574L246.97934999999998,48.947116632251294L247.0455,47.64814950570775L247.2984,44.761170736495814L247.3065,42.588185172757164L247.42125000000001,39.33361340243334L247.47254999999998,37.23969827359306L247.5,35.64544801786752" style="fill: none;" fill="none"></path></g></g></g></g><g opacity="0.2"><g><g><g><path stroke="rgb(0, 153, 136)" stroke-width="2px" d="M22.5837,-26.19933036240664L22.72185,82.66853354193948L22.749750000000002,89.84483083540742L22.77225,94.94068882682107L22.799699999999998,99.88611316139047L23.15925,147.1483066440983L23.2947,144.39182614399627L23.3577,138.83843101222408L23.5629,96.44302403384988L23.5998,107.18794765797527L23.643449999999998,115.93148274177855L23.99175,129.36544641175053L24.55785,147.35055114735258L24.86025,151.44764087755573L25.21305,146.38691371137446L25.250400000000003,148.11412478035146L25.56945,128.47755628553304L25.574849999999998,128.8131460141052L25.69455,148.26052255928516L25.9182,151.15834468806332L26.068949999999997,132.8125774453987L26.0847,133.60656031830743L26.2449,157.29290021075442L26.263350000000003,157.2802978881042L26.388,148.59361360018903L26.73675,141.03503367101604L26.83035,146.29238404672253L27.2556,153.12355877154252L27.4878,156.9543528980152L27.51525,157.76943446052346L27.769949999999998,149.91164497184482L27.78525,149.89721271463415L27.9711,155.5131074396724L28.3833,133.43607084994966L28.453950000000003,137.55847599357367L29.02815,147.91252830827779L29.19645,152.17398511923173L29.2464,152.61076190254906L29.29275,156.03190575557L29.56275,144.92014335976404L29.8575,157.91099913248962L30.1959,89.15778516368432L30.3039,112.10284218869425L30.4029,130.22156793962824L30.5046,138.2374152473428L31.406850000000002,142.60880753397942L31.4559,140.58213974941862L31.49685,116.88392280177635L31.64985,144.13179986517537L31.73175,148.17212357101116L31.864500000000003,150.9150338460776L31.88205,151.21175602078438L31.977899999999998,101.16770182143559L32.01075,118.84622451256621L32.112,141.14197237925094L32.1408,142.8768061033704L32.21955,143.23750930076295L32.67945,144.06468794765797L32.69205,144.7066638042981L33.11325,157.2481351963837L33.147,157.2702451160347L33.1767,157.21436900425363L33.286049999999996,90.10781695896928L33.300000000000004,91.86197406866334L33.50475,139.87911182032389L33.5655,108.53300720453262L33.5835,108.89237817038189L33.78555,130.02136247401887L33.878699999999995,132.58238772776994L34.02225,145.01912183382294L34.7256,129.59292042661798L35.0883,143.90380742536348L35.712,99.34936249797994L35.7237,103.397911678661L35.84385,126.2022464722395L36.1053,156.4017816082659L36.1845,150.25913812897423L36.393750000000004,127.2977507182143L36.463049999999996,158.22228053330699L36.50535,159.3054810407656L36.51165,159.25179410641167L36.82035,154.8453957028687L36.836999999999996,154.5269878428768L37.0638,92.00902590697461L37.28835,130.49786432222885L37.50075,157.81420474956658L37.50435,157.74028285321864L37.56375,156.16532068191603L37.6299,156.5747946306047L37.7172,156.11144706183535L37.8855,152.98140484331685L37.8909,153.22550236501476L37.9071,153.61357357691634L37.931400000000004,152.69680687988347L37.94805,152.5163949992169L37.9647,152.752811844376L38.02005,153.01220666955817L38.16675,152.27984779429707L38.2401,148.75024273652923L38.28015,150.3542819161984L38.67795,142.7217834815383L38.9124,159.38284993552688L38.9502,159.3286549371921L39.2382,136.88304967162284L39.2517,118.66805813529274L39.33765,129.45960383523595L39.496050000000004,142.90191052989525L39.62925,158.88386479621244L39.753,158.8470012410967L39.803399999999996,158.1077583532103L40.19265,156.13050558350304L40.24665,156.6914312008091L40.45185,156.9082292787392L40.66425,148.05103668435052L41.13225,151.41893083568323L41.1651,152.05918865617025L41.3802,144.7084903479977L41.772600000000004,155.0474623743106L41.9274,155.19271404228428L42.4584,143.87277878820896L42.4908,146.12559739838946L42.5331,148.01410644230518L42.6177,150.5468315715817L42.65369999999999,151.24800055541775L42.71084999999999,151.34194623848254L42.733799999999995,151.5134092606604L42.7626,156.87957273711535L42.993,152.95804181220856L43.0596,152.93573823672804L43.27155,152.29479169473052L43.3323,150.64966959878802L43.40025,151.8062756498429L43.718849999999996,154.19040346179497L43.7544,153.16976188766685L44.1639,153.90102513811806L44.36325,155.22688412361524L44.46495,155.398955993693L44.5689,158.49547314796257L45.06525,155.81040417690846L45.1008,156.0985956992954L45.41805,150.2771624380892L45.7659,154.9124624089084L45.93105,153.2669658112255L45.9729,153.9710411395539L46.22985,151.59484492784196L46.64295,155.0347579490732L46.74375,155.09528406133705L46.7586,154.86480197615245L46.84185,151.24161368066615L46.8486,146.97829038920727L47.01105,148.5596236112443L47.18835,152.0269453373145L47.64015,156.20037766173482L48.0897,154.1987178525464L48.3669,154.35107450424272L48.4497,154.69402541491118L48.58425,155.11572417041117L49.488749999999996,153.5059295696291L49.524750000000004,148.79708182744005L49.53735,145.56949772956696L49.7628,151.61645601418886L50.193000000000005,154.52097773043948L50.195699999999995,154.3352580222894L50.3262,154.6565820225938L50.71725,154.40881408243018L51.129900000000006,153.02341158078474L51.338249999999995,154.088974525644L51.8832,151.86549816449934L51.9705,152.46255189688367L52.2954,155.46295510096985L52.461,154.27783793854442L52.64234999999999,154.37462667003274L52.85025,153.17186497490513L53.4258,153.6163457940248L53.51085,153.3475258827887L53.5311,153.4856514683501L53.765550000000005,153.86171375824648L54.63315,153.12498217956585L54.75465,153.33506559953094L54.87345,153.93034628846428L55.116,149.43458702245897L55.4688,153.12177969989452L55.5219,152.2393865358423L55.5561,152.66927987167782L55.70910000000001,152.6569100113755L55.96515,152.07545273175293L56.18025,152.1864785575731L56.2032,152.1891407600858L56.2131,152.23736558278853L56.22795,152.00777642428875L56.2392,152.20705656165427L56.4525,153.07957855307242L56.6442,153.15513748167592L56.8341,152.66692812131208L58.362750000000005,153.0114652013237L58.7916,152.29837093671614L58.9104,150.82680590789425L59.1219,152.06547983329403L59.174549999999996,152.60405402630568L59.226749999999996,150.9035960957408L59.2299,150.95846474509347L60.045300000000005,149.4544363682243L60.4233,151.50270619683644L60.48855,151.17730713534084L60.51240000000001,151.22052252631295L60.5268,151.61946408450603L61.115399999999994,152.87102554162794L61.14645,152.85139396448028L61.3701,151.4294651099904L61.3773,151.648197485642L61.4538,152.45741813358936L61.47045,152.22581932490522L61.642799999999994,151.73370293934238L61.7931,153.56041467494586L62.9514,153.96949415349147L63.305099999999996,152.43864331394434L64.0269,154.1990787908435L64.11330000000001,154.44299245253205L64.33290000000001,150.64098447391933L65.0394,133.3212427388538L65.46825,140.48937634649602L65.5065,140.3672842579809L65.57085,142.37051742659372L65.8737,139.54313176599416L65.99655,140.58725618164647L66.31425,136.82126215913078L66.5559,141.3657782362266L66.80115,142.87354183467951L67.04055,147.69189931113613L67.04775,147.87145368077537L67.39784999999999,147.20470796254548L67.6494,147.88963623006237L68.25195,143.8807314871387L68.39775,144.5063995637677L68.53275000000001,142.04374996437267L68.74560000000001,144.90135346962646L69.16544999999999,150.43502584777096L69.47550000000001,147.27672833949327L69.5871,140.25036285546693L69.92775,148.76758736642924L70.3044,153.91528107056564L70.416,149.1180094737898L70.53885000000001,149.13863645697182L70.7922,146.98573822663587L70.83855,148.57167849825186L71.34075,148.90243059870872L71.44605,148.38292359289798L72.2295,148.95279015668413L72.315,148.16240913149986L72.4167,146.7989681051536L72.63765,148.03753050890836L72.8991,147.15250528332862L73.557,150.48093584281477L73.9728,147.27542926303366L74.09385,148.40927434915847L74.12039999999999,147.99819803034717L74.1564,147.46948295357552L74.19015,147.64584087174046L74.4597,151.19304751130667L74.83455,147.6952374252406L74.84355,148.08682910420677L75.42360000000001,148.09931350025263L75.43755,148.40708309953862L75.4623,148.80349432202902L75.47805,148.80265338854355L75.48255,148.93051295456561L75.82815000000001,150.19401325590232L76.02165,149.73072069443086L76.28580000000001,149.29555193267086L76.3119,149.47770219465548L76.6485,148.85845942253417L76.6611,148.73862941495398L76.73715,147.74936611340803L76.89059999999999,147.35263539647514L77.16465000000001,151.59084898673675L77.17095,151.67506968094543L77.38650000000001,148.84612573141402L77.66775,145.03436865115708L78.471,150.89880820025098L78.8751,144.49708750640804L79.19685,147.41232057525352L79.55055,150.31978028403086L79.8156,150.0507584281943L79.9029,150.28611129657787L80.00325000000001,151.47780823605981L80.397,149.96811938218096L80.7093,150.37659151987594L80.80695,151.08414587141436L81.34155,147.01949311589652L81.71415,150.31279435719955L82.12724999999999,150.07314263081008L82.23479999999999,149.27571464329958L82.47555,142.1826140040701L83.0088,148.92401606521824L83.19330000000001,145.9676571291956L83.1987,145.75973255729133L83.57715,145.0675161995671L84.0762,145.7549521970478L84.0933,146.1980653689666L84.1257,146.2492764097723L84.46905,145.74567630887032L84.81645,143.67825791239738L84.90195,144.20631139454517L84.95415,144.29278286681932L85.19579999999999,149.26195302300832L85.7376,145.66253993660212L85.87440000000001,145.19473526965487L87.15555,145.0258869779381L87.15599999999999,145.0385235859589L87.21855,145.52636447277936L87.23205,145.8853149718859L87.2505,146.24440110542557L87.60645000000001,143.85185340927404L87.90885,146.50907211005688L88.09649999999999,147.4772728911855L88.1019,147.53440060737458L88.43445000000001,144.83609371564606L88.8651,145.51254784519023L89.29305,143.79070940681478L89.90639999999999,148.59269279309294L91.34774999999999,143.65449475971135L91.53225,145.37764885208824L91.746,143.85258734226227L92.45385,146.85610637068748L92.53125,145.71064344183964L92.57085000000001,146.625496186316L92.61405,147.52189360558987L92.9574,140.7893846421079L93.0231,140.0066744976423L94.37265,125.89606831696901L94.39694999999999,122.95007335868749L94.46085000000001,127.1821720965884L94.94505000000001,127.18618386171082L95.18445,124.91374045610428L95.36534999999999,127.13414545086297L95.7213,128.58053597536954L95.78745,127.89803255010736L96.057,130.59412860057571L96.06285,129.8214976015416L96.1011,128.45509220930663L96.28245,131.49938294833356L96.72075000000001,132.00853049755096L96.9633,132.0418784835122L97.11495,128.86567572301084L97.4493,124.6744843301448L97.45155,124.9789052659815L97.6212,129.09848469224843L97.93935,123.09798722917384L98.8983,114.06526144932616L99.15119999999999,124.32786300101063L99.21645000000001,121.86421121385965L99.23715,120.70927497338164L99.65385,114.51465148140085L99.67185,113.35873565890573L99.68535,115.17573370852253L99.68985,115.91428128155795L99.72405,115.73544577441433L100.11825,107.06740180199796L100.2258,113.29114148562604L100.33065,117.87927156822246L100.7208,117.79639591547576L100.737,118.99457542733711L101.0025,114.7733937542547L101.00295,114.84005054289645L101.35755,114.09690044142982L101.42099999999999,111.6184765574607L101.5533,109.42688634449785L101.6235,105.85343745621768L101.96955,113.15797258507122L102.02625,112.0197887041352L102.27600000000001,131.9027597524903L102.30255,128.30061966045335L102.35610000000001,127.48640917241573L103.66875,113.21924317966808L103.84155,107.51674360849641L104.30595,112.83444527875294L104.72355,109.14202389391986L104.8293,110.52963045510378L105.00885,115.83703897893429L105.03495000000001,113.97816003046252L105.066,105.61537792736833L105.06779999999999,105.87171494960785L105.53625,120.67576724019918L105.6447,108.36517617106438L105.73604999999999,114.69642272049731L106.3647,104.278806082227L106.41195,110.93997585502537L106.4925,114.61661542003804L106.4988,115.18174984915689L106.515,115.28979925269431L106.53345,114.29333526979792L106.57575,117.54381144588643L106.59779999999999,118.73415128751233L106.8147,126.02933065457776L107.36055,118.69761438532308L107.4699,117.25761977786368L108.15885,50.91863466934724L108.73259999999999,47.08974093198776L109.12635,68.83485218340701L109.3041,61.92525438287042L109.4607,46.961340335282415L109.46745,48.865334310314864L109.9872,30.939079848202795L110.16405,42.69929652864283L110.1726,43.447178764776766L110.2023,44.90209617398003L110.40165,48.82672973654488L110.4642,68.48523484034973L110.55105,73.24180179021577L110.68785,69.48924914002419L111.55545000000001,63.73867469755088L111.88485,49.13450536402789L112.18860000000001,46.428266872059226L112.2111,43.022540509700775L112.2885,43.0032020536336L112.30515,47.240518196062624L112.41629999999999,50.17139142209834L112.7097,27.02294604344803L112.7223,34.389836842363536L112.80195,51.34680544788188L113.19614999999999,62.511044429107145L113.28255,65.68575219674545L113.31135,63.3612311970104L113.60205,79.88768405535005L113.69475,82.69782455130057L114.02414999999999,55.42697855017404L114.7068,51.6426814144308L115.3656,74.54240338368851L115.4259,80.34098638729616L115.51725,75.77078717676078L115.8858,81.18123265829952L115.89614999999999,81.09381174499339L116.3214,59.79309315031226L116.45055,63.20860930464487L116.52345,67.66040869734506L116.81099999999999,52.4601531570608L116.98785,51.90420871431178L117.16290000000001,55.806477665901184L117.25694999999999,70.29432088136673L117.40589999999999,70.13844376260585L117.79244999999999,50.48343501307748L117.8964,45.76807078990069L118.2042,48.95813237537038L118.24470000000001,40.353399542245L118.34594999999999,42.11282529614189L118.67715000000001,50.681545680219486L119.18835,47.644455622543006L119.46285,54.13407496430658L119.4804,59.07984893430364L119.48490000000001,58.073212368921816L119.9898,60.24713695049286L120.3588,55.7155483419245L120.41325,62.89778943766248L120.4497,56.08772922645916L120.50415,61.09154870564288L120.84615000000001,62.874767753210946L120.93119999999999,56.929735730994835L121.42755,-9.15860598737541L121.65075,31.567531444809646L121.8861,22.4217920411717L121.93245,19.57274556159973L122.5728,24.756970893252998L122.66369999999999,38.171324838291525L122.7987,30.17931000752884L123.55154999999999,25.852897113019793L123.59295,32.860820835286944L123.90435000000001,29.29316504435107L124.11540000000001,38.46141373569316L124.13340000000001,38.206698298454285L124.4745,27.111367637460887L125.019,27.038438509811073L125.3088,19.673283831639736L125.7579,-0.6060532277280402L125.7597,0.647679133848726L125.78444999999999,6.390320469032645L125.9442,8.172014382752508L126.14670000000001,53.77760356122798L126.34965,63.424671942537486L126.81089999999999,62.06585002216427L126.8352,56.04872679168528L126.85995,53.93331189047207L126.8622,54.38442598689687L127.1295,42.24597611210564L127.15065,46.54271822084081L127.15155,46.951490261337966L127.2474,52.710504179651096L127.29780000000001,52.10503207011658L127.63709999999999,36.838321685791016L127.99125,20.637493946335525L128.1321,21.04103351181206L128.81969999999998,58.034149652177646L128.92185,44.68547894196078L129.12705,39.14378152652222L129.13965000000002,35.59224513444033L129.3768,61.57243606719105L129.3993,65.4681583968076L129.69315,41.84891083023766L129.72645,47.056923427365035L129.8475,46.12229970368472L129.8682,34.25141738219696L130.75289999999998,41.597486788576305L130.75605,42.8894861448895L130.7844,45.86991115049884L131.23080000000002,47.26881455291402L131.51925,48.66388402201912L131.56605,31.565698872913032L132.70905,28.046835308725207L134.32005,29.45901280099696L134.7966,25.666517317295074L134.84295,17.13437603278595L134.94150000000002,19.019236510450213L135.4248,50.05671100182968L135.62595,54.76304498585789L135.64845,52.296523776921376L135.80685,54.505532465197845L136.4904,66.23448691584848L136.78289999999998,44.006052911281586L136.78470000000002,44.47713239626452L137.06055,67.77275017716669L137.07315,67.27984861894089L137.2419,56.80055146867579L137.24325000000002,55.549049539999544L137.6388,67.63883980837737L137.66355000000001,63.8684497231787L138.38805000000002,55.20755217833954L138.56085000000002,51.298712491989136L138.7107,67.50249404798855L138.90105,83.32753001288934L138.9546,83.1614170155742L139.23675,63.72163298455153L139.35465,65.076904296875L140.18355,68.59980675307189L140.63490000000002,40.09897345846352L141.10784999999998,64.84183475375175L141.89894999999999,82.86985723809762L142.1505,70.38317047736864L142.6158,59.24041599035263L142.8264,71.55854833397L142.83225,67.03706901181829L142.97265000000002,63.7856644933874L143.05634999999998,52.64150543646379L143.49599999999998,70.79748845913194L143.8614,75.07372866977346L143.95274999999998,65.08431897921997L144.66060000000002,86.20947236364538L144.86535,85.24621470408006L145.7802,55.691592286933556L146.0394,59.76928177205001L146.4426,63.75106264244427L146.54070000000002,70.970793095502L146.55644999999998,74.07100440426308L146.8638,15.271192951635896L146.8917,18.38484111157331L146.91645,25.01772658391434L147.2769,32.33156924897975L147.55725,42.338195470246404L147.58875,40.55592284961182L147.69225,52.14859182184394L148.3992,28.424887657165527L148.62869999999998,67.76884390549226L148.7034,52.22230461510746L148.86225,41.19876978072253L148.8726,41.464492705735296L149.66955,46.20173928412524L149.79375000000002,39.984293038194835L149.8257,38.270693638107986L150.156,32.17009796337649L150.48090000000002,13.420259166847586L150.5331,31.627548174424618L150.72795000000002,27.992846776138663L151.11855,42.75025890632111L151.16175,42.35901686278257L152.20485,17.28733550418508L152.946,38.771685036745936L153.2124,34.607527093453854L153.8091,39.852576933123856L153.85320000000002,40.28277318586004L153.8586,41.7203414440155L154.07999999999998,66.100118404085L154.6155,48.466315892609686L155.0322,47.231644690036774L155.03310000000002,43.70552317662674L155.1249,55.73034153743225L155.41965,32.46520232070577L155.421,32.11343291130933L155.60684999999998,41.848103051835864L155.90474999999998,34.7852865674279L155.97405,39.80360386046496L156.03209999999999,36.25441846522418L156.2958,71.0559775477106L156.4335,53.70162416588177L156.4911,58.675212236967965L156.90599999999998,46.92248257723722L157.60125000000002,70.40703008120711L157.65255,67.0862590995702L157.66065,66.28770383921538L157.77,58.73244393955578L158.35995,44.26864117383957L158.36085000000003,43.94804959947413L158.36669999999998,43.67792609063062L158.52375,22.620204118165105L158.60340000000002,19.45256742564115L158.661,24.910316169261932L158.99985,31.0173499584198L159.2064,32.17807929624212L159.27030000000002,37.85208358006045L159.51059999999998,57.19471115957607L159.5529,60.249970203096225L160.38495,56.26354762099008L160.46055,57.68634679642592L161.08605,51.36434750123459L161.3187,41.11013117161664L161.4582,43.62003128636968L161.54775,33.75890162858096L161.91405,25.88847553188151L162.34244999999999,62.898247580636635L163.20645000000002,45.20354219458321L163.25055,39.80710021474144L163.53945000000002,46.562563045458376L163.66410000000002,43.01517405293205L164.448,31.90626789223066L165.1401,50.46310793269765L165.76425,52.45848937468095L165.91545,37.9914313825694L166.41899999999998,61.66988790035248L166.82264999999998,57.9443536292423L166.87980000000002,58.57877314090729L166.9068,57.66675515608354L167.29515,36.4066907221621L167.3595,37.21405920657244L167.68665,31.7965547063134L167.72220000000002,29.481871724128723L168.18480000000002,45.46212773431432L168.4539,49.28042390129784L168.46290000000002,49.12200288339096L168.552,45.221421826969504L168.9282,56.2467530640689L169.0749,63.15019004724245L169.13070000000002,69.75746773860673L169.3908,30.340335206552L169.43625,39.275196221741766L169.4421,31.401358165524215L169.55775,42.382490662011236L169.90515000000002,58.133217042142704L170.01585,49.36059892177582L170.2917,61.23588182709436L170.32725,56.473003354939564L170.39835,56.500552215359434L170.5059,48.81056211211464L171.1404,77.64237356456844L171.198,68.42712302099575L171.27855,64.3865250321952L171.3186,60.67019581794739L171.76005,39.108299558812945L171.78615,29.512217667969793L172.2096,54.80787065896122L172.66455,48.5218235308474L172.76129999999998,50.52099068056454L173.57895000000002,18.61732455817136L173.64419999999998,32.071271701292574L173.8296,59.22949289733714L173.85479999999998,66.41468780961905L173.9277,47.06565225666222L174.10365,39.65743213891983L174.3966,39.58357466892764L174.40155000000001,41.67119958183983L174.80115,58.44504361802882L174.92579999999998,54.02413270690225L174.9357,55.223707746375695L175.0149,51.23239026828247L175.29165,36.617508828639984L175.48155,13.571458404714434L176.5566,53.39401732791555L176.64075,56.962902871045216L176.6475,58.2696230845018L176.67945,64.19405072927475L176.7942,63.810687539252385L176.7987,64.82044671069492L177.08175,63.74690318649466L177.51059999999998,75.89425068009984L177.62984999999998,74.98474645343695L178.04835,59.595983163876966L178.18875,42.68701106309891L178.5168,21.76985458894211L178.55865,20.648887238719254L178.84395,84.97772483663125L178.9272,78.98825897411866L179.01855,72.11437221277845L179.08425,68.6190487579866L179.40735,63.159364963119685L179.7129,61.6001054915515L179.7156,61.69539320197974L179.78625,43.992139832540005L179.78715,42.11738261309537L179.8272,48.891665474935024L180.2754,42.461134520444006L180.28844999999998,37.38083530556074L180.69345,17.161852554841488L181.27485000000001,40.81852316856384L181.52235000000002,62.44551189921121L181.64294999999998,55.915141945535495L181.72889999999998,58.75923324715008L181.78875,61.39008913527836L182.08305,79.09952743486924L182.4624,47.20550642772156L182.58435,50.06610293279995L182.8827,23.206181038509726L182.96685,33.20996195077896L183.4695,54.39784475348215L184.47795000000002,54.644385955550476L184.4793,54.345182424241855L184.7583,19.04261385852641L184.9257,20.84096970883283L185.55795,31.907702603123397L186.01875,40.925559835000485L186.8778,23.468335270881653L186.9372,29.387168748812257L187.01325,37.8449461947788L187.3323,30.21776990457016L187.33635,21.243388029662043L187.34535,17.107369710098624L187.5204,26.211707456545412L187.9983,53.43594946644525L188.07255,55.526070052927196L188.38935,-7.777823345227688L188.66520000000003,42.169020148840815L188.78175,29.928741969845504L188.85645,30.165662169456482L189.1584,-9.106835831295342L190.08405,-14.983652775937827L190.47465,60.59624189680274L190.737,36.86527978290212L191.11364999999998,43.713914426890284L191.4795,30.700857558033675L191.48985,25.4413038763133L191.78055,13.986849405548782L191.97495,33.86669784784317L191.97854999999998,33.70818037878385L192.08790000000002,39.37930318442258L192.8565,15.49960133704272L192.93615,29.140085009011358L192.95280000000002,30.726646184921265L193.131,-19.438514492728473L193.18140000000002,4.599548090587973L193.40189999999998,-13.206950209357501L193.46085,-11.928092322566272L193.9221,16.87505505301735L195.174,32.31114571744746L195.2901,29.034748294136733L195.7014,24.97857947241178L195.87105,25.73169418356636L195.975,30.350450521165698L196.57665,29.489262293685584L196.74179999999998,11.771631674333065L197.44335,27.135781835426002L197.72955000000002,14.678030420433402L197.76285,17.352367693727672L197.78085,20.07449651306328L198.3141,31.32215971296486L198.32535,33.07712460106072L198.35325,34.907755418257295L198.73935,27.993437539447456L198.882,38.359754221005886L198.99135,18.5662536729466L199.6029,37.54671923138878L199.65644999999998,31.944679563695757L199.72845,33.18285917693919L199.74419999999998,35.230191620913416L199.89405000000002,4.593544006347656L199.99935000000002,38.40942656452006L200.15099999999998,31.893970370292664L200.5002,40.375547138127416L200.52855,40.541419007561416L200.87369999999999,37.60770047252831L201.34529999999998,46.64260544560173L201.4605,46.29657487977636L201.59865,40.205588151108145L201.9609,32.549524740739315L202.21380000000002,48.985006077723085L202.61565000000002,64.87104136835445L203.04495,13.390552211891531L203.49045,35.69304864514959L203.6196,29.88822042942047L203.8194,42.929971516132355L203.94404999999998,-1.3445917584679137L203.97015000000002,18.015987791798324L204.27615,18.973808017644018L204.28379999999999,19.578858153386562L204.46425000000002,50.49793885512787L204.47685,55.90901729735462L204.54975,57.53928290172058L204.63435,59.51374650001526L205.4529,35.54621382193133L205.80435,58.22695550593464L205.98975,34.12265509366989L206.06535,32.465817196802675L206.4492,31.936698230830103L206.7669,38.72426723892039L206.7921,38.6769700050354L206.8434,41.59658255902204L206.86185,43.1073451854966L207.09990000000002,43.336151431907325L207.31995,5.797700475562721L207.33929999999998,8.319210897792487L207.61695,58.56297926469284L207.80595,39.52590893615377L208.20915,35.03903749314222L208.5876,-1.7860727960412817L209.0871,14.55101630904457L209.09115000000003,15.779635201800971L209.22615,19.844448458064704L209.5371,57.3338178342039L209.81969999999998,57.43609222498809L209.94705,47.069341513243586L210.09285,44.081658558412045L210.4551,55.43104155497117L210.48749999999998,54.726634675806224L210.75705,75.27118226343936L210.80610000000001,61.074416569688125L210.94740000000002,67.55431242964487L210.9645,66.0491921955889L211.01625,60.055524679747506L211.0203,60.795666710896924L211.0473,58.24514860456641L211.14945,38.029963617975085L211.34205,39.339191561395495L211.83885,28.925083333795726L212.14034999999998,-5.7687940651719884L212.17634999999999,-6.765074188059003L212.1948,3.686625876209945L212.4621,78.84304573590106L212.81175,54.94169663299215L213.0453,39.22165377573535L213.21315,38.36305767297745L213.2307,38.56922201134941L213.91875,42.05153058875692L214.0524,42.655326859517544L214.76655,60.61001029881565L214.99380000000002,42.905714051290005L214.99425,43.05498426610774L215.29080000000002,29.589089236476212L215.31195,26.083017506382674L215.5122,35.197542905807495L215.62199999999999,7.156046168370693L215.77365,5.998764959248632L215.80290000000002,9.705840891057818L215.90144999999998,16.078440872105688L216.2493,37.67472196709028L216.65024999999997,47.55165755748749L216.73395,53.75472052530809L216.7902,55.31305768273096L216.80235,55.009501793167814L216.8703,52.45536676862024L216.9765,15.104428909041673L217.1844,44.853472736748785L217.2231,51.687796440991505L217.50390000000002,40.197727382183075L217.53449999999998,36.27910996025261L217.7316,48.8560508868911L217.9746,55.5667121572928L218.12895,66.82826432314788L218.13165,66.6666182198308L218.14245,67.95176954431969L218.1447,65.84217788143593L218.16944999999998,62.55847428332676L218.5785,35.62203648415479L218.75175,38.73643214052376L219.0924,46.22782932086426L219.09645,46.20415056293663L219.11175,46.60108322446999L219.32145,34.76781685243955L219.80655000000002,59.63657704266636L220.38885,44.57914154637945L220.40145,48.099054016850204L220.47075,49.7268842296167L220.8357,2.03136736696419L221.55975,21.74886440688914L222.14565,36.72719790176913L222.16635,33.26249165968463L222.1722,32.37282622944227L222.90480000000002,29.703251231800436L222.9426,38.36516754193741L223.05194999999998,42.069916589693605L223.60635,41.763394827192485L223.61984999999999,42.51518333500084L223.7895,63.040892806920155L223.93574999999998,47.76378981091759L224.04059999999998,36.400300833311945L224.09144999999998,33.83046838370237L224.8425,39.02233746918765L225.06795,56.99740827083588L225.63764999999998,44.38420171087441L225.66465,40.55446402593094L225.79829999999998,47.83505515618759L226.0935,3.7858861684799194L226.28699999999998,14.5444455742836L226.74735,31.45105462182653L226.8621,75.83370346914639L227.68560000000002,35.166678537021994L227.96550000000002,52.367065738547936L227.9961,50.96236321059142L227.99835,51.721433780410095L228.3129,38.40670181946322L228.8592,53.6518915403973L230.12505000000002,3.7275452776388818L230.15384999999998,-2.6040267944335938L230.7357,15.582730174064636L230.80725,24.661773605780184L230.8428,30.76044025746259L230.8923,-53.61467827450147L231.066,48.813540041446686L231.16725,62.22366822036831L231.24689999999998,57.889726107770755L231.29145,57.85721001299946L231.46875,-7.034715441140264L231.5538,16.40676059506157L231.65235,32.953401885249406L231.94170000000003,38.22349285537547L231.9939,39.70946753566918L232.14015,27.20455150712621L232.30575,-6.143808202310055L232.3449,11.924446469003527L232.74495,53.39556054635483L232.7823,29.144883453845978L232.97580000000002,39.5634163780646L233.1981,4.0978453647006745L233.33894999999998,45.3080470182679L233.72234999999998,30.185784291137367L233.7264,31.4869826761159L233.89335,27.048915516246467L233.9442,27.14480001818052L234.1629,7.429605749520391L234.23985,16.967539651827394L234.25245,19.968339963392793L234.54405,47.182056741281L234.79155,31.178097860379665L235.1763,58.62746891650288L235.27215,39.01579084721479L236.08710000000002,20.209359336983084L236.3301,-34.21041840856728L236.4975,10.6107214905999L236.84355,40.71053404699674L236.97674999999998,56.69502185149628L236.9826,56.82400115511636L237.4029,44.438756893981605L237.5325,30.898558307777762L237.58965,32.67778066071597L237.7098,-2.483824545686872L237.8952,31.36407979510048L238.60979999999998,38.704699711366146L238.94865,52.785591401837095L239.0823,65.537814213471L239.24835000000002,62.65178474512969L239.5359,5.895381380211234L239.6241,37.330150224945754L239.71679999999998,41.92603558301926L239.84820000000002,37.419717176394045L240.04035000000002,44.099851657043814L240.40665,58.27873771840876L240.62175000000002,35.903637680140406L240.68744999999998,40.51783670078626L240.69825,40.34183746034449L240.8544,6.626203818754732L240.89445,30.221459161151557L241.14374999999998,53.29698746854609L241.36425,69.17355848984285L241.9461,75.8768713880669L242.23409999999998,74.33068707585335L242.2764,77.83033274791457L242.4375,64.07082835381682L242.52525,63.52056850086559L242.6868,64.00562737475742L243.2781,49.531534476713716L243.7398,42.267412380738705L243.7578,42.10339719598946L243.9963,8.785612501881332L244.1205,26.880668537183254L244.21455,42.53021765838972L244.4913,67.91960308497603L244.60829999999999,68.8025470755317L244.61325,69.53819809989496L245.0466,47.72496822205457L245.07944999999998,47.70213341171092L245.21985,39.49803455309436L245.38500000000002,52.368729520927786L245.6478,33.53283218362114L245.84535,64.50543121858078L246.0096,47.52543490041387L246.078,43.6743332852017L246.28545,66.19575574994087L246.39659999999998,47.42477606643331L246.97934999999998,36.292082640257746L247.0455,35.9574453668161L247.2984,18.77836181358859L247.3065,23.03131509910932L247.42125000000001,10.04246746951884L247.47254999999998,18.394462114030688L247.5,21.29719571633774" style="fill: none;" fill="none"></path></g></g></g></g></g></g><g transform="translate(60, 178)" clip-path="url(#clip_1)"><clipPath id="clip_1"><rect width="270" height="22"></rect></clipPath><g><g><line x1="0" y1="0" x2="0" y2="5" style="visibility: inherit;" fill="rgb(0, 0, 0)" stroke="rgb(204, 204, 204)" stroke-width="1px"></line><line x1="22.5" y1="0" x2="22.5" y2="5" style="visibility: inherit;" fill="rgb(0, 0, 0)" stroke="rgb(204, 204, 204)" stroke-width="1px"></line><line x1="45" y1="0" x2="45" y2="5" style="visibility: inherit;" fill="rgb(0, 0, 0)" stroke="rgb(204, 204, 204)" stroke-width="1px"></line><line x1="67.5" y1="0" x2="67.5" y2="5" style="visibility: inherit;" fill="rgb(0, 0, 0)" stroke="rgb(204, 204, 204)" stroke-width="1px"></line><line x1="90" y1="0" x2="90" y2="5" style="visibility: inherit;" fill="rgb(0, 0, 0)" stroke="rgb(204, 204, 204)" stroke-width="1px"></line><line x1="112.5" y1="0" x2="112.5" y2="5" style="visibility: inherit;" fill="rgb(0, 0, 0)" stroke="rgb(204, 204, 204)" stroke-width="1px"></line><line x1="135" y1="0" x2="135" y2="5" style="visibility: inherit;" fill="rgb(0, 0, 0)" stroke="rgb(204, 204, 204)" stroke-width="1px"></line><line x1="157.5" y1="0" x2="157.5" y2="5" style="visibility: inherit;" fill="rgb(0, 0, 0)" stroke="rgb(204, 204, 204)" stroke-width="1px"></line><line x1="180" y1="0" x2="180" y2="5" style="visibility: inherit;" fill="rgb(0, 0, 0)" stroke="rgb(204, 204, 204)" stroke-width="1px"></line><line x1="202.5" y1="0" x2="202.5" y2="5" style="visibility: inherit;" fill="rgb(0, 0, 0)" stroke="rgb(204, 204, 204)" stroke-width="1px"></line><line x1="225" y1="0" x2="225" y2="5" style="visibility: inherit;" fill="rgb(0, 0, 0)" stroke="rgb(204, 204, 204)" stroke-width="1px"></line><line x1="247.5" y1="0" x2="247.5" y2="5" style="visibility: inherit;" fill="rgb(0, 0, 0)" stroke="rgb(204, 204, 204)" stroke-width="1px"></line><line x1="270" y1="0" x2="270" y2="5" style="visibility: inherit;" fill="rgb(0, 0, 0)" stroke="rgb(204, 204, 204)" stroke-width="1px"></line></g><g transform="translate(0, 8)"><text x="0" y="0" dx="0em" dy="0.95em" style="text-anchor: middle; visibility: hidden; font-family: &quot;Helvetica Neue&quot;, sans-serif; font-size: 12px; font-weight: 200;" fill="rgb(50, 49, 63)" stroke="none" stroke-width="1px">-50k</text><text x="22.5" y="0" dx="0em" dy="0.95em" style="text-anchor: middle; visibility: inherit; font-family: &quot;Helvetica Neue&quot;, sans-serif; font-size: 12px; font-weight: 200;" fill="rgb(50, 49, 63)" stroke="none" stroke-width="1px">0</text><text x="45" y="0" dx="0em" dy="0.95em" style="text-anchor: middle; visibility: hidden; font-family: &quot;Helvetica Neue&quot;, sans-serif; font-size: 12px; font-weight: 200;" fill="rgb(50, 49, 63)" stroke="none" stroke-width="1px">50k</text><text x="67.5" y="0" dx="0em" dy="0.95em" style="text-anchor: middle; visibility: inherit; font-family: &quot;Helvetica Neue&quot;, sans-serif; font-size: 12px; font-weight: 200;" fill="rgb(50, 49, 63)" stroke="none" stroke-width="1px">100k</text><text x="90" y="0" dx="0em" dy="0.95em" style="text-anchor: middle; visibility: hidden; font-family: &quot;Helvetica Neue&quot;, sans-serif; font-size: 12px; font-weight: 200;" fill="rgb(50, 49, 63)" stroke="none" stroke-width="1px">150k</text><text x="112.5" y="0" dx="0em" dy="0.95em" style="text-anchor: middle; visibility: inherit; font-family: &quot;Helvetica Neue&quot;, sans-serif; font-size: 12px; font-weight: 200;" fill="rgb(50, 49, 63)" stroke="none" stroke-width="1px">200k</text><text x="135" y="0" dx="0em" dy="0.95em" style="text-anchor: middle; visibility: hidden; font-family: &quot;Helvetica Neue&quot;, sans-serif; font-size: 12px; font-weight: 200;" fill="rgb(50, 49, 63)" stroke="none" stroke-width="1px">250k</text><text x="157.5" y="0" dx="0em" dy="0.95em" style="text-anchor: middle; visibility: inherit; font-family: &quot;Helvetica Neue&quot;, sans-serif; font-size: 12px; font-weight: 200;" fill="rgb(50, 49, 63)" stroke="none" stroke-width="1px">300k</text><text x="180" y="0" dx="0em" dy="0.95em" style="text-anchor: middle; visibility: hidden; font-family: &quot;Helvetica Neue&quot;, sans-serif; font-size: 12px; font-weight: 200;" fill="rgb(50, 49, 63)" stroke="none" stroke-width="1px">350k</text><text x="202.5" y="0" dx="0em" dy="0.95em" style="text-anchor: middle; visibility: inherit; font-family: &quot;Helvetica Neue&quot;, sans-serif; font-size: 12px; font-weight: 200;" fill="rgb(50, 49, 63)" stroke="none" stroke-width="1px">400k</text><text x="225" y="0" dx="0em" dy="0.95em" style="text-anchor: middle; visibility: hidden; font-family: &quot;Helvetica Neue&quot;, sans-serif; font-size: 12px; font-weight: 200;" fill="rgb(50, 49, 63)" stroke="none" stroke-width="1px">450k</text><text x="247.5" y="0" dx="0em" dy="0.95em" style="text-anchor: middle; visibility: inherit; font-family: &quot;Helvetica Neue&quot;, sans-serif; font-size: 12px; font-weight: 200;" fill="rgb(50, 49, 63)" stroke="none" stroke-width="1px">500k</text><text x="270" y="0" dx="0em" dy="0.95em" style="text-anchor: middle; visibility: hidden; font-family: &quot;Helvetica Neue&quot;, sans-serif; font-size: 12px; font-weight: 200;" fill="rgb(50, 49, 63)" stroke="none" stroke-width="1px">550k</text></g><line x1="0" y1="0" x2="270" y2="0" fill="rgb(0, 0, 0)" stroke="rgb(204, 204, 204)" stroke-width="1px"></line></g></g></g></g></svg>