<svg viewBox="0 0 330 200" xmlns="http://www.w3.org/2000/svg"><g><g><g><g><g><line x1="60" y1="178" x2="55" y2="178" style="visibility: inherit;" fill="rgb(0, 0, 0)" stroke="rgb(204, 204, 204)" stroke-width="1px"></line><line x1="60" y1="158.22222222222223" x2="55" y2="158.22222222222223" style="visibility: inherit;" fill="rgb(0, 0, 0)" stroke="rgb(204, 204, 204)" stroke-width="1px"></line><line x1="60" y1="138.44444444444446" x2="55" y2="138.44444444444446" style="visibility: inherit;" fill="rgb(0, 0, 0)" stroke="rgb(204, 204, 204)" stroke-width="1px"></line><line x1="60" y1="118.66666666666667" x2="55" y2="118.66666666666667" style="visibility: inherit;" fill="rgb(0, 0, 0)" stroke="rgb(204, 204, 204)" stroke-width="1px"></line><line x1="60" y1="98.88888888888889" x2="55" y2="98.88888888888889" style="visibility: inherit;" fill="rgb(0, 0, 0)" stroke="rgb(204, 204, 204)" stroke-width="1px"></line><line x1="60" y1="79.1111111111111" x2="55" y2="79.1111111111111" style="visibility: inherit;" fill="rgb(0, 0, 0)" stroke="rgb(204, 204, 204)" stroke-width="1px"></line><line x1="60" y1="59.333333333333314" x2="55" y2="59.333333333333314" style="visibility: inherit;" fill="rgb(0, 0, 0)" stroke="rgb(204, 204, 204)" stroke-width="1px"></line><line x1="60" y1="39.55555555555557" x2="55" y2="39.55555555555557" style="visibility: inherit;" fill="rgb(0, 0, 0)" stroke="rgb(204, 204, 204)" stroke-width="1px"></line><line x1="60" y1="19.77777777777777" x2="55" y2="19.77777777777777" style="visibility: inherit;" fill="rgb(0, 0, 0)" stroke="rgb(204, 204, 204)" stroke-width="1px"></line><line x1="60" y1="0" x2="55" y2="0" style="visibility: inherit;" fill="rgb(0, 0, 0)" stroke="rgb(204, 204, 204)" stroke-width="1px"></line></g><g transform="translate(50, 0)"><text x="0" y="178" dx="0em" dy="0.3em" style="text-anchor: end; visibility: hidden; font-family: &quot;Helvetica Neue&quot;, sans-serif; font-size: 12px; font-weight: 200;" fill="rgb(50, 49, 63)" stroke="none" stroke-width="1px">-0.02</text><text x="0" y="158.22222222222223" dx="0em" dy="0.3em" style="text-anchor: end; visibility: inherit; font-family: &quot;Helvetica Neue&quot;, sans-serif; font-size: 12px; font-weight: 200;" fill="rgb(50, 49, 63)" stroke="none" stroke-width="1px">0</text><text x="0" y="138.44444444444446" dx="0em" dy="0.3em" style="text-anchor: end; visibility: hidden; font-family: &quot;Helvetica Neue&quot;, sans-serif; font-size: 12px; font-weight: 200;" fill="rgb(50, 49, 63)" stroke="none" stroke-width="1px">0.02</text><text x="0" y="118.66666666666667" dx="0em" dy="0.3em" style="text-anchor: end; visibility: inherit; font-family: &quot;Helvetica Neue&quot;, sans-serif; font-size: 12px; font-weight: 200;" fill="rgb(50, 49, 63)" stroke="none" stroke-width="1px">0.04</text><text x="0" y="98.88888888888889" dx="0em" dy="0.3em" style="text-anchor: end; visibility: hidden; font-family: &quot;Helvetica Neue&quot;, sans-serif; font-size: 12px; font-weight: 200;" fill="rgb(50, 49, 63)" stroke="none" stroke-width="1px">0.06</text><text x="0" y="79.1111111111111" dx="0em" dy="0.3em" style="text-anchor: end; visibility: inherit; font-family: &quot;Helvetica Neue&quot;, sans-serif; font-size: 12px; font-weight: 200;" fill="rgb(50, 49, 63)" stroke="none" stroke-width="1px">0.08</text><text x="0" y="59.333333333333314" dx="0em" dy="0.3em" style="text-anchor: end; visibility: hidden; font-family: &quot;Helvetica Neue&quot;, sans-serif; font-size: 12px; font-weight: 200;" fill="rgb(50, 49, 63)" stroke="none" stroke-width="1px">0.1</text><text x="0" y="39.55555555555557" dx="0em" dy="0.3em" style="text-anchor: end; visibility: inherit; font-family: &quot;Helvetica Neue&quot;, sans-serif; font-size: 12px; font-weight: 200;" fill="rgb(50, 49, 63)" stroke="none" stroke-width="1px">0.12</text><text x="0" y="19.77777777777777" dx="0em" dy="0.3em" style="text-anchor: end; visibility: hidden; font-family: &quot;Helvetica Neue&quot;, sans-serif; font-size: 12px; font-weight: 200;" fill="rgb(50, 49, 63)" stroke="none" stroke-width="1px">0.14</text><text x="0" y="0" dx="0em" dy="0.3em" style="text-anchor: end; visibility: hidden; font-family: &quot;Helvetica Neue&quot;, sans-serif; font-size: 12px; font-weight: 200;" fill="rgb(50, 49, 63)" stroke="none" stroke-width="1px">0.16</text></g><line x1="60" y1="0" x2="60" y2="178" fill="rgb(0, 0, 0)" stroke="rgb(204, 204, 204)" stroke-width="1px"></line></g></g><g transform="translate(60, 0)" clip-path="url(#clip_0)"><clipPath id="clip_0"><rect width="270" height="178"></rect></clipPath><g><g><g><line x1="0" y1="0" x2="0" y2="178" fill="rgb(0, 0, 0)" stroke="rgb(60, 60, 60)" stroke-width="1px" opacity="0.25"></line><line x1="22.5" y1="0" x2="22.5" y2="178" fill="rgb(0, 0, 0)" stroke="rgb(60, 60, 60)" stroke-width="1px" opacity="0.25"></line><line x1="45" y1="0" x2="45" y2="178" fill="rgb(0, 0, 0)" stroke="rgb(60, 60, 60)" stroke-width="1px" opacity="0.25"></line><line x1="67.5" y1="0" x2="67.5" y2="178" fill="rgb(0, 0, 0)" stroke="rgb(60, 60, 60)" stroke-width="1px" opacity="0.25"></line><line x1="90" y1="0" x2="90" y2="178" fill="rgb(0, 0, 0)" stroke="rgb(60, 60, 60)" stroke-width="1px" opacity="0.25"></line><line x1="112.5" y1="0" x2="112.5" y2="178" fill="rgb(0, 0, 0)" stroke="rgb(60, 60, 60)" stroke-width="1px" opacity="0.25"></line><line x1="135" y1="0" x2="135" y2="178" fill="rgb(0, 0, 0)" stroke="rgb(60, 60, 60)" stroke-width="1px" opacity="0.25"></line><line x1="157.5" y1="0" x2="157.5" y2="178" fill="rgb(0, 0, 0)" stroke="rgb(60, 60, 60)" stroke-width="1px" opacity="0.25"></line><line x1="180" y1="0" x2="180" y2="178" fill="rgb(0, 0, 0)" stroke="rgb(60, 60, 60)" stroke-width="1px" opacity="0.25"></line><line x1="202.5" y1="0" x2="202.5" y2="178" fill="rgb(0, 0, 0)" stroke="rgb(60, 60, 60)" stroke-width="1px" opacity="0.25"></line><line x1="225" y1="0" x2="225" y2="178" fill="rgb(0, 0, 0)" stroke="rgb(60, 60, 60)" stroke-width="1px" opacity="0.25"></line><line x1="247.5" y1="0" x2="247.5" y2="178" fill="rgb(0, 0, 0)" stroke="rgb(60, 60, 60)" stroke-width="1px" opacity="0.25"></line><line x1="270" y1="0" x2="270" y2="178" fill="rgb(0, 0, 0)" stroke="rgb(60, 60, 60)" stroke-width="1px" opacity="0.25"></line></g><g><line x1="0" y1="178" x2="270" y2="178" fill="rgb(0, 0, 0)" stroke="rgb(60, 60, 60)" stroke-width="1px" opacity="0.25"></line><line x1="0" y1="158.22222222222223" x2="270" y2="158.22222222222223" fill="rgb(0, 0, 0)" stroke="rgb(60, 60, 60)" stroke-width="1px" opacity="0.25"></line><line x1="0" y1="138.44444444444446" x2="270" y2="138.44444444444446" fill="rgb(0, 0, 0)" stroke="rgb(60, 60, 60)" stroke-width="1px" opacity="0.25"></line><line x1="0" y1="118.66666666666667" x2="270" y2="118.66666666666667" fill="rgb(0, 0, 0)" stroke="rgb(60, 60, 60)" stroke-width="1px" opacity="0.25"></line><line x1="0" y1="98.88888888888889" x2="270" y2="98.88888888888889" fill="rgb(0, 0, 0)" stroke="rgb(60, 60, 60)" stroke-width="1px" opacity="0.25"></line><line x1="0" y1="79.1111111111111" x2="270" y2="79.1111111111111" fill="rgb(0, 0, 0)" stroke="rgb(60, 60, 60)" stroke-width="1px" opacity="0.25"></line><line x1="0" y1="59.333333333333314" x2="270" y2="59.333333333333314" fill="rgb(0, 0, 0)" stroke="rgb(60, 60, 60)" stroke-width="1px" opacity="0.25"></line><line x1="0" y1="39.55555555555557" x2="270" y2="39.55555555555557" fill="rgb(0, 0, 0)" stroke="rgb(60, 60, 60)" stroke-width="1px" opacity="0.25"></line><line x1="0" y1="19.77777777777777" x2="270" y2="19.77777777777777" fill="rgb(0, 0, 0)" stroke="rgb(60, 60, 60)" stroke-width="1px" opacity="0.25"></line><line x1="0" y1="0" x2="270" y2="0" fill="rgb(0, 0, 0)" stroke="rgb(60, 60, 60)" stroke-width="1px" opacity="0.25"></line></g></g></g><g><g><line x1="0" y1="158.22222222222223" x2="270" y2="158.22222222222223" fill="rgb(0, 0, 0)" stroke="rgb(153, 153, 153)" stroke-width="1.5px"></line></g></g><g><g><line x1="22.5" y1="0" x2="22.5" y2="178" fill="rgb(0, 0, 0)" stroke="rgb(153, 153, 153)" stroke-width="1.5px"></line></g></g><g><g><g><g><g><path stroke="rgb(255, 112, 67)" stroke-width="2px" d="M22.7367,-17.760797178579736L22.7646,15.156606441655128L22.7871,33.23301084919109L22.814549999999997,46.04426450029041L23.188049999999997,88.02620366455353L23.323500000000003,111.4659058755211L23.386499999999998,124.36598817508153L23.5998,131.9936561234062L23.6367,136.69867481861806L23.68035,139.8228535558509L24.0354,142.16697408601502L24.60645,144.9374594880037L24.90525,145.36757063442192L25.260299999999997,140.09382620355393L25.29765,139.1840170311683L25.616699999999998,141.77045000065075L25.6221,142.76545169676422L25.741799999999998,143.90692163172574L25.965449999999997,143.49915523513062L26.1261,146.4653645144177L26.14185,148.5688642180881L26.298000000000002,149.6967250091198L26.31645,150.2231581808909L26.441100000000002,149.88640672716429L26.79165,145.1425822712434L26.88525,143.56299067519794L27.3159,143.45690853892393L27.56025,137.1568071318478L27.587699999999998,133.68792230096324L27.8424,133.40955674026344L27.8577,132.36800129559293L28.09305,136.33762906348852L28.51605,108.90741890836036L28.586699999999997,102.62746210793986L29.16855,114.06298173944339L29.35665,94.06587427884841L29.4066,93.41494762011698L29.732850000000003,102.28697894269946L30.0222,117.50197126534437L30.396150000000002,126.02085711089671L30.50415,132.724745535766L30.66435,139.16702688573608L30.769650000000002,143.17601762271457L31.70655,126.31494690104483L31.7556,119.48720477519728L31.79655,117.53589086954754L31.9455,121.04306084920535L32.06115,131.48966410726217L32.1939,131.42973484047812L32.21145,131.79243474307307L32.30325,132.49116441966885L32.3361,132.65762344715102L32.52375,94.13599141928422L32.552550000000004,79.45032715957817L32.6313,83.038620443778L33.16365,103.53811004822792L33.176249999999996,115.88768600264561L33.68295,103.86829467982244L33.716699999999996,98.62336050625069L33.7464,97.10631570312628L33.924150000000004,115.28842458846816L33.938100000000006,125.74534332487583L34.138799999999996,132.2261089434905L34.19955,135.37118050128984L34.2765,130.05506563520225L34.458749999999995,129.20441197919988L34.5519,129.9140347666961L34.77465,134.72028461593254L35.5257,126.43006549840554L35.92935,132.23483370912635L36.62415,125.17249850799845L36.63585,121.07932494834519L36.756,121.6449924156395L37.0224,122.02796014949975L37.1016,123.73095967123751L37.31085,124.35571473224203L37.39455,125.2187240643297L37.43685,126.51346231703592L37.443149999999996,127.10628939690966L37.751850000000005,129.44190335486002L37.7685,130.84337561555904L38.00295,125.16075680921728L38.2275,125.75824852018374L38.474999999999994,129.86675591472743L38.4786,132.39070767782505L38.604150000000004,134.1472169426424L38.691449999999996,133.7971726944452L38.88315,120.88231775571008L38.88855,113.70136316397581L38.90475,110.51861327092456L38.929050000000004,110.00350741333794L38.9457,110.30892401012002L38.962349999999994,111.12764935205378L39.0177,113.40331768366363L39.18375,124.01130609502658L39.2571,130.69129568080928L39.290400000000005,134.13478582048907L39.7179,132.8213549663626L39.9294,129.06150610374098L39.9672,127.40391489938906L40.2795,128.03363951357477L40.293,128.5438971597688L40.37895,129.62088607588495L40.56165,131.41090476118973L40.690799999999996,133.3238965229399L40.81455,132.24836103423345L40.86495,131.77917280742537L41.2578,131.8572282271525L41.311800000000005,132.18534773516964L41.5467,127.71516398214949L41.7294,128.524472654934L42.2244,132.39856929776914L42.25725,134.63840740540334L42.50115,132.8840376963671L42.90435,134.7307409966926L43.05465,135.67935112432946L43.5888,136.04707722753074L43.6212,136.37422691120577L43.69095,121.6051533612972L43.77555,123.69349831832972L43.81155,126.43880087232705L43.8687,129.07521000594897L43.89165,130.50114186327923L43.915499999999994,131.45951268175668L44.172,135.76853510896024L44.2386,137.8944994147863L44.4222,134.7438581210124L44.482949999999995,133.1875844905491L44.5833,136.66828339687612L44.89515,137.99922033285077L44.9307,137.16092485567913L45.5571,132.67989674636314L45.75645,130.78466850741526L45.85815,128.83131897781584L46.0665,128.69420172638934L46.67265,126.6487230908905L46.7082,125.09354244714518L47.0925,127.75303493301728L47.5182,129.18114694903022L47.65995,130.58207213550645L47.8098,133.01408157781L48.0681,132.15809501231848L48.527550000000005,131.60965708010082L48.71385,131.76759976646247L48.7287,132.1198720716824L48.79755,132.02462166183864L48.966750000000005,132.01399536609853L49.203450000000004,131.95022740206574L49.703849999999996,131.16973776464533L50.23485,133.14752216842695L50.653800000000004,135.29346074154796L50.736599999999996,136.63356953555834L50.951699999999995,136.67548785226242L52.0218,137.6516342113748L52.03395,138.29633733897086L52.0416,138.81705270536614L52.35435,139.67629251079484L52.8354,138.41973401160408L52.8381,137.70491970046513L52.968599999999995,138.02919230903345L53.4024,139.2379175718668L53.8551,138.07444760179774L54.120599999999996,138.88578174795464L54.7146,139.70381846730695L54.8019,140.34879837588673L55.152,140.8793979342817L55.3176,141.85069325701627L55.72575,142.04031378476228L56.397600000000004,144.1582567551306L56.48265,144.65297549302142L56.502900000000004,144.60454185142308L56.69145,144.7583389522352L57.68415,145.67460650801965L57.80565,145.36246122413394L57.92445,145.06772469029934L58.01265,144.8833690912624L58.33755,145.90917274822726L58.39065,146.49282864082483L58.42485,146.66238701799688L58.65345000000001,143.92278773859647L58.84785,142.89309789603257L59.1471,143.3146586557479L59.17005,143.56761500462733L59.17995,143.81593678595198L59.1948,143.86597703401523L59.206050000000005,143.8438880223622L59.323049999999995,143.50396199678255L59.61195,144.51940283602733L59.74065,144.38944601505088L61.0722,144.35869507650654L61.48350000000001,143.8969580977765L61.6023,144.4002679582865L61.7652,143.83583601874034L61.87005,144.62260111921844L61.873200000000004,145.054049991094L62.5302,145.49751392637398L62.85465,146.39525741551478L62.9199,146.6705058940102L62.94375,146.78848340164055L62.958149999999996,146.91631801671707L63.6066,147.34708634480657L63.637649999999994,147.08982038377616L63.76815,146.31102864487968L63.77535,145.92869618908964L63.85185,145.55772450840317L63.868500000000004,145.3033722988318L64.15875,145.79858883595438L64.1673,146.07720974858188L65.16405,146.03489005812688L65.47364999999999,145.687116261481L66.06855,146.4926129444062L66.26565,145.93650350221378L66.48525,146.38196498850016L67.02345,146.68277787900055L67.45005,148.11320932002516L67.4883,148.902722223848L67.63409999999999,148.80824540328643L67.80735,147.91793772707047L68.22315,147.14831555678907L68.56784999999999,147.16656966037232L68.94765,148.4470339596206L68.95485,149.1921795005229L69.2298,148.2125221611834L69.4422,148.07005100048903L70.00649999999999,144.58777177789204L70.15230000000001,143.34752951372036L70.16265,142.67141986043939L70.47675,144.72120077617646L70.8813,145.57321004693318L71.07704999999999,146.2732739653001L71.29665,146.07014336272934L71.49015,146.56230672863705L71.98155,146.94239261200576L72.1836,146.44031578339136L72.3276,146.2455336069617L72.37395000000001,146.1581609054736L72.87705000000001,146.7758332067992L73.13085000000001,146.65187178282866L73.791,145.8107832505043L74.00925000000001,145.2691983150351L74.11094999999999,145.47910516329722L74.22885000000001,145.51672265583477L74.57220000000001,146.52968375923754L75.0267,145.89484325126324L75.4776,146.0543605474496L75.59864999999999,145.68580581456936L75.69810000000001,147.62978595662094L75.7341,148.65359336751155L75.76785,149.11503582550887L75.88619999999999,148.97216199350638L76.25475,146.809444109672L76.26374999999999,145.5043811147851L76.78304999999999,145.0703963546884L76.797,144.8437993702318L76.82175,144.5543681392619L76.8375,144.35119437681925L76.842,144.21462894136087L77.18849999999999,144.58482113522913L77.382,144.47220235856616L77.61915,145.08804430672205L77.64525,145.5552059325762L77.98949999999999,143.0950016847497L78.00210000000001,142.0085979881632L78.07815,142.25629223912773L78.2316,143.0225194777173L78.52725,143.19369202382765L78.53354999999999,143.42976961168753L78.7491,143.59765841311744L78.9984,143.65985811897036L79.79535,145.12734273743712L80.35695,143.6197328802935L80.78985,142.99309866450182L81.2106,138.5030489497036L81.3915,134.61445692906017L81.60525000000001,131.55330154601938L81.7056,128.94586166457194L82.16550000000001,129.04029908441353L82.33425,127.30454687606337L82.53495,130.96237996053654L83.07,132.03813552392035L83.3517,136.41945616605716L83.54295,133.23757810846007L83.65050000000001,133.06381266620113L83.90115,129.43658188830295L84.3966,128.119662976036L84.5811,126.9303494719615L84.5865,126.33808392519126L84.87764999999999,127.10543088125476L85.33665,130.20323901975524L85.35374999999999,132.4295629428091L85.38615,134.22384347615215L85.5846,134.22597710349703L85.84920000000001,132.96081928745036L85.93469999999999,131.8516702774605L86.0535,131.0797464219131L86.16555,133.8465330975359L86.68395000000001,133.11632544891006L86.82075,132.85546856679102L88.01055,135.00420235363524L88.01100000000001,136.28517890533536L88.07355,137.61755671901608L88.08704999999999,138.6293778202454L88.10549999999999,138.29180920643063L88.38494999999999,138.34145149866876L88.55144999999999,137.049685554386L88.82639999999999,137.34399753081317L88.8318,137.56709687836147L89.0271,137.0661670448678L89.36325000000001,138.93184958359052L89.7192,139.96818720277417L90.27765,137.21135633971056L91.5786,136.2856779569201L91.62135,135.8112606920422L91.91699999999999,134.01400321231012L92.47635,134.16837683820162L92.55375,134.7269920306278L92.59335,134.79376853354677L92.63655,134.82724394144688L92.92095,137.1191855123829L92.98665,138.08023461872153L93.92985,139.71082072196026L93.95415,140.78460745025913L94.01805,141.5850730863433L94.64085,134.58689474559486L94.74885,133.28128969336214L95.3982,137.01292480162908L95.6367,131.1157897990208L95.80275,129.69855591013265L95.8086,128.93531692868345L95.84685,128.848462182027L96.25274999999999,129.09534335200505L96.9966,133.08832932782215L97.11225,135.1817111849443L97.4097,127.43211448005107L97.6185,123.61011069635643L97.62075,120.99945071046938L97.92314999999999,120.63734166512788L98.3772,120.55319758270124L99.33840000000001,97.93995466108154L99.65880000000001,79.804078309056L99.72405,66.99131750231659L99.74475,55.99684959947473L100.08765,53.003469243774575L100.10565,53.606654874229946L100.11914999999999,56.23843695757789L100.12365,56.4888921183626L100.15785,56.99074761616204L100.575,61.84487909404645L100.68255,60.19472040663419L100.78739999999999,58.750035105395526L101.1951,55.80784830810187L101.4534,48.29895583540468L101.45385,43.87536752604939L101.8953,50.10781434605617L101.95875,49.40964100286092L102.09105,50.78838795007768L102.2706,52.70778225675791L102.47309999999999,48.78094121306481L102.52980000000001,47.83022016710976L102.7593,59.480595177969946L102.78585000000001,60.586240797510044L102.8394,63.86329204131714L104.1921,65.87011345135237L104.36489999999999,59.862268293674504L104.80184999999999,45.83908453802144L105.24419999999999,36.08597414558389L105.50385,36.96675013024762L105.55875,36.89132755377051L105.58485,37.28535676294129L105.61590000000001,31.158473806011727L105.6177,27.218824479835064L106.0398,27.666155698876338L106.14825,22.4392805620582L106.33185,27.487675022555464L106.83404999999999,24.63298992337502L106.88130000000001,22.617462635169716L106.96185,20.96940872412074L106.96815000000001,19.748549734268124L106.98435,19.560602905513292L107.0028,19.879139713410098L107.0451,20.659449738109885L107.06715,20.22638332423918L107.2836,29.575514455766267L107.8416,29.18529929725176L107.95095,28.96418467764761L109.07730000000001,37.79849542276219L109.31354999999999,42.208551058415196L109.64385,41.53657986476637L109.70505,40.3872220978416L109.7118,39.480183766865025L110.23785,41.019034258474875L110.51235,39.332479517165154L110.5209,38.98755033046206L110.5506,41.14439998008925L110.62304999999999,44.08956809934185L110.68560000000001,45.17005813311593L110.8656,40.09040032871533L111.91185,27.174450325589504L112.20344999999999,30.364510693059373L112.3938,31.025753343181748L112.41629999999999,32.718903963876585L112.49369999999999,38.10803828411733L112.6116,51.11639789472747L112.72274999999999,48.99130696162683L112.9257,47.12845550175899L112.9383,46.10007473612333L113.1138,56.42748929067487L113.3775,53.83520907762072L113.5944,53.041791926106995L113.6232,52.934853497646316L113.79285,49.18972169237128L113.97869999999999,46.36908323890043L114.20685,45.64631101021149L115.0218,41.64748889523136L115.50059999999999,48.724331131813585L115.5609,50.73888420403924L115.7931,50.36514011361092L116.01719999999999,45.80655167635348L116.02755,42.65325554028129L116.40825,52.7432038561071L116.5374,57.1722642989959L116.71289999999999,56.26409971918032L116.8245,51.72538085371146L117.1494,58.767014244072286L117.21374999999999,63.5406858622931L117.3078,66.31051325598771L117.5643,71.86241755895794L117.837,60.4215528078323L118.05165,53.50357617382876L118.1952,49.94417963094318L118.23570000000001,44.30858792530245L118.33695,38.18733510110161L118.5966,45.78239900310862L119.04525000000001,55.34229191009223L119.22885000000001,52.78034719677511L119.24640000000001,50.72069161578396L119.421,47.688252281479976L119.91645,46.490518703857816L120.27105,38.92370929010693L120.32549999999999,42.63034212138379L120.36195,45.57807814009661L120.4164,48.23643715802106L120.53385,48.49139776535128L120.74804999999999,61.28692622076515L121.0491,61.87412148834558L121.26195,61.6640282280522L121.4973,64.39335880720283L121.67190000000001,66.03319401767054L122.16285,63.28940277830479L122.25375,62.44254867621359L122.38875,63.309048930468066L123.11775,76.23269321103608L123.15915000000001,80.10675949534934L123.43005,64.24507592792672L123.6411,58.311529118536754L123.6591,55.69306140399438L123.98355,55.2833223099895L124.46325,48.96694512763614L124.6203,51.17860155661302L125.07390000000001,51.193915467947434L125.0757,50.92109109384532L125.2539,65.69523816294435L125.41365,67.86550282165916L125.4915,70.51434448992516L125.79165,64.76774094549664L126.1935,64.67408894726346L126.21780000000001,62.067146015868175L126.24255000000001,54.593312049862405L126.2448,50.46198511154189L126.36855,51.749638870210504L126.3897,53.70432921606036L126.39059999999999,54.95382155393203L126.56925,51.9245683052353L126.61965,53.97662426818678L126.86760000000001,58.617971664073366L127.2168,69.37810727547412L127.4274,84.59506289715053L127.9467,75.53266905744229L128.04885,65.42140923804322L128.33325,52.85849675986272L128.34585,46.61777614558929L128.51415,45.83520675834467L128.53665,44.20481870719328L128.8116,65.98510764528434L128.8449,80.54212845921656L128.96595,77.31218754850576L128.98665,76.76951564843439L129.7584,64.1331499705413L129.76155,57.23152552450557L129.7899,55.04699255734266L130.14135000000002,60.282409547028436L130.3245,56.83509919936904L130.3713,55.230058968768546L131.3271,61.00603103812233L132.7077,59.899298368282615L133.10865,62.3173140834098L133.155,64.54617754454694L133.3557,76.6655612445656L133.857,81.95903834178085L133.9605,87.60354857594855L133.983,88.47313844797331L134.2359,79.48836617915887L134.8128,72.8717402188258L135.1953,68.58732182922951L135.1971,66.3347827714595L135.3789,68.84724709389751L135.39149999999998,69.9441066072936L135.68715,64.47197996761399L135.6885,61.38559507970942L136.0566,61.93255360577132L136.08135000000001,58.74281814819088L136.77525,64.00342752942083L137.061,70.61226885827233L137.12175,74.92843106574922L137.40435000000002,78.37491174716683L137.4579,78.45272299157938L137.68605,77.18718457524395L137.87505000000002,81.1314244142769L138.75435,83.02747557722451L139.22729999999999,93.06367138191482L139.69754999999998,77.2894166433015L140.20964999999998,85.9950034407032L140.57865,90.74473441233417L140.9994,93.1700022560435L141.18525,91.13694460841482L141.26895,89.56822128486115L141.58575000000002,90.81185425554601L141.93585,75.77749621412092L142.0272,75.7252755230456L142.6014,77.45991843138869L142.91685,80.77684929685634L143.7939,72.56811506380743L143.82855,70.04758769106266L144.27045,74.48777289554977L144.36855000000003,76.62596776637072L144.3843,78.31131962072433L144.7101,75.83274451241509L144.738,76.43830706815622L144.76274999999998,77.84671052115911L145.1313,89.90345210523061L145.50435,99.12423955547536L145.53584999999998,102.68974911195008L145.5489,105.47737671944678L146.39129999999997,94.9992295981239L146.50335,91.11840721982796L146.57805000000002,92.51216577765855L146.83634999999998,85.2478706714164L146.8467,76.53026655971908L147.5154,77.633035326626L147.7287,79.93392812951635L147.76065,85.0319326226566L147.94244999999998,85.92038585968737L148.23675,85.9378947774909L148.28895,85.49486510782161L148.4838,82.49133037292854L148.89915,77.00708256620506L148.94235,73.38067435829177L149.82299999999998,77.02940253977975L150.62535,84.25833004917371L150.89085,78.4535818297671L151.45785,79.39186162810232L151.50195000000002,74.0584351218716L151.50735,71.31415994281755L151.61445,72.29054507801048L152.0676,71.77363218248024L152.4204,75.87534154019171L152.4213,78.41954368157698L152.5131,79.3161272182939L152.78805,91.60145543465282L152.7894,99.07655892308777L152.97525000000002,98.14862332994807L153.19574999999998,96.3598603250554L153.26505,95.27090911585583L153.3231,89.67545340900051L153.5859,65.71721423334536L153.7254,63.79664635260892L153.783,61.29838016059658L154.16325,60.5872029157744L154.7082,62.73491071615217L154.7595,65.80809819604447L154.76760000000002,67.52085506727259L154.97054999999997,69.21071199197878L155.5146,77.82748763731702L155.51549999999997,83.08526221960403L155.52134999999998,86.67451201706896L155.5875,86.0847454372167L155.66715,85.47059008497712L155.81205,77.56645326294398L156.04649999999998,77.55869983719523L156.33270000000002,74.46393798972544L156.3966,75.61643667795153L156.46679999999998,74.51630000670819L156.5091,72.75841339800134L157.34655,76.10480217493931L157.42215000000002,77.87140789377439L158.11605,76.60905959257134L158.23215000000002,77.36558540956035L158.37165,76.76152954807725L158.55615,87.02101081198958L158.79194999999999,86.02472511415917L159.21314999999998,79.80003204171335L160.03574999999998,86.00889437862256L160.07985,87.65156562276164L160.3737,80.22516074599643L160.49835,81.09815022110699L161.22825,72.20283219737331L161.91674999999998,72.59778401037235L162.3699,69.20438248119197L162.61875,74.20095919225811L163.0917,73.78290895216186L163.34730000000002,74.24747415273232L163.51515,78.06803381906587L163.54215,77.49392254763164L163.90755,80.14757716557706L163.9719,78.82486928907495L164.20815000000002,79.88958258143211L164.24370000000002,81.57503844923464L164.61045000000001,82.31245982027066L164.86605,73.87367069879114L164.87505000000002,70.30614535505933L164.96415,64.57670580708866L165.3282,67.01367199306682L165.47490000000002,70.36124132405715L165.53070000000002,71.77449739441539L165.8178,78.93588922036183L165.86325,80.84834626682097L165.8691,82.11781646695896L165.98475,81.25922291079127L166.1886,75.82051327718011L166.29930000000002,77.76162182227398L166.46939999999998,79.0784790982277L166.6611,91.13273547705833L166.76865,89.10271821787053L167.24294999999998,86.81530758495519L167.30055000000002,82.95026496304307L167.3811,78.67032396348257L167.50485,84.00973187815313L167.82615,82.80317581254937L167.958,87.383937673455L168.19785000000002,88.2650798486451L168.6078,83.46026156969214L168.70455,81.40591761645084L169.3845,95.79650977690197L169.44975,97.79418250650339L169.5141,98.18353833594027L169.5393,96.28552014466321L169.6122,95.08329018587918L169.85655,92.02740109477801L169.92495,90.27551166523116L169.9299,89.27937123959431L170.28900000000002,77.8772910436435L170.41365,73.28356857832267L170.42355,69.88777795607776L170.50275,68.94155379704259L170.748,76.32604106608005L170.9379,82.21006073228965L171.72495,79.50653876533246L171.8091,74.66970867384222L171.81585,71.53974825423211L171.8478,70.43305060898678L172.04985,73.78322556993614L172.05435,74.71998113024979L172.251,75.7147392528976L172.62765000000002,78.7124966692893L172.74689999999998,80.57429902823577L173.1708,71.10991928553997L173.39265,67.68157559513233L173.5407,72.02224800117324L173.58255,77.0069801530226L173.87055,80.13599804433754L173.9538,84.69156444637851L174.11085,87.25635857788714L174.4479,86.84720737978613L174.80835,87.68980461703615L174.81105,88.52188011747062L174.8817,85.57201532699874L174.8826,83.89437662866636L174.92265,81.698687071113L175.3632,82.72661680053167L175.37625,82.59657185119683L175.7277,76.23574788939995L176.27445,80.79291322903391L176.38785000000001,84.63117946365743L176.5755,80.6418112308538L176.66145,82.74241934959628L176.7213,83.65733477320991L176.95575000000002,65.83393226836819L177.1884,69.11928824780537L177.39135,59.73822771561369L177.5745,69.04086690973575L177.65865,73.24080588584609L178.11675,73.9483856727608L179.03384999999997,83.30583405646584L179.0352,88.98518390150608L179.08964999999998,91.71879221745706L179.3376,96.14479321819901L179.81685,88.88122829678404L180.18765,94.6479917380179L180.84644999999998,98.43569570724624L180.98685,100.93599625859002L181.06289999999998,106.4098516781463L181.25369999999998,98.90767273448576L181.25775,94.43189330914551L181.26674999999997,92.18663085710367L181.50795,90.8152510185389L181.76129999999998,87.59092820176902L181.9233,95.07233848399905L182.052,98.85741421781836L182.21985,101.58635051967418L182.40885,100.018981700669L182.48355,98.31187488700101L182.78865,90.21312640414394L182.97809999999998,90.77432384275846L183.5424,83.99196211341426L183.90465,89.38526677131033L184.23225,93.4026603661341L184.63094999999998,87.75070999371518L184.93425,87.69377707426257L184.9446,88.12426887410253L185.24835,88.47747590681999L185.5062,77.845987283435L185.50979999999998,72.56349588693635L185.61915,75.58025338474454L186.51285000000001,79.36893254519295L186.5925,83.37801938984599L186.60915,87.07198709090832L186.73425,90.98799013400246L186.85035,92.30723363541068L187.07085,87.90687046279012L187.1109,83.41389638348785L187.1298,80.27842542560848L187.5735,86.23815509695977L188.694,82.76434976734886L188.8101,82.72131455335585L189.23805,85.5852463096659L189.3168,86.31233614585483L190.0737,92.75795780163021L190.14795,94.07104104682412L190.79909999999998,97.6078467636118L190.99575,88.50051407826798L191.04705,83.63276745830358L191.5884,90.70497770745848L191.61630000000002,93.3047945716339L192.02085,93.66997587922691L192.2256,87.64527804996656L192.25395,82.28959347944443L192.8988,74.49611295678142L192.95235000000002,70.97319676529122L193.02435,71.68197910815927L193.0401,73.19026447897095L193.2012,78.81464524672062L193.45815,81.63062675691357L193.7925,85.8986231559319L193.82085,90.12953834046407L194.15385,81.45086503875609L194.64885,92.2663356149668L194.76405,98.85414750152344L194.9661,85.95905087587676L195.2892,85.99362408172883L195.56055,94.99837007884594L195.9615,96.447591835843L196.37325,101.11255088125853L196.8174,102.35870428156635L196.94655,107.42450557579333L197.21025,95.94053162989854L197.27955,97.7185836704046L197.30564999999999,96.69692754774115L197.67825000000002,87.58022076306037L197.6859,83.44389161385142L197.7543,80.66283486568489L197.7669,80.44654083685876L197.8398,83.41129194228596L197.9244,89.26539897637812L198.66240000000002,93.50690517389458L198.98954999999998,97.90061298216258L199.17495,101.29440038392535L199.25055,104.896067259647L199.64294999999998,104.13063761005388L199.90215,91.42607867961874L199.92735,87.28208079484553L199.97865,86.65947225155237L199.9971,86.1773146484668L200.15189999999998,89.76197205152361L200.47410000000002,98.7692451612792L200.49345000000002,101.29460133664988L200.64915,102.21514104073488L200.9286,94.35663608735612L201.31155,97.69051025525219L201.5811,97.99062438338292L202.19445000000002,90.8774748005891L202.1985,87.21726615975842L202.3335,94.57165438516597L202.5864,82.33816751722026L202.77495,82.9520565906841L202.9023,85.36593786449635L203.1111,94.02384546408561L203.33880000000002,97.40512041190304L203.37120000000002,100.04681383401243L203.56245,98.79872504172775L203.6115,98.61450284102392L203.7528,103.11907169912224L203.76989999999998,105.258710020281L203.82165,104.07692332145069L203.9751,99.0402316965583L203.98770000000002,93.03941959713106L204.18030000000002,95.74763302814155L204.7185,100.02314056575345L205.05554999999998,93.96985771694476L205.09155,90.88279843856776L205.11,89.89426900994046L205.39395000000002,90.13250991798861L205.8156,82.95897627001128L205.98885,79.18552308819432L206.2251,80.3591146613993L206.24265,83.7369073398414L206.87715,81.25943388745205L207.07605,92.84146958049477L207.7578,93.0657879094992L208.07549999999998,110.6858697538669L208.07594999999998,121.2791373772479L208.30365,117.77490279798715L208.6137,107.43185904391943L208.6893,104.7244805938105L208.92645000000002,103.11415548599365L208.9557,100.08534582806257L209.05425000000002,88.27802367817935L209.43225,99.69507772810208L209.8116,96.831740046728L209.89530000000002,96.80723722157843L209.95155,100.68867634693895L209.96370000000002,102.03823148518207L210.03165,101.26552547334606L210.0906,101.48501447430634L210.37545,104.29891877725552L210.41414999999998,107.82436244103212L210.69899999999998,109.88326941776016L210.72959999999998,110.45485324967547L210.92669999999998,107.63350446805542L211.1778,110.76444747651065L211.33215,113.30347286293241L211.33485,114.96917350468635L211.34565,116.47953141159375L211.34789999999998,116.28665807965002L211.81725,104.05561412977075L211.9392,101.35283765293627L212.3622,100.58285366156183L212.36625,100.30289499092522L212.38154999999998,100.59581523746635L212.58855,101.10756984451974L213.07545000000002,108.08015009820203L213.62265,98.35938745441545L213.63524999999998,91.49377325463466L213.70454999999998,89.80458984745447L214.07805000000002,98.06159484767657L214.74269999999999,106.39049466878419L215.2782,106.83286391620649L215.2989,108.01329798984747L215.30475,107.93398078838587L215.94375,107.35204840371105L215.98155,106.76773985758213L216.1638,106.65499898514025L216.7632,105.72035344474041L216.7767,105.5748637512609L216.8613,106.25083974704188L217.0791,111.35498402605147L217.18395,113.88511488756023L217.2348,111.19672542166995L218.0016,108.05838254039195L218.16405,105.85318455000875L218.7882,100.785417143571L218.81519999999998,96.294379460587L218.94885,97.13505689700213L219.1212,99.62963630464203L219.37365,91.67140875482477L220.80870000000002,94.46672974296095L221.1678,95.22153612004992L221.1984,94.7322320409917L221.20065,94.61997106217495L221.52555,95.91934954251738L222.06824999999998,93.61417754632434L223.37279999999998,95.47744478668095L223.4016,94.08444981374203L224.01675,95.54333237898399L224.0883,98.04636728023718L224.18595000000002,106.46411911136379L224.20125,113.26571817555575L224.37494999999998,110.3395908734712L224.4762,108.38041890365294L224.6364,115.25725994462547L224.68095,109.93951769444215L224.81550000000001,104.35331734813306L224.90054999999998,102.91264437382318L224.9991,103.3790576495754L225.3321,99.82500941185319L225.3843,99.18048778948086L225.59040000000002,100.18063722980823L225.7074,101.35495820733921L225.74655,101.4103978328156L226.1385,100.81603882160603L226.17585,98.80185047985537L226.4355,101.7009694164414L226.61100000000002,102.7472372364254L226.75185000000002,104.2891999960029L227.17935,102.84924576031338L227.18339999999998,102.20699378856324L227.48985000000002,106.78182731540649L227.60909999999998,109.06280823895986L227.68605000000002,109.20715048654006L227.69865000000001,107.17943109981758L228.0249,108.40755808168839L228.8088,106.49376637824888L228.90465,102.55096429241804L229.716,98.4529299198773L229.89825,95.28749931211391L230.22719999999998,100.88951673520677L230.62904999999998,104.12979070591771L230.76225,105.2686726280256L230.7681,106.20882105929212L231.27075,99.04608545364474L231.48405000000002,104.06731545590944L231.5412,106.24095281162016L231.56955,105.58263130173641L231.8832,110.56731006547477L232.55415000000002,115.46778825283182L233.02214999999998,112.50398880060592L233.25930000000002,99.12945927404346L233.42534999999998,97.63273881343129L233.7264,91.40573267420405L233.81459999999998,86.64980829061567L233.9073,86.23021992624699L234.14445,87.00457990780677L234.27,88.62850391966559L234.6399,89.35738987586373L234.855,90.81516419367874L234.9855,97.93215447111392L234.9963,102.64287212954042L235.06245,99.96603774441262L235.10250000000002,100.01748794497173L235.41525,94.2329976516499L235.55294999999998,93.36158246211082L236.09205,96.31453254468363L236.3544,97.93832040417465L236.3967,104.30476646641523L236.55780000000001,107.36896785774276L236.64555000000001,109.60682472924789L236.82195,101.56541828186221L237.36195,101.93413996751981L237.67785,101.13138190408739L237.87,95.79505656792172L237.9942,92.25311378485694L238.14945,101.44034919448734L238.34969999999998,106.48387313668752L238.4667,110.40113426119979L238.47164999999998,112.91733119079673L238.79655,118.33134189890679L238.8294,122.49746925090533L239.0274,111.82303653431802L239.07825,110.27334800856366L239.34105,108.24091174832549L239.50935,85.01417821227449L239.6736,81.0778910956187L239.74200000000002,83.23893493395796L239.82525,86.70531243074984L239.994,89.87475349234306L240.4062,95.64113971891727L240.47235,98.32916531412107L240.5007,100.23866856895202L240.50879999999998,99.68150479543263L240.62355,104.80024377010432L240.67485,107.82304831446508L240.91109999999998,103.6590462849615L241.06725,102.29733690245087L241.0695,101.61672896981783L241.27335,98.31558021410633L241.4718,96.13266263308721L242.30745,102.0625220577739L242.82854999999998,103.14839320161211L243.31365,101.99374334150183L243.4104,100.75933492594471L243.96165000000002,101.63660933158238L244.2114,104.08782551171576L244.3284,107.41620803299199L244.59615,108.04560802764618L244.79145,110.33090754514423L244.90125,103.881081523822L245.2167,103.21701578636541L245.53664999999998,108.99688914223259L245.5884,112.42646082853854L245.7675,109.3902671022814L245.84175000000002,109.03408513633683L245.9592,107.67183817857801L245.9637,107.00055067268258L246.52215,107.41962785637723L247.00500000000002,103.78543982376465L247.01760000000002,101.24015035313255L247.2228,108.61554838533996L247.28310000000002,111.85953493703882L247.38615,109.4513175508084L247.5,109.82380144918177" style="fill: none;" fill="none"></path></g></g></g></g><g opacity="0.2"><g><g><g><path stroke="rgb(255, 112, 67)" stroke-width="2px" d="M22.59855,-106.39392313692309L22.7367,35.41907839642633L22.7646,46.75731391708058L22.7871,54.49086243245337L22.814549999999997,62.7706372671657L23.188049999999997,146.1023390268286L23.323500000000003,144.98505507244005L23.386499999999998,143.1744320086307L23.5998,143.24298474896284L23.6367,143.68507923930883L23.68035,144.480785590493L24.0354,145.67039828085237L24.60645,149.08414147545892L24.90525,146.01189472153783L25.260299999999997,132.18940864586168L25.29765,137.8199449405074L25.616699999999998,145.64900496312313L25.6221,144.25770161011152L25.741799999999998,145.61895264271232L25.965449999999997,142.88754291170173L26.1261,150.91451575938197L26.14185,151.72404455703992L26.298000000000002,151.3884939280235L26.31645,151.01280170244473L26.441100000000002,149.38128194005952L26.79165,138.02686581760645L26.88525,141.19360732287169L27.3159,143.297785497374L27.56025,127.7066608245174L27.587699999999998,128.48459697183634L27.8424,132.99200849152274L27.8577,130.80566833582188L28.09305,142.292070241438L28.51605,67.76210564043785L28.586699999999997,93.20752717720137L29.16855,131.21626089182163L29.35665,64.07021339734393L29.4066,92.43855763806236L29.732850000000003,115.59502587715784L30.0222,140.32445969846512L30.396150000000002,138.79918586214382L30.50415,142.78057816500464L30.66435,148.83044890604086L30.769650000000002,149.18950372644596L31.70655,101.02334082292185L31.7556,109.2455915874905L31.79655,114.60892001125546L31.9455,126.30381581849522L32.06115,147.15956899399558L32.1939,131.33984094030328L32.21145,132.33648459696107L32.30325,133.53925893455744L32.3361,132.90731198837358L32.52375,36.353543377584884L32.552550000000004,57.42183077004219L32.6313,88.42106037007437L33.16365,134.28734445489116L33.176249999999996,134.412049934268L33.68295,85.83920769559012L33.716699999999996,90.75595924589369L33.7464,94.83074849843977L33.924150000000004,142.56158791648016L33.938100000000006,141.43072142948705L34.138799999999996,141.94725737141238L34.19955,140.0887878379888L34.2765,122.0808933360709L34.458749999999995,127.92843149519629L34.5519,130.9784689479404L34.77465,141.92965938978725L35.5257,113.99473682211504L35.92935,140.94198602520757L36.62415,114.57899570630656L36.63585,114.93956460886531L36.756,122.49349361658096L37.0224,122.60241175029012L37.1016,126.28545895384417L37.31085,125.29284732374879L37.39455,126.51323806246121L37.43685,128.45556969609524L37.443149999999996,127.9955300167203L37.751850000000005,132.94532429178554L37.7685,132.94558400660753L38.00295,116.63682859970463L38.2275,126.65448608663345L38.474999999999994,136.02951700654293L38.4786,136.17663532247144L38.604150000000004,136.78198083986837L38.691449999999996,133.27210632214943L38.88315,101.5100353476074L38.88855,102.92993127637439L38.90475,105.74448843134773L38.929050000000004,109.230848626958L38.9457,110.76704890529314L38.962349999999994,112.35573736495441L39.0177,116.81682018107838L39.18375,139.92328871207104L39.2571,140.7112800594833L39.290400000000005,139.3000210300088L39.7179,130.85120868517294L39.9294,123.4217328098085L39.9672,124.91752809286118L40.2795,128.97822643485333L40.293,129.3092836290598L40.37895,131.2363694500592L40.56165,134.0959327891469L40.690799999999996,136.19338416556516L40.81455,130.6350578011738L40.86495,131.07539046721325L41.2578,131.97431135674316L41.311800000000005,132.67752699719534L41.5467,121.00988835261927L41.7294,129.7384356641107L42.2244,138.20971426202192L42.25725,137.99816456685463L42.50115,130.2524831328127L42.90435,137.50079594718085L43.05465,137.1022663157847L43.5888,136.59866638233262L43.6212,136.8649514367183L43.69095,99.45154303643439L43.77555,126.82601575387848L43.81155,130.55675470332304L43.8687,133.02982370638185L43.89165,132.6400396492746L43.915499999999994,132.8970689094729L44.172,142.23206874976555L44.2386,141.08344587352542L44.4222,130.01789618035156L44.482949999999995,130.85317404485411L44.5833,141.88933175636663L44.89515,139.99562573681274L44.9307,135.90348163992167L45.5571,125.95835458238919L45.75645,127.94182614899344L45.85815,125.90129468341668L46.0665,128.4885258492496L46.67265,123.58050513764222L46.7082,122.76077148152721L47.0925,131.74227366182538L47.5182,131.3233149730497L47.65995,132.68345991522074L47.8098,136.66209574126535L48.0681,130.87411516408125L48.527550000000005,130.7870001817743L48.71385,132.00451379600497L48.7287,132.6482805295123L48.79755,131.88174604707294L48.966750000000005,131.99805592248836L49.203450000000004,131.8545754560166L49.703849999999996,129.99900330851474L50.23485,136.11419877409935L50.653800000000004,138.51236860122944L50.736599999999996,138.64373272657394L50.951699999999995,136.7383653273185L52.0218,139.11585375004344L52.03395,139.26339203036494L52.0416,139.59812575495906L52.35435,140.96515221893787L52.8354,136.5348962628179L52.8381,136.63269823375674L52.968599999999995,138.51560122188593L53.4024,141.0510054661168L53.8551,136.32924264669418L54.120599999999996,140.10278296718994L54.7146,140.93087354633542L54.8019,141.31626823875638L55.152,141.67529727187423L55.3176,143.3076362411181L55.72575,142.3247445763813L56.397600000000004,147.33517121068306L56.48265,145.39505359985762L56.502900000000004,144.5318913890256L56.69145,144.98903460345335L57.68415,147.04900784169632L57.80565,144.8942432983054L57.92445,144.6256198895474L58.01265,144.60683569270702L58.33755,147.4478782336745L58.39065,147.36831247972117L58.42485,146.91672458375493L58.65345000000001,139.81338881949583L58.84785,141.3485631321867L59.1471,143.94699979532095L59.17005,143.94704952794643L59.17995,144.18841945793895L59.1948,143.9410374061101L59.206050000000005,143.81075450488262L59.323049999999995,142.99407295841308L59.61195,146.04256409489446L59.74065,144.19451078358622L61.0722,144.31256866869L61.48350000000001,143.2043526296814L61.6023,145.15523274905152L61.7652,142.98918810942106L61.87005,145.80274876993565L61.873200000000004,145.70122329890728L62.5302,146.16270982929402L62.85465,147.7418726492259L62.9199,147.08337861175337L62.94375,146.96544966308608L62.958149999999996,147.10806993933187L63.6066,147.9932388369408L63.637649999999994,146.70392144223052L63.76815,145.14284103653497L63.77535,145.35519750540453L63.85185,145.0012669873734L63.868500000000004,144.92184398447472L64.15875,146.54141364163823L64.1673,146.4951411175231L65.16405,145.9714105224444L65.47364999999999,145.1654555665122L66.06855,147.70085796879397L66.26565,145.10233933892516L66.48525,147.05015721792975L67.02345,147.1339972147511L67.45005,150.25885648156205L67.4883,150.08699157958227L67.63409999999999,148.66653017244406L67.80735,146.58247621274657L68.22315,145.993882301367L68.56784999999999,147.19395081574717L68.94765,150.367730408493L68.95485,150.3098978118764L69.2298,146.74303615217406L69.4422,147.85634425944752L70.00649999999999,139.36435294399658L70.15230000000001,141.48716611746283L70.16265,141.6572553805179L70.47675,147.79587214978204L70.8813,146.85122395306826L71.07704999999999,147.3233698428505L71.29665,145.76544745887318L71.49015,147.30055177749858L71.98155,147.51252143705884L72.1836,145.68720054046975L72.3276,145.95336034231715L72.37395000000001,146.0271018532415L72.87705000000001,147.7023416587876L73.13085000000001,146.4659296468728L73.791,144.54915045201778L74.00925000000001,144.45682091183133L74.11094999999999,145.79396543569035L74.22885000000001,145.57314889464112L74.57220000000001,148.0491254143417L75.0267,144.94258248930174L75.4776,146.29363649172916L75.59864999999999,145.13297371524902L75.69810000000001,150.5457561696983L75.7341,150.18930448384748L75.76785,149.80719951250487L75.88619999999999,148.75785124550262L76.25475,143.56536728392044L76.26374999999999,143.5467866224547L76.78304999999999,144.41941921454338L76.797,144.50390389354692L76.82175,144.120221292807L76.8375,144.0464337331553L76.842,144.00978078817326L77.18849999999999,145.1401094260315L77.382,144.30327419357167L77.61915,146.01180722895594L77.64525,146.2559483713574L77.98949999999999,139.40469531300994L78.00210000000001,140.37899244328338L78.07815,142.62783361557456L78.2316,144.1718603356017L78.52725,143.45045084299312L78.53354999999999,143.78388599347738L78.7491,143.8494916152623L78.9984,143.75315767774978L79.79535,147.32856966513725L80.35695,141.35831809457807L80.78985,142.05314734081426L81.2106,131.7679743775063L81.3915,128.78156889809503L81.60525000000001,126.96156847145821L81.7056,125.03470184240075L82.16550000000001,129.1819552141759L82.33425,124.70091856353812L82.53495,136.44912958724632L83.07,133.65176886899604L83.3517,142.9914371292624L83.54295,128.4647610220644L83.65050000000001,132.80316450281276L83.90115,123.99573572145567L84.3966,126.1442846076356L84.5811,125.14637921584976L84.5865,125.44968560503588L84.87764999999999,128.25645131535L85.33665,134.84995122750598L85.35374999999999,135.76904882738987L85.38615,136.91526427616674L85.5846,134.22917754451433L85.84920000000001,131.0630825633804L85.93469999999999,130.1879467624757L86.0535,129.92186063859197L86.16555,137.99671311097012L86.68395000000001,132.02101397597127L86.82075,132.46418324361244L88.01055,138.2273030339016L88.01100000000001,138.2066437328855L88.07355,139.61612343953715L88.08704999999999,140.14710947208934L88.10549999999999,137.78545628570848L88.38494999999999,138.41591493702597L88.55144999999999,135.11203663796186L88.82639999999999,137.78546549545393L88.8318,137.9017458996839L89.0271,136.3147722946273L89.36325000000001,141.73037339167462L89.7192,141.52269363154966L90.27765,133.07611004511514L91.5786,134.8971603827344L91.62135,135.09963479472532L91.91699999999999,131.31811699271202L92.47635,134.39993727703887L92.55375,135.56491481926705L92.59335,134.8939332879252L92.63655,134.8774570532971L92.92095,140.5570978687869L92.98665,139.52180827822949L93.92985,142.15669987681838L93.95415,142.3952875427074L94.01805,142.7857715404696L94.64085,124.08962723447216L94.74885,131.32288211501307L95.3982,142.6103774640295L95.6367,122.27008729510837L95.80275,127.57270507680045L95.8086,127.79045845650964L95.84685,128.71818006204234L96.25274999999999,129.46566510697204L96.9966,139.07780829154783L97.11225,138.3217839706275L97.4097,115.80771942271126L97.6185,117.87710502081447L97.62075,117.0834607316388L97.92314999999999,120.09417809711562L98.3772,120.4269814590613L99.33840000000001,64.02009027865196L99.65880000000001,52.600263781017716L99.72405,47.77217629220752L99.74475,39.50514774521193L100.08765,48.51339871022435L100.10565,54.51143331991301L100.11914999999999,60.18611008259985L100.12365,56.86457485953966L100.15785,57.74353086286119L100.575,69.12607631087303L100.68255,57.719482375515824L100.78739999999999,56.58300715353752L101.1951,51.39456811216142L101.4534,37.035617126358886L101.45385,37.23998506201639L101.8953,59.456484576066316L101.95875,48.362380988068054L102.09105,52.8565083709028L102.2706,55.586873716778214L102.47309999999999,42.89067964752516L102.52980000000001,46.404138598177155L102.7593,76.95615769426027L102.78585000000001,62.244709226820206L102.8394,68.77886890702776L104.1921,68.88034556640518L104.36489999999999,50.85050055715773L104.80184999999999,24.80430890454187L105.24419999999999,21.45630855692758L105.50385,38.28791410724324L105.55875,36.778193689054916L105.58485,37.87640057669748L105.61590000000001,21.96814937061734L105.6177,21.30935049057007L106.0398,28.337152527438292L106.14825,14.598967856831024L106.33185,35.06026671330136L106.83404999999999,20.35096227460437L106.88130000000001,19.594171702861786L106.96185,18.497327857547333L106.96815000000001,17.917261249489258L106.98435,19.278682662381073L107.0028,20.35694492525525L107.0451,21.829914775159637L107.06715,19.576783703433165L107.2836,43.5992111530569L107.8416,28.59997655948004L107.95095,28.632512748241425L109.07730000000001,51.0499615404341L109.31354999999999,48.82363451189465L109.64385,40.52862307429314L109.70505,38.66318544745445L109.7118,38.119626270400175L110.23785,43.327309995889664L110.51235,36.80264740520053L110.5209,38.47015655040741L110.5506,44.37967445453009L110.62304999999999,48.5073202782207L110.68560000000001,46.790793183777055L110.8656,32.47091362211438L111.91185,7.800525320900817L112.20344999999999,35.149601244264176L112.3938,32.017617318365296L112.41629999999999,35.25862989491887L112.49369999999999,46.191739764478484L112.6116,70.62893731064266L112.72274999999999,45.803670561975906L112.9257,44.33417831195726L112.9383,44.5575035876698L113.1138,71.91861112250221L113.3775,49.946788758039474L113.5944,51.85166619883644L113.6232,52.77444585495526L113.79285,43.572023984458724L113.97869999999999,42.13812555869421L114.20685,44.562152667178054L115.0218,35.649255722761154L115.50059999999999,59.33959448668692L115.5609,53.760713812377716L115.7931,49.804523977968415L116.01719999999999,38.96866902046733L116.02755,37.92331133617296L116.40825,67.87812632984584L116.5374,63.81585496332909L116.71289999999999,54.901852849457L116.8245,44.91730255550809L117.1494,69.32946432961357L117.21374999999999,70.70119328962431L117.3078,70.46525434652963L117.5643,80.19027401341332L117.837,43.26025568114389L118.05165,43.12661122282347L118.1952,44.605084816614806L118.23570000000001,35.855200366841444L118.33695,29.005455864800354L118.5966,57.174994856119156L119.04525000000001,69.68213127056757L119.22885000000001,48.937430126799484L119.24640000000001,47.63120824429723L119.421,43.139593280024L119.91645,44.693918337424606L120.27105,27.57349516948065L120.32549999999999,48.19029136829906L120.36195,49.99968216816586L120.4164,52.2239756849077L120.53385,48.87383867634668L120.74804999999999,80.48021890388594L121.0491,62.75491438971625L121.26195,61.34888833761215L121.4973,68.48735467592874L121.67190000000001,68.49294683337212L122.16285,59.17371591925621L122.25375,61.17226752307678L122.38875,64.60879931184981L123.11775,95.61815963188806L123.15915000000001,85.91785892181925L123.43005,40.452550576792845L123.6411,49.4112089044518L123.6591,51.76535983218088L123.98355,54.66871366898218L124.46325,39.49237935410608L124.6203,54.49608620007831L125.07390000000001,51.21688633494908L125.0757,50.51185453269217L125.2539,87.85645876659287L125.41365,71.12089980973137L125.4915,74.48760699232417L125.79165,56.1478356288539L126.1935,64.53361094991365L126.21780000000001,58.156731618775254L126.24255000000001,43.38256110085382L126.2448,44.26499470406108L126.36855,53.681119508213456L126.3897,56.636364734835084L126.39059999999999,56.82806006073952L126.56925,47.38068843219014L126.61965,57.05470821261406L126.86760000000001,65.5799927579032L127.2168,85.51831069257524L127.4274,107.42049632966517L127.9467,61.939078297879945L128.04885,50.254519508944625L128.33325,34.01412804259195L128.34585,37.25669522417917L128.51415,44.66135267747774L128.53665,41.75923663046626L128.8116,98.65554105242093L128.8449,102.37765968011485L128.96595,72.46727618243958L128.98665,75.95550779832733L129.7584,45.178601453701674L129.76155,46.87908885545201L129.7899,51.77019310659831L130.14135000000002,68.13553503155708L130.3245,51.66413367787999L130.3713,52.8224986228678L131.3271,69.669989142153L132.7077,58.23919936352304L133.10865,65.94433765610057L133.155,67.88947273625267L133.3557,94.8446367945936L133.857,89.89925398760371L133.9605,96.0703139272001L133.983,89.77752325601047L134.2359,66.01120777593718L134.8128,62.94680127832625L135.1953,62.16069424483511L135.1971,62.955974184804475L135.3789,72.61594357755448L135.39149999999998,71.58939587738777L135.68715,56.26379000809456L135.6885,56.75601774785254L136.0566,62.75299139486418L136.08135000000001,53.95821496182019L136.77525,71.8943416012658L137.061,80.52553085154956L137.12175,81.40267437696457L137.40435000000002,83.54463276929324L137.4579,78.56943985819817L137.68605,75.28887695074081L137.87505000000002,87.04778417282633L138.75435,85.87155232164595L139.22729999999999,108.11796508895026L139.69754999999998,53.62803453538153L140.20964999999998,99.05338363680575L140.57865,97.86933086978064L140.9994,96.8079040216075L141.18525,88.08735813697177L141.26895,87.21513629953066L141.58575000000002,92.67730371157327L141.93585,53.22595915198326L142.0272,75.64694448643259L142.6014,80.06188279390335L142.91685,85.75224559505779L143.7939,60.255013714234025L143.82855,66.2667966319455L144.27045,81.14805070228046L144.36855000000003,79.83326007260216L144.3843,80.83934740225473L144.7101,72.1148818499512L144.738,77.34665090176794L144.76274999999998,79.95931570066345L145.1313,107.98856448133786L145.50435,112.95542073084248L145.53584999999998,108.03801344666216L145.5489,109.65881813069184L146.39129999999997,79.2820089161396L146.50335,85.29717365238402L146.57805000000002,94.60280361440446L146.83634999999998,74.35142801205316L146.8467,63.45386039217311L147.5154,79.28718847698634L147.7287,83.38526733385191L147.76065,92.67893936236699L147.94244999999998,87.25306571523348L148.23675,85.9641581541962L148.28895,84.83032060331767L148.4838,77.98602827058897L148.89915,68.78071085611978L148.94235,67.94106204642189L149.82299999999998,82.50249481201172L150.62535,95.10172131326463L150.89085,69.74645950065718L151.45785,80.79928132560518L151.50195000000002,66.0582953625255L151.50735,67.19774717423651L151.61445,73.75512278079987L152.0676,70.99826283918486L152.4204,82.0279055767589L152.4213,82.23584689365492L152.5131,80.66100252336925L152.78805,110.02944775919119L152.7894,110.2892141557402L152.97525000000002,96.75671994023853L153.19574999999998,93.67671581771639L153.26505,93.63748230205641L153.3231,81.28226984871758L153.5859,29.77985546986264L153.7254,60.915794531504304L153.783,57.55098087257808L154.16325,59.52043704854117L154.7082,65.95647241671878L154.7595,70.41787941588295L154.76760000000002,70.08999037411476L154.97054999999997,71.74549737903807L155.5146,90.75265110532442L155.51549999999997,90.97192409303453L155.52134999999998,92.05838671326636L155.5875,85.20009556743834L155.66715,84.54935705661774L155.81205,65.71024802989429L156.04649999999998,77.54706969857216L156.33270000000002,69.82179521852068L156.3966,77.3451847102907L156.46679999999998,72.86609499984316L156.5091,70.12158348494104L157.34655,81.12438534034622L157.42215000000002,80.52131647202704L158.11605,74.71553714076677L158.23215000000002,78.50037413504388L158.37165,75.85544575585259L158.55615,102.41023270785807L158.79194999999999,84.53029656741354L159.21314999999998,70.46299243304465L160.03574999999998,95.32218788398636L160.07985,90.11557248897022L160.3737,69.08555343084863L160.49835,82.40763443377283L161.22825,58.85985516177283L161.91674999999998,73.1902117298709L162.3699,64.11428018742136L162.61875,81.69582425885729L163.0917,73.15583359201747L163.34730000000002,74.94432195358804L163.51515,83.79887331856621L163.54215,76.63275564048026L163.90755,84.12805909249518L163.9719,76.84080747432178L164.20815000000002,81.48665251996782L164.24370000000002,84.10322225093842L164.61045000000001,83.41859187682468L164.86605,61.215487016571885L164.87505000000002,64.95485733946163L164.96415,55.98254648513263L165.3282,70.6691212720341L165.47490000000002,75.38259532054263L165.53070000000002,73.89438149995273L165.8178,89.6779769592815L165.86325,83.7170318365097L165.8691,84.02202176716592L165.98475,79.97133257653978L166.1886,67.66244882676337L166.29930000000002,80.67328463991481L166.46939999999998,81.05376501215828L166.6611,109.21412004530428L166.76865,86.05769232908884L167.24294999999998,83.38419163558218L167.30055000000002,77.15270103017488L167.3811,72.25041246414185L167.50485,92.01884375015894L167.82615,80.99334171414375L167.958,94.25508046481345L168.19785000000002,89.58679311143027L168.6078,76.2530341512627L168.70455,78.32440168658891L169.3845,117.38239801757865L169.44975,100.79069160090552L169.5141,98.7675720800956L169.5393,93.4384928577476L169.6122,93.27994524770313L169.85655,87.44356745812628L169.92495,87.64767752091089L169.9299,87.78516060113907L170.28900000000002,60.77417074971727L170.41365,66.39298488034142L170.42355,64.79409202271036L170.50275,67.5222175584899L170.748,87.40277196963626L170.9379,91.03609023160404L171.72495,75.45125581489668L171.8091,67.41446353660689L171.81585,66.8448076248169L171.8478,68.77300414111878L172.04985,78.80848801136017L172.05435,76.12511447072029L172.251,77.2068764368693L172.62765000000002,83.20913279387686L172.74689999999998,83.36700256665546L173.1708,56.91334967149628L173.39265,62.539060059520935L173.5407,78.53325661023456L173.58255,84.48407838079665L173.87055,84.82952488130992L173.9538,91.52491404943996L174.11085,91.10354977515009L174.4479,86.2334805826346L174.80835,88.95370047291118L174.81105,89.76999336812231L174.8817,81.14721814129088L174.8826,81.37791858116785L174.92265,78.40515273478296L175.3632,84.26851139465967L175.37625,82.4015044271946L175.7277,66.69451194670464L176.27445,87.6286612384849L176.38785000000001,90.38857881559265L176.5755,74.65775888164836L176.66145,85.89333152770996L176.7213,85.02970790863037L176.95575000000002,39.098828511105665L177.1884,74.04732221696112L177.39135,45.66663691732617L177.5745,82.99482570091882L177.65865,79.54071435001161L178.11675,75.00975535313287L179.03384999999997,97.34200663202338L179.0352,97.50420866906641L179.08964999999998,95.81920469138358L179.3376,102.78379471931193L179.81685,77.98588091466162L180.18765,103.29813689986864L180.84644999999998,104.11725166108873L180.98685,104.68644708560572L181.06289999999998,114.6206348074807L181.25369999999998,87.65440431899493L181.25775,87.71822417113516L181.26674999999997,88.81873717904091L181.50795,88.75818126069174L181.76129999999998,82.75444397661421L181.9233,106.29445390734408L182.052,104.53502781854735L182.21985,105.67975497245787L182.40885,97.66792847216128L182.48355,95.75121466649902L182.78865,78.06500367985831L182.97809999999998,91.61612000068028L183.5424,73.81841951939795L183.90465,97.47522375815444L184.23225,99.42875075836976L184.63094999999998,79.27278443508676L184.93425,87.60837769508362L184.9446,88.77000657386249L185.24835,89.00728645589616L185.5062,61.8987543483575L185.50979999999998,64.63975879218842L185.61915,80.10538963145679L186.51285000000001,85.05195128586557L186.5925,89.39164965682559L186.60915,92.61293864250182L186.73425,96.86199469864367L186.85035,94.28609888752301L187.07085,81.30632570385933L187.1109,76.67443526453441L187.1298,75.57521898878944L187.5735,95.17774960398673L188.694,77.55364177293247L188.8101,82.65676173236635L189.23805,89.881143944131L189.3168,87.4029709001382L190.0737,102.42639028529325L190.14795,96.04066591461499L190.79909999999998,102.91305533879333L190.99575,74.83951505025226L191.04705,76.33114752835696L191.5884,101.31329308119085L191.61630000000002,97.20451986789702L192.02085,94.21774784061644L192.2256,78.60823130607605L192.25395,74.25606662366125L192.8988,62.805892172786926L192.95235000000002,65.68882247805595L193.02435,72.74515262246132L193.0401,75.45269253518846L193.2012,87.2512163983451L193.45815,85.854599022203L193.7925,92.30061775445937L193.82085,96.4759111172623L194.15385,68.43285508619414L194.64885,108.4895414792829L194.76405,108.73586533135837L194.9661,66.61640593740675L195.2892,86.04548389050696L195.56055,108.50548907452159L195.9615,98.62142447133859L196.37325,108.10998944938181L196.8174,104.22793438202804L196.94655,115.02320751713381L197.21025,78.71457071105638L197.27955,100.38566173116365L197.30564999999999,95.164443363746L197.67825000000002,73.90516058603922L197.6859,77.23939789003795L197.7543,76.49124974343512L197.7669,80.12209979361957L197.8398,87.85841860042677L197.9244,98.04655952751635L198.66240000000002,99.86916447016928L198.98954999999998,104.4911746945646L199.17495,106.3850814865695L199.25055,110.29856757322946L199.64294999999998,102.9824931356642L199.90215,72.36924028396606L199.92735,81.0660839676857L199.97865,85.72555943661264L199.9971,85.45407824383841L200.15189999999998,95.13895815610884L200.47410000000002,112.28015482591258L200.49345000000002,105.08263559970591L200.64915,103.59595059686237L200.9286,82.56887865728801L201.31155,102.69132150709628L201.5811,98.440795575579L202.19445000000002,80.20775042639838L202.1985,81.72695319851238L202.3335,105.6032367232773L202.5864,63.98793721530173L202.77495,83.87289020087984L202.9023,88.98675977521471L203.1111,107.01070686346954L203.33880000000002,102.47703283362918L203.37120000000002,104.00935396717654L203.56245,96.92659185330072L203.6115,98.33816953996816L203.7528,109.87592498626974L203.76989999999998,108.46816750201914L203.82165,102.30424327320522L203.9751,91.4851942592197L203.98770000000002,84.0382014479902L204.18030000000002,99.80995317465728L204.7185,106.43640187217129L205.05554999999998,84.88993344373172L205.09155,86.25220952100223L205.11,88.41147486699951L205.39395000000002,90.48987128006087L205.8156,72.19867579804526L205.98885,73.52534331546889L206.2251,82.11950202120674L206.24265,88.80359635750452L206.87715,77.54322370886803L207.07605,110.2145231200589L207.7578,93.40226540300581L208.07549999999998,137.11599252041842L208.07594999999998,137.16903881231943L208.30365,112.51855092909601L208.6137,91.91729341281784L208.6893,100.66341291864713L208.92645000000002,100.69866782426833L208.9557,95.54213134116596L209.05425000000002,70.56704045335451L209.43225,116.82065880298615L209.8116,92.53673352466689L209.89530000000002,96.77048298385408L209.95155,106.5108350349797L209.96370000000002,104.06256419254673L210.03165,100.10646645559204L210.0906,101.81424797574678L210.37545,108.51977523167928L210.41414999999998,113.11252793669699L210.69899999999998,112.97162988285223L210.72959999999998,111.31222899754842L210.92669999999998,103.40148129562536L211.1778,115.46086198919349L211.33215,117.11201094256506L211.33485,117.46772446731725L211.34565,118.74506827195485L211.34789999999998,115.99734808173443L211.81725,85.7090482049518L211.9392,97.29867293768459L212.3622,99.42787767450014L212.36625,99.8829569849703L212.38154999999998,101.03519560727808L212.58855,101.87520175509982L213.07545000000002,118.53902047872543L213.62265,83.77824348873561L213.63524999999998,81.19535195496347L213.70454999999998,87.27081473668414L214.07805000000002,110.44710234800974L214.74269999999999,118.88384440044561L215.2782,107.49641778733995L215.2989,109.78394910030894L215.30475,107.81500498619344L215.94375,106.47914982669883L215.98155,105.89127703838878L216.1638,106.48588767647742L216.7632,104.31838513414064L216.7767,105.35662921104166L216.8613,107.26480374071333L217.0791,119.01120044456587L217.18395,117.68031117982335L217.2348,107.16414122283457L218.0016,103.35086821847491L218.16405,102.54538756443394L218.7882,93.18376603391435L218.81519999999998,89.55782293611102L218.94885,98.39607305162482L219.1212,103.37150541610187L219.37365,79.73406743009883L220.80870000000002,98.65971122516525L221.1678,96.35374568568335L221.1984,93.99827592240439L221.20065,94.45157959394984L221.52555,97.86841726303099L222.06824999999998,90.15641955203479L223.37279999999998,98.27234564721583L223.4016,91.99495735433366L224.01675,97.73165622684691L224.0883,101.80091963211694L224.18595000000002,119.09074685805373L224.20125,123.46811677184368L224.37494999999998,105.95039992034434L224.4762,105.44166094892554L224.6364,125.57252150608433L224.68095,101.96290431916712L224.81550000000001,95.97401682866943L224.90054999999998,100.75163491235838L224.9991,104.0786775632037L225.3321,94.49393705526987L225.3843,98.21370535592237L225.59040000000002,101.68086139029926L225.7074,103.1164396736357L225.74655,101.49355727103021L226.1385,99.92450030479166L226.17585,95.78056796722942L226.4355,106.04964782132042L226.61100000000002,104.31663896640141L226.75185000000002,106.60214413536919L227.17935,100.68931440677908L227.18339999999998,101.24361583093801L227.48985000000002,113.64407760567134L227.60909999999998,112.48427962428993L227.68605000000002,109.42366385791037L227.69865000000001,104.13785201973384L228.0249,110.24974855449464L228.8088,103.62307882308959L228.90465,96.6367611636718L229.716,92.30587836106618L229.89825,90.53935340046881L230.22719999999998,109.29254286984602L230.62904999999998,108.99020166198412L230.76225,106.97699551118744L230.7681,107.6190437061919L231.27075,88.30198204517365L231.48405000000002,111.5991604593065L231.5412,109.50140884518622L231.56955,104.5951490369108L231.8832,118.04432821108234L232.55415000000002,122.81850553386741L233.02214999999998,108.05828962226708L233.25930000000002,79.06766498419974L233.42534999999998,95.38765812251303L233.7264,82.06522346536318L233.81459999999998,79.51592171523306L233.9073,85.60083737969398L234.14445,88.16611988014644L234.27,91.0643899374538L234.6399,90.45071881016095L234.855,93.00182567040125L234.9855,108.60763988726669L234.9963,109.70894861718018L235.06245,95.95078616672092L235.10250000000002,100.0946632458104L235.41525,85.55626221166716L235.55294999999998,92.05445967780219L236.09205,100.74395766854285L236.3544,100.37400219341119L236.3967,113.85443555977609L236.55780000000001,111.96526994473403L236.64555000000001,112.96361003650559L236.82195,89.50330861078368L237.36195,102.48722249600623L237.67785,99.92724480893877L237.87,87.79056856367323L237.9942,86.9401996102598L238.14945,115.22120230893293L238.34969999999998,114.0491590499878L238.4667,116.27702594796816L238.47164999999998,116.69162658519215L238.79655,126.45235796107185L238.8294,128.7466602789031L239.0274,95.81138745943704L239.07825,107.94881521993213L239.34105,105.19225735796822L239.50935,50.17407790819806L239.6736,75.17346042063501L239.74200000000002,86.48050069146684L239.82525,91.90487867593764L239.994,94.6289150847329L240.4062,104.29071905877855L240.47235,102.36120370692676L240.5007,103.10292345119846L240.50879999999998,98.84575913515356L240.62355,112.47835223211182L240.67485,112.35725513100623L240.91109999999998,97.41304324070612L241.06725,100.2547728286849L241.0695,100.59581707086828L241.27335,93.36385708053906L241.4718,92.85828626155852L242.30745,110.95731119480398L242.82854999999998,104.77719991736942L243.31365,100.26176855133639L243.4104,98.90772230260902L243.96165000000002,102.9525209400389L244.2114,107.76464978191588L244.3284,112.40878181490633L244.59615,108.98970801962746L244.79145,113.75885682139132L244.90125,94.20634249183867L245.2167,102.22091718018054L245.53664999999998,117.66669917603333L245.5884,117.57081835799747L245.7675,104.83597651289568L245.84175000000002,108.49981218741999L245.9592,105.62846774193976L245.9637,105.99361941383944L246.52215,108.04824363191922L247.00500000000002,98.33415777484575L247.01760000000002,97.42221614718436L247.2228,119.67864543365107L247.28310000000002,116.72551476458707L247.38615,105.83899147146278L247.5,110.3825272967418" style="fill: none;" fill="none"></path></g></g></g></g></g></g><g transform="translate(60, 178)" clip-path="url(#clip_1)"><clipPath id="clip_1"><rect width="270" height="22"></rect></clipPath><g><g><line x1="0" y1="0" x2="0" y2="5" style="visibility: inherit;" fill="rgb(0, 0, 0)" stroke="rgb(204, 204, 204)" stroke-width="1px"></line><line x1="22.5" y1="0" x2="22.5" y2="5" style="visibility: inherit;" fill="rgb(0, 0, 0)" stroke="rgb(204, 204, 204)" stroke-width="1px"></line><line x1="45" y1="0" x2="45" y2="5" style="visibility: inherit;" fill="rgb(0, 0, 0)" stroke="rgb(204, 204, 204)" stroke-width="1px"></line><line x1="67.5" y1="0" x2="67.5" y2="5" style="visibility: inherit;" fill="rgb(0, 0, 0)" stroke="rgb(204, 204, 204)" stroke-width="1px"></line><line x1="90" y1="0" x2="90" y2="5" style="visibility: inherit;" fill="rgb(0, 0, 0)" stroke="rgb(204, 204, 204)" stroke-width="1px"></line><line x1="112.5" y1="0" x2="112.5" y2="5" style="visibility: inherit;" fill="rgb(0, 0, 0)" stroke="rgb(204, 204, 204)" stroke-width="1px"></line><line x1="135" y1="0" x2="135" y2="5" style="visibility: inherit;" fill="rgb(0, 0, 0)" stroke="rgb(204, 204, 204)" stroke-width="1px"></line><line x1="157.5" y1="0" x2="157.5" y2="5" style="visibility: inherit;" fill="rgb(0, 0, 0)" stroke="rgb(204, 204, 204)" stroke-width="1px"></line><line x1="180" y1="0" x2="180" y2="5" style="visibility: inherit;" fill="rgb(0, 0, 0)" stroke="rgb(204, 204, 204)" stroke-width="1px"></line><line x1="202.5" y1="0" x2="202.5" y2="5" style="visibility: inherit;" fill="rgb(0, 0, 0)" stroke="rgb(204, 204, 204)" stroke-width="1px"></line><line x1="225" y1="0" x2="225" y2="5" style="visibility: inherit;" fill="rgb(0, 0, 0)" stroke="rgb(204, 204, 204)" stroke-width="1px"></line><line x1="247.5" y1="0" x2="247.5" y2="5" style="visibility: inherit;" fill="rgb(0, 0, 0)" stroke="rgb(204, 204, 204)" stroke-width="1px"></line><line x1="270" y1="0" x2="270" y2="5" style="visibility: inherit;" fill="rgb(0, 0, 0)" stroke="rgb(204, 204, 204)" stroke-width="1px"></line></g><g transform="translate(0, 8)"><text x="0" y="0" dx="0em" dy="0.95em" style="text-anchor: middle; visibility: hidden; font-family: &quot;Helvetica Neue&quot;, sans-serif; font-size: 12px; font-weight: 200;" fill="rgb(50, 49, 63)" stroke="none" stroke-width="1px">-50k</text><text x="22.5" y="0" dx="0em" dy="0.95em" style="text-anchor: middle; visibility: inherit; font-family: &quot;Helvetica Neue&quot;, sans-serif; font-size: 12px; font-weight: 200;" fill="rgb(50, 49, 63)" stroke="none" stroke-width="1px">0</text><text x="45" y="0" dx="0em" dy="0.95em" style="text-anchor: middle; visibility: hidden; font-family: &quot;Helvetica Neue&quot;, sans-serif; font-size: 12px; font-weight: 200;" fill="rgb(50, 49, 63)" stroke="none" stroke-width="1px">50k</text><text x="67.5" y="0" dx="0em" dy="0.95em" style="text-anchor: middle; visibility: inherit; font-family: &quot;Helvetica Neue&quot;, sans-serif; font-size: 12px; font-weight: 200;" fill="rgb(50, 49, 63)" stroke="none" stroke-width="1px">100k</text><text x="90" y="0" dx="0em" dy="0.95em" style="text-anchor: middle; visibility: hidden; font-family: &quot;Helvetica Neue&quot;, sans-serif; font-size: 12px; font-weight: 200;" fill="rgb(50, 49, 63)" stroke="none" stroke-width="1px">150k</text><text x="112.5" y="0" dx="0em" dy="0.95em" style="text-anchor: middle; visibility: inherit; font-family: &quot;Helvetica Neue&quot;, sans-serif; font-size: 12px; font-weight: 200;" fill="rgb(50, 49, 63)" stroke="none" stroke-width="1px">200k</text><text x="135" y="0" dx="0em" dy="0.95em" style="text-anchor: middle; visibility: hidden; font-family: &quot;Helvetica Neue&quot;, sans-serif; font-size: 12px; font-weight: 200;" fill="rgb(50, 49, 63)" stroke="none" stroke-width="1px">250k</text><text x="157.5" y="0" dx="0em" dy="0.95em" style="text-anchor: middle; visibility: inherit; font-family: &quot;Helvetica Neue&quot;, sans-serif; font-size: 12px; font-weight: 200;" fill="rgb(50, 49, 63)" stroke="none" stroke-width="1px">300k</text><text x="180" y="0" dx="0em" dy="0.95em" style="text-anchor: middle; visibility: hidden; font-family: &quot;Helvetica Neue&quot;, sans-serif; font-size: 12px; font-weight: 200;" fill="rgb(50, 49, 63)" stroke="none" stroke-width="1px">350k</text><text x="202.5" y="0" dx="0em" dy="0.95em" style="text-anchor: middle; visibility: inherit; font-family: &quot;Helvetica Neue&quot;, sans-serif; font-size: 12px; font-weight: 200;" fill="rgb(50, 49, 63)" stroke="none" stroke-width="1px">400k</text><text x="225" y="0" dx="0em" dy="0.95em" style="text-anchor: middle; visibility: hidden; font-family: &quot;Helvetica Neue&quot;, sans-serif; font-size: 12px; font-weight: 200;" fill="rgb(50, 49, 63)" stroke="none" stroke-width="1px">450k</text><text x="247.5" y="0" dx="0em" dy="0.95em" style="text-anchor: middle; visibility: inherit; font-family: &quot;Helvetica Neue&quot;, sans-serif; font-size: 12px; font-weight: 200;" fill="rgb(50, 49, 63)" stroke="none" stroke-width="1px">500k</text><text x="270" y="0" dx="0em" dy="0.95em" style="text-anchor: middle; visibility: hidden; font-family: &quot;Helvetica Neue&quot;, sans-serif; font-size: 12px; font-weight: 200;" fill="rgb(50, 49, 63)" stroke="none" stroke-width="1px">550k</text></g><line x1="0" y1="0" x2="270" y2="0" fill="rgb(0, 0, 0)" stroke="rgb(204, 204, 204)" stroke-width="1px"></line></g></g></g></g></svg>