<svg viewBox="0 0 330 200" xmlns="http://www.w3.org/2000/svg"><g><g><g><g><g><line x1="40" y1="172.14631652301827" x2="35" y2="172.14631652301827" style="visibility: inherit;" fill="rgb(0, 0, 0)" stroke="rgb(204, 204, 204)" stroke-width="1px"></line><line x1="40" y1="166.3840434817097" x2="35" y2="166.3840434817097" style="visibility: inherit;" fill="rgb(0, 0, 0)" stroke="rgb(204, 204, 204)" stroke-width="1px"></line><line x1="40" y1="161.39253553149553" x2="35" y2="161.39253553149553" style="visibility: inherit;" fill="rgb(0, 0, 0)" stroke="rgb(204, 204, 204)" stroke-width="1px"></line><line x1="40" y1="156.9897134884996" x2="35" y2="156.9897134884996" style="visibility: inherit;" fill="rgb(0, 0, 0)" stroke="rgb(204, 204, 204)" stroke-width="1px"></line><line x1="40" y1="153.05125496419208" x2="35" y2="153.05125496419208" style="visibility: inherit;" fill="rgb(0, 0, 0)" stroke="rgb(204, 204, 204)" stroke-width="1px"></line><line x1="40" y1="127.1408709381507" x2="35" y2="127.1408709381507" style="visibility: inherit;" fill="rgb(0, 0, 0)" stroke="rgb(204, 204, 204)" stroke-width="1px"></line><line x1="40" y1="111.98426790363203" x2="35" y2="111.98426790363203" style="visibility: inherit;" fill="rgb(0, 0, 0)" stroke="rgb(204, 204, 204)" stroke-width="1px"></line><line x1="40" y1="101.2304869121093" x2="35" y2="101.2304869121093" style="visibility: inherit;" fill="rgb(0, 0, 0)" stroke="rgb(204, 204, 204)" stroke-width="1px"></line><line x1="40" y1="92.88920634480584" x2="35" y2="92.88920634480584" style="visibility: inherit;" fill="rgb(0, 0, 0)" stroke="rgb(204, 204, 204)" stroke-width="1px"></line><line x1="40" y1="86.07388387759063" x2="35" y2="86.07388387759063" style="visibility: inherit;" fill="rgb(0, 0, 0)" stroke="rgb(204, 204, 204)" stroke-width="1px"></line><line x1="40" y1="80.31161083628206" x2="35" y2="80.31161083628206" style="visibility: inherit;" fill="rgb(0, 0, 0)" stroke="rgb(204, 204, 204)" stroke-width="1px"></line><line x1="40" y1="75.32010288606791" x2="35" y2="75.32010288606791" style="visibility: inherit;" fill="rgb(0, 0, 0)" stroke="rgb(204, 204, 204)" stroke-width="1px"></line><line x1="40" y1="70.91728084307196" x2="35" y2="70.91728084307196" style="visibility: inherit;" fill="rgb(0, 0, 0)" stroke="rgb(204, 204, 204)" stroke-width="1px"></line><line x1="40" y1="66.97882231876447" x2="35" y2="66.97882231876447" style="visibility: inherit;" fill="rgb(0, 0, 0)" stroke="rgb(204, 204, 204)" stroke-width="1px"></line><line x1="40" y1="41.06843829272307" x2="35" y2="41.06843829272307" style="visibility: inherit;" fill="rgb(0, 0, 0)" stroke="rgb(204, 204, 204)" stroke-width="1px"></line><line x1="40" y1="25.911835258204377" x2="35" y2="25.911835258204377" style="visibility: inherit;" fill="rgb(0, 0, 0)" stroke="rgb(204, 204, 204)" stroke-width="1px"></line><line x1="40" y1="15.158054266681688" x2="35" y2="15.158054266681688" style="visibility: inherit;" fill="rgb(0, 0, 0)" stroke="rgb(204, 204, 204)" stroke-width="1px"></line><line x1="40" y1="6.816773699378217" x2="35" y2="6.816773699378217" style="visibility: inherit;" fill="rgb(0, 0, 0)" stroke="rgb(204, 204, 204)" stroke-width="1px"></line><line x1="40" y1="0.0014512321629922553" x2="35" y2="0.0014512321629922553" style="visibility: inherit;" fill="rgb(0, 0, 0)" stroke="rgb(204, 204, 204)" stroke-width="1px"></line></g><g transform="translate(30, 0)"><text x="0" y="172.14631652301827" dx="0em" dy="0.3em" style="text-anchor: end; visibility: inherit; font-family: &quot;Helvetica Neue&quot;, sans-serif; font-size: 12px; font-weight: 200;" fill="rgb(50, 49, 63)" stroke="none" stroke-width="1px">6</text><text x="0" y="166.3840434817097" dx="0em" dy="0.3em" style="text-anchor: end; visibility: hidden; font-family: &quot;Helvetica Neue&quot;, sans-serif; font-size: 12px; font-weight: 200;" fill="rgb(50, 49, 63)" stroke="none" stroke-width="1px">7</text><text x="0" y="161.39253553149553" dx="0em" dy="0.3em" style="text-anchor: end; visibility: hidden; font-family: &quot;Helvetica Neue&quot;, sans-serif; font-size: 12px; font-weight: 200;" fill="rgb(50, 49, 63)" stroke="none" stroke-width="1px">8</text><text x="0" y="156.9897134884996" dx="0em" dy="0.3em" style="text-anchor: end; visibility: hidden; font-family: &quot;Helvetica Neue&quot;, sans-serif; font-size: 12px; font-weight: 200;" fill="rgb(50, 49, 63)" stroke="none" stroke-width="1px">9</text><text x="0" y="153.05125496419208" dx="0em" dy="0.3em" style="text-anchor: end; visibility: hidden; font-family: &quot;Helvetica Neue&quot;, sans-serif; font-size: 12px; font-weight: 200;" fill="rgb(50, 49, 63)" stroke="none" stroke-width="1px">10</text><text x="0" y="127.1408709381507" dx="0em" dy="0.3em" style="text-anchor: end; visibility: inherit; font-family: &quot;Helvetica Neue&quot;, sans-serif; font-size: 12px; font-weight: 200;" fill="rgb(50, 49, 63)" stroke="none" stroke-width="1px">20</text><text x="0" y="111.98426790363203" dx="0em" dy="0.3em" style="text-anchor: end; visibility: hidden; font-family: &quot;Helvetica Neue&quot;, sans-serif; font-size: 12px; font-weight: 200;" fill="rgb(50, 49, 63)" stroke="none" stroke-width="1px">30</text><text x="0" y="101.2304869121093" dx="0em" dy="0.3em" style="text-anchor: end; visibility: hidden; font-family: &quot;Helvetica Neue&quot;, sans-serif; font-size: 12px; font-weight: 200;" fill="rgb(50, 49, 63)" stroke="none" stroke-width="1px">40</text><text x="0" y="92.88920634480584" dx="0em" dy="0.3em" style="text-anchor: end; visibility: hidden; font-family: &quot;Helvetica Neue&quot;, sans-serif; font-size: 12px; font-weight: 200;" fill="rgb(50, 49, 63)" stroke="none" stroke-width="1px">50</text><text x="0" y="86.07388387759063" dx="0em" dy="0.3em" style="text-anchor: end; visibility: hidden; font-family: &quot;Helvetica Neue&quot;, sans-serif; font-size: 12px; font-weight: 200;" fill="rgb(50, 49, 63)" stroke="none" stroke-width="1px">60</text><text x="0" y="80.31161083628206" dx="0em" dy="0.3em" style="text-anchor: end; visibility: inherit; font-family: &quot;Helvetica Neue&quot;, sans-serif; font-size: 12px; font-weight: 200;" fill="rgb(50, 49, 63)" stroke="none" stroke-width="1px">70</text><text x="0" y="75.32010288606791" dx="0em" dy="0.3em" style="text-anchor: end; visibility: hidden; font-family: &quot;Helvetica Neue&quot;, sans-serif; font-size: 12px; font-weight: 200;" fill="rgb(50, 49, 63)" stroke="none" stroke-width="1px">80</text><text x="0" y="70.91728084307196" dx="0em" dy="0.3em" style="text-anchor: end; visibility: hidden; font-family: &quot;Helvetica Neue&quot;, sans-serif; font-size: 12px; font-weight: 200;" fill="rgb(50, 49, 63)" stroke="none" stroke-width="1px">90</text><text x="0" y="66.97882231876447" dx="0em" dy="0.3em" style="text-anchor: end; visibility: hidden; font-family: &quot;Helvetica Neue&quot;, sans-serif; font-size: 12px; font-weight: 200;" fill="rgb(50, 49, 63)" stroke="none" stroke-width="1px">100</text><text x="0" y="41.06843829272307" dx="0em" dy="0.3em" style="text-anchor: end; visibility: hidden; font-family: &quot;Helvetica Neue&quot;, sans-serif; font-size: 12px; font-weight: 200;" fill="rgb(50, 49, 63)" stroke="none" stroke-width="1px">200</text><text x="0" y="25.911835258204377" dx="0em" dy="0.3em" style="text-anchor: end; visibility: inherit; font-family: &quot;Helvetica Neue&quot;, sans-serif; font-size: 12px; font-weight: 200;" fill="rgb(50, 49, 63)" stroke="none" stroke-width="1px">300</text><text x="0" y="15.158054266681688" dx="0em" dy="0.3em" style="text-anchor: end; visibility: hidden; font-family: &quot;Helvetica Neue&quot;, sans-serif; font-size: 12px; font-weight: 200;" fill="rgb(50, 49, 63)" stroke="none" stroke-width="1px">400</text><text x="0" y="6.816773699378217" dx="0em" dy="0.3em" style="text-anchor: end; visibility: hidden; font-family: &quot;Helvetica Neue&quot;, sans-serif; font-size: 12px; font-weight: 200;" fill="rgb(50, 49, 63)" stroke="none" stroke-width="1px">500</text><text x="0" y="0.0014512321629922553" dx="0em" dy="0.3em" style="text-anchor: end; visibility: hidden; font-family: &quot;Helvetica Neue&quot;, sans-serif; font-size: 12px; font-weight: 200;" fill="rgb(50, 49, 63)" stroke="none" stroke-width="1px">600</text></g><line x1="40" y1="0" x2="40" y2="178" fill="rgb(0, 0, 0)" stroke="rgb(204, 204, 204)" stroke-width="1px"></line></g></g><g transform="translate(40, 0)" clip-path="url(#clip_0)"><clipPath id="clip_0"><rect width="290" height="178"></rect></clipPath><g><g><g><line x1="0" y1="0" x2="0" y2="178" fill="rgb(0, 0, 0)" stroke="rgb(60, 60, 60)" stroke-width="1px" opacity="0.25"></line><line x1="24.166666666666664" y1="0" x2="24.166666666666664" y2="178" fill="rgb(0, 0, 0)" stroke="rgb(60, 60, 60)" stroke-width="1px" opacity="0.25"></line><line x1="48.33333333333333" y1="0" x2="48.33333333333333" y2="178" fill="rgb(0, 0, 0)" stroke="rgb(60, 60, 60)" stroke-width="1px" opacity="0.25"></line><line x1="72.5" y1="0" x2="72.5" y2="178" fill="rgb(0, 0, 0)" stroke="rgb(60, 60, 60)" stroke-width="1px" opacity="0.25"></line><line x1="96.66666666666666" y1="0" x2="96.66666666666666" y2="178" fill="rgb(0, 0, 0)" stroke="rgb(60, 60, 60)" stroke-width="1px" opacity="0.25"></line><line x1="120.83333333333334" y1="0" x2="120.83333333333334" y2="178" fill="rgb(0, 0, 0)" stroke="rgb(60, 60, 60)" stroke-width="1px" opacity="0.25"></line><line x1="145" y1="0" x2="145" y2="178" fill="rgb(0, 0, 0)" stroke="rgb(60, 60, 60)" stroke-width="1px" opacity="0.25"></line><line x1="169.16666666666669" y1="0" x2="169.16666666666669" y2="178" fill="rgb(0, 0, 0)" stroke="rgb(60, 60, 60)" stroke-width="1px" opacity="0.25"></line><line x1="193.33333333333331" y1="0" x2="193.33333333333331" y2="178" fill="rgb(0, 0, 0)" stroke="rgb(60, 60, 60)" stroke-width="1px" opacity="0.25"></line><line x1="217.5" y1="0" x2="217.5" y2="178" fill="rgb(0, 0, 0)" stroke="rgb(60, 60, 60)" stroke-width="1px" opacity="0.25"></line><line x1="241.66666666666669" y1="0" x2="241.66666666666669" y2="178" fill="rgb(0, 0, 0)" stroke="rgb(60, 60, 60)" stroke-width="1px" opacity="0.25"></line><line x1="265.8333333333333" y1="0" x2="265.8333333333333" y2="178" fill="rgb(0, 0, 0)" stroke="rgb(60, 60, 60)" stroke-width="1px" opacity="0.25"></line><line x1="290" y1="0" x2="290" y2="178" fill="rgb(0, 0, 0)" stroke="rgb(60, 60, 60)" stroke-width="1px" opacity="0.25"></line></g><g><line x1="0" y1="172.14631652301827" x2="290" y2="172.14631652301827" fill="rgb(0, 0, 0)" stroke="rgb(60, 60, 60)" stroke-width="1px" opacity="0.25"></line><line x1="0" y1="166.3840434817097" x2="290" y2="166.3840434817097" fill="rgb(0, 0, 0)" stroke="rgb(60, 60, 60)" stroke-width="1px" opacity="0.25"></line><line x1="0" y1="161.39253553149553" x2="290" y2="161.39253553149553" fill="rgb(0, 0, 0)" stroke="rgb(60, 60, 60)" stroke-width="1px" opacity="0.25"></line><line x1="0" y1="156.9897134884996" x2="290" y2="156.9897134884996" fill="rgb(0, 0, 0)" stroke="rgb(60, 60, 60)" stroke-width="1px" opacity="0.25"></line><line x1="0" y1="153.05125496419208" x2="290" y2="153.05125496419208" fill="rgb(0, 0, 0)" stroke="rgb(60, 60, 60)" stroke-width="1px" opacity="0.25"></line><line x1="0" y1="127.1408709381507" x2="290" y2="127.1408709381507" fill="rgb(0, 0, 0)" stroke="rgb(60, 60, 60)" stroke-width="1px" opacity="0.25"></line><line x1="0" y1="111.98426790363203" x2="290" y2="111.98426790363203" fill="rgb(0, 0, 0)" stroke="rgb(60, 60, 60)" stroke-width="1px" opacity="0.25"></line><line x1="0" y1="101.2304869121093" x2="290" y2="101.2304869121093" fill="rgb(0, 0, 0)" stroke="rgb(60, 60, 60)" stroke-width="1px" opacity="0.25"></line><line x1="0" y1="92.88920634480584" x2="290" y2="92.88920634480584" fill="rgb(0, 0, 0)" stroke="rgb(60, 60, 60)" stroke-width="1px" opacity="0.25"></line><line x1="0" y1="86.07388387759063" x2="290" y2="86.07388387759063" fill="rgb(0, 0, 0)" stroke="rgb(60, 60, 60)" stroke-width="1px" opacity="0.25"></line><line x1="0" y1="80.31161083628206" x2="290" y2="80.31161083628206" fill="rgb(0, 0, 0)" stroke="rgb(60, 60, 60)" stroke-width="1px" opacity="0.25"></line><line x1="0" y1="75.32010288606791" x2="290" y2="75.32010288606791" fill="rgb(0, 0, 0)" stroke="rgb(60, 60, 60)" stroke-width="1px" opacity="0.25"></line><line x1="0" y1="70.91728084307196" x2="290" y2="70.91728084307196" fill="rgb(0, 0, 0)" stroke="rgb(60, 60, 60)" stroke-width="1px" opacity="0.25"></line><line x1="0" y1="66.97882231876447" x2="290" y2="66.97882231876447" fill="rgb(0, 0, 0)" stroke="rgb(60, 60, 60)" stroke-width="1px" opacity="0.25"></line><line x1="0" y1="41.06843829272307" x2="290" y2="41.06843829272307" fill="rgb(0, 0, 0)" stroke="rgb(60, 60, 60)" stroke-width="1px" opacity="0.25"></line><line x1="0" y1="25.911835258204377" x2="290" y2="25.911835258204377" fill="rgb(0, 0, 0)" stroke="rgb(60, 60, 60)" stroke-width="1px" opacity="0.25"></line><line x1="0" y1="15.158054266681688" x2="290" y2="15.158054266681688" fill="rgb(0, 0, 0)" stroke="rgb(60, 60, 60)" stroke-width="1px" opacity="0.25"></line><line x1="0" y1="6.816773699378217" x2="290" y2="6.816773699378217" fill="rgb(0, 0, 0)" stroke="rgb(60, 60, 60)" stroke-width="1px" opacity="0.25"></line><line x1="0" y1="0.0014512321629922553" x2="290" y2="0.0014512321629922553" fill="rgb(0, 0, 0)" stroke="rgb(60, 60, 60)" stroke-width="1px" opacity="0.25"></line></g></g></g><g><g><line x1="24.166666666666664" y1="0" x2="24.166666666666664" y2="178" fill="rgb(0, 0, 0)" stroke="rgb(153, 153, 153)" stroke-width="1.5px"></line></g></g><g><g><g><g><g><path stroke="rgb(0, 153, 136)" stroke-width="2px" d="M24.256566666666668,129.0582544215093L24.40495,129.0582544215093L24.43491666666667,126.94139623649525L24.459083333333332,125.93182054700262L24.488566666666664,125.343233014505L24.874750000000002,129.34614170973768L25.020233333333334,132.45689193523552L25.0879,134.93939771472424L25.3083,131.0970001272009L25.34793333333333,128.32842405022944L25.394816666666667,126.24361261555387L25.768916666666666,127.66531143414943L26.376949999999997,129.41377286517707L26.70175,126.4016884833266L27.080683333333333,128.39195025871024L27.120800000000003,130.17545092056685L27.463483333333333,131.77610939540187L27.469283333333333,133.2143339735266L27.59785,134.50773477297764L27.838066666666666,135.67164946841734L27.999983333333333,136.71953875505196L28.0169,137.66328938554938L28.18896666666667,139.073635588106L28.208783333333336,140.36287397945713L28.34266666666667,141.54036437322966L28.71725,141.42486168052994L28.81778333333333,141.32271252586898L29.274533333333334,140.9457761577538L29.523933333333336,141.7559275322394L29.553416666666667,142.49257963479195L29.82698333333333,143.1618686225319L29.843416666666666,143.76949606071247L30.043033333333334,144.32075036553482L30.485766666666667,145.44270204064534L30.56165,146.4757350508708L31.178383333333336,144.88190502205492L31.35915,143.5099147822752L31.4128,142.32187599334583L31.462583333333335,143.28237326026837L31.752583333333334,144.16528631957976L32.06916666666667,144.07086169186758L32.432633333333335,144.28437575165842L32.548633333333335,144.4770917827616L32.65496666666667,144.65098849537458L32.7642,144.8078648713661L33.73328333333333,145.5610329932857L33.78596666666667,146.25094328192625L33.82995,146.8819831533937L33.994283333333335,147.4583873911755L34.08225,147.98421729154643L34.224833333333336,148.4633449837633L34.24368333333334,148.89944251641396L34.34663333333333,149.29597521906337L34.38191666666667,149.65619880458115L34.49066666666667,149.98315966518786L34.5216,150.2796978272218L34.606183333333334,150.5484520592727L35.10015,150.09310730133157L35.113683333333334,149.68817525100994L35.56608333333333,150.35861446182693L35.602333333333334,150.9722308664878L35.634233333333334,151.5330386756408L35.75168333333333,152.04490293911846L35.766666666666666,152.511521156198L35.986583333333336,152.56520219720292L36.051833333333335,152.61357027891665L36.07116666666666,152.6571463273048L36.288183333333336,141.56248360496804L36.38823333333333,133.79103003291502L36.54241666666667,127.95677216741979L37.297866666666664,129.6314209739292L37.68743333333333,131.20536776905644L38.35733333333334,132.6807468198277L38.3699,134.06015049330804L38.49895,135.3465781459115L38.77976666666667,135.36011788615778L38.86483333333334,135.37230698960386L39.08958333333334,135.38327988746948L39.16401666666666,136.0991760653817L39.20945,136.7553847788292L39.21621666666667,137.35595818374208L39.547783333333335,137.90482695796416L39.565666666666665,138.40577642070224L39.809266666666666,139.1190852359631L40.050450000000005,139.77289239230916L40.27858333333333,139.84238895372113L40.28245,139.90504498377197L40.34625,139.96152409770667L40.4173,140.01242735331033L40.511066666666665,140.05829880497677L40.691833333333335,140.36493528878813L40.697633333333336,140.64307131424533L40.71503333333333,140.89517224767172L40.74113333333334,141.12352328764285L40.75901666666667,141.3302365578768L40.776900000000005,141.51725915290743L40.836349999999996,141.68638182369182L40.99391666666667,141.83924804062798L41.072700000000005,141.97736321785672L41.11571666666667,141.27462514028082L41.54298333333333,140.65326528601398L41.7948,131.6238710241458L41.8354,125.02311219789084L42.144733333333335,120.40466952285001L42.15923333333333,116.68587596405015L42.251549999999995,113.62857336540729L42.421683333333334,111.07571613948555L42.56475,113.68682546143454L42.69766666666666,116.20369986147202L42.751799999999996,118.6235417929831L43.16988333333333,119.09047509122905L43.22788333333334,119.5157600492206L43.44828333333333,119.90269725873992L43.67641666666667,113.84169055329765L44.17908333333333,114.57506024919898L44.21436666666667,115.24762364351885L44.4454,115.86345327895438L44.86686666666667,118.29676896102299L45.03313333333333,120.47428526191646L45.60346666666666,122.71443062956041L45.63826666666667,124.85217437506886L45.6837,126.88659055378109L45.774566666666665,128.81731884386534L45.81323333333333,130.6445724811095L45.87461666666666,132.3691335641604L45.89926666666666,133.99233594859393L45.9302,135.05125376476627L46.17766666666667,136.03062482556027L46.2492,136.93454829305102L46.47685,126.67422516435687L46.5421,119.36285413578952L46.61508333333334,113.81844517877552L46.95728333333333,113.24230830433844L46.995466666666665,112.73126987995983L47.4353,113.55464435425407L47.64941666666667,114.31151374417075L47.75865,115.00605153321916L47.8703,115.91820492978981L48.403416666666665,117.90875703457411L48.4416,119.795642306433L48.78235,121.57931586199524L49.15596666666667,123.59927679377198L49.333349999999996,118.66706692433587L49.3783,114.72394380608202L49.65428333333333,111.49908827827255L50.09798333333333,110.93656747571835L50.20625,110.43743624082084L50.2222,109.99384639683592L50.311616666666666,109.83360183361832L50.318866666666665,109.6899667243772L50.49335,109.56116533195708L50.68378333333333,109.44562231943172L51.16905,106.33178532697022L51.6519,105.68374171317302L51.94963333333333,104.59515758287014L52.03856666666667,103.64182061707137L52.183083333333336,102.80412279179593L53.15458333333333,99.8399892410685L53.19325,98.73249965937673L53.206783333333334,96.8377022961808L53.448933333333336,95.21080639914692L53.911,95.6098234052263L53.9139,95.97261705223856L54.054066666666664,96.30216936018903L54.47408333333333,94.43591189577245L54.917300000000004,93.89236847728378L55.14108333333333,93.33411315459124L55.7264,90.5228174537924L55.820166666666665,88.1616223733529L56.169133333333335,87.49178676116044L56.347,86.89902863339678L56.54178333333333,86.37346584926826L56.76508333333334,83.21493253255818L57.38326666666667,79.31464334979955L57.47461666666666,76.1216432709086L57.496366666666674,73.46400846781702L57.74818333333334,72.6317804826137L58.68005,71.81311486356529L58.81055,71.0913388020134L58.93815,70.45344547686521L59.19866666666667,61.29844685892276L59.577600000000004,57.58484739741583L59.63463333333333,54.53143521774149L59.671366666666664,51.98158433594031L59.8357,49.82656838184559L60.11071666666667,50.30747994957481L60.341750000000005,50.745654620666684L60.366400000000006,51.14445193648329L60.37703333333334,51.50704379533205L60.39298333333333,51.83641110215706L60.40506666666666,52.135343562898214L60.63416666666667,50.50645119910247L60.840066666666665,49.09877113097929L61.04403333333333,49.66693034767434L62.68591666666667,49.10431682391237L63.14653333333334,47.70149535562058L63.27413333333333,46.48244805448752L63.5013,44.240229999401606L63.55785,42.331154317635L63.61391666666666,40.69256736179338L63.6173,39.276844817939576L64.4931,38.60273881014743L64.89909999999999,37.56119667468644L64.96918333333333,36.647993593385905L64.9948,35.844760780685675L65.01026666666667,35.13631862707268L65.64246666666666,34.369122247481585L65.67581666666666,33.69185548602539L65.91603333333333,34.24258217325993L65.92376666666667,34.74527031180878L66.00593333333333,35.20354300483535L66.02381666666666,35.620847666235335L66.20893333333333,36.0004469620018L66.37036666666667,34.60747459963295L67.61446666666666,31.108673247636716L67.99436666666666,30.696598221289804L68.76963333333333,31.584463114959476L68.86243333333334,32.401981679489694L69.09830000000001,32.15355228211931L69.85713333333334,31.006123463698998L70.31775,32.07478573499017L70.35883333333334,33.06342097076751L70.42795,33.97611540910137L70.75323333333334,33.25319236035304L70.88518333333333,32.61430364766008L71.22641666666667,32.83492315317267L71.48596666666667,33.03460016015819L71.74938333333333,30.738937702243874L72.00651666666667,28.786873318419822L72.01425,27.11313632737847L72.39028333333333,28.710298063376L72.66046666666666,28.47417314348712L73.30765,28.515895994001454L73.46425,28.553486417727015L73.60925,28.573967754327697L73.83786666666667,28.592410556942013L74.28881666666666,28.770073941929667L74.62183333333334,29.079583558789835L74.74170000000001,29.36035040825311L75.10758333333334,28.623791076201172L75.51213333333332,29.65623416397355L75.63199999999999,30.610460339169407L75.76395000000001,31.490599889265837L76.03606666666667,31.699610703564957L76.08585000000001,31.888724886896256L76.62525,31.303686057290918L76.73835,30.784867178233526L77.57983333333334,30.534921655366134L77.67166666666667,30.311390748584188L77.7809,30.111349451692348L78.01821666666666,30.64663731093478L78.29903333333333,31.13503904757428L79.00566666666667,29.507113775573117L79.45226666666667,30.234211133134238L79.58228333333334,30.900914795499574L79.6108,31.511287205589298L79.64946666666667,32.06927574164078L79.68571666666666,32.57868760080484L79.97523333333334,31.31926673014226L80.37785,31.515550454086082L80.38751666666667,31.693091371296447L81.01053333333334,30.322450843925765L81.02551666666668,29.13042594615439L81.05210000000001,28.089166600846653L81.06901666666667,27.176205065181705L81.07385000000001,26.373179888355423L81.44505000000001,26.79589551324449L81.65288333333334,27.180470300379056L81.9366,27.582085501368795L81.96463333333332,27.947265830310812L82.32616666666667,29.247226382232498L82.33970000000001,30.457143558643764L82.42138333333332,31.58059799089176L82.58619999999999,32.621410847085116L82.88055,32.334870154690634L82.88731666666666,32.07884817568808L83.11883333333334,31.84991811997338L83.42091666666667,30.82614530146637L84.28366666666668,29.8865288801006L84.7177,31.5838403456099L85.06328333333333,33.18024038239028L85.44318333333334,32.89360381893323L85.72786666666667,33.81947476647687L85.82163333333334,34.67283082273076L85.92941666666667,35.457870805407L86.35233333333333,36.08052221061661L86.68776666666666,34.61393772028498L86.79265000000001,33.341474644595024L87.36685,34.01517334440652L87.76705,31.509267198878405L88.21074999999999,28.098888155592306L88.32626666666665,24.70346543685895L88.58485,25.753847855523958L89.1576,24.765366531039177L89.35576666666667,23.897544839390974L89.36156666666666,23.13336634279017L89.76805,21.339556296343318L90.30406666666667,21.60548537591103L90.32243333333334,21.846449883893825L90.35723333333334,22.06465406248745L90.72601666666667,19.9080794569486L91.09915,21.72656305913847L91.19098333333334,23.44244716616069L91.24705,25.057111245623418L91.50659999999999,25.276219213835162L92.08853333333333,24.167579770376705L92.23546666666667,23.19716101580164L93.61151666666667,22.594826099780903L93.612,22.06090025053217L93.67918333333333,21.586801770619815L93.69368333333333,21.16519413291539L93.7135,20.789770633486626L94.09581666666668,20.61695136664926L94.42061666666666,21.08107472212484L94.62216666666666,21.503770583265407L94.62796666666667,21.888327194714265L94.98515,22.203977243634228L95.4477,21.881345475611653L95.90735,20.922250024226713L96.56613333333333,21.713860022945397L98.11425,22.169391074158113L98.31241666666668,22.345554628487804L98.542,22.50481478705757L99.30228333333334,23.573573009630508L99.38541666666667,24.562299487742195L99.42795000000001,25.475080329286044L99.47435,26.316085185407587L99.84313333333334,25.763125494453107L99.9137,25.272360291153774L101.36321666666666,24.21180300070739L101.38931666666666,23.282365859280077L101.45795000000001,22.465183741754515L101.97801666666666,23.06049504998424L102.23514999999999,23.41754149941991L102.42945,23.741825413862017L102.81176666666667,24.54918011639569L102.88281666666667,25.29101549728034L103.17233333333334,26.209370917917028L103.17861666666666,27.055634653531627L103.2197,27.834006783127677L103.41448333333332,28.54867452191931L103.88525,29.12221526488213L104.14576666666667,29.017954280118772L104.30865,28.924367382881087L104.66776666666667,28.8807879705476L104.67018333333333,28.84160989130126L104.8524,28.806384693504526L105.19411666666666,29.894380821830453L106.2241,30.042735314814877L106.49573333333333,30.386841525007924L106.56581666666666,30.699268938269512L106.58805000000001,30.98270380014725L107.03561666666667,29.04916636518604L107.05495,27.390569064163827L107.06945,25.95825832446667L107.07428333333334,24.714486357106864L107.11101666666667,23.629411631663714L107.53441666666667,24.350060709754075L107.64993333333334,25.010741449755415L107.76255,25.615505712257715L108.18159999999999,26.432687102544406L108.199,27.183743079385152L108.48416666666667,27.260707252230475L108.48465,27.330110754851404L108.86551666666666,28.03336898183207L108.93366666666667,28.67781606062951L109.07576666666667,29.2674732955538L109.15116666666667,29.806236525506648L109.52284999999999,29.125455356950255L109.58375000000001,28.523176009514543L109.852,28.949946858924875L109.88051666666667,29.338251414205814L109.93803333333334,29.691208061601372L111.34791666666668,30.431228575496675L111.53351666666666,31.11000897694953L112.03231666666666,31.44157282278192L112.48085,31.844600244346566L112.59443333333334,32.211077960187424L112.78728333333333,31.851145369200793L112.81531666666667,31.530142856469013L112.84866666666666,31.24357873099771L112.8506,30.9875359661346L113.35374999999999,30.772775396169095L113.47023333333333,30.580540196609462L113.56835,30.40836972769972L114.24356666666667,29.933582107953157L114.29431666666667,29.511368939892407L114.38083333333334,29.135411968244597L114.3876,28.800253562967583L114.405,28.501159007871394L114.42481666666667,28.23400488701361L114.47025,27.995187822780565L114.49393333333333,27.78154924905573L114.7269,28.70139343943299L115.31318333333333,29.30267063378102L115.43063333333333,29.852215567127672L116.17061666666666,30.22773027436537L116.78686666666665,31.64273621237598L117.20978333333333,30.30677811877962L117.4007,29.143924108928843L117.5689,29.997957594232588L117.57615,30.7836345910099L118.1344,31.130770202817132L118.32435000000001,31.445972601894255L118.33353333333334,31.73194526112306L118.36543333333333,31.991204653042303L118.57955,31.58251575260425L118.64673333333334,31.218477534193L118.74001666666668,30.893847032698574L118.88695,30.604070652890414L119.81881666666668,30.88212806714995L120.17261666666667,29.49423047821344L120.49886666666667,29.76376643096563L120.52303333333333,30.008021747392263L120.60616666666667,30.229224510719632L120.62405,30.42943239311043L120.74343333333333,30.610540906617416L121.05856666666666,31.50514273746478L121.0721,32.329008680088606L121.15765,33.08633960437214L121.58104999999999,32.43695784976566L121.67385,31.862005910858016L121.70478333333334,31.352003301777074L122.01701666666666,31.19908831044671L122.11658333333332,31.061997617187927L122.47038333333333,31.57153713609449L123.2036,32.53856631238739L123.9112,31.0262929045916L123.97596666666666,29.71565794052296L124.07408333333333,28.57413435025464L124.46993333333334,28.00814006096391L124.48105,27.50597046735649L124.9378,27.08542086948563L125.07651666666666,26.710929542122813L125.15481666666666,26.377065408070962L125.46366666666665,25.1886445880032L125.65361666666666,24.150441069772796L125.84163333333333,24.9612222680731L125.94264999999999,25.706272271358216L126.10263333333333,26.389754933906175L126.51781666666666,26.887642619460024L126.62946666666667,27.34148294608076L126.96006666666666,26.354456933106178L127.00356666666667,25.487881612681917L127.11231666666666,24.72477696361571L127.46805,23.299919176730384L128.01711666666665,22.174971666645035L128.31195,23.653092679939476L128.3308,25.035295739682084L128.33563333333333,26.324542926250814L128.87793333333335,25.338666229257058L129.27426666666668,25.828210732703496L129.33275,26.274350215358453L129.3719,26.680479674272732L129.43038333333334,27.04980751777333L129.79771666666667,23.898120489836202L129.88906666666665,19.248015411995908L130.42218333333332,18.45928528535768L130.66191666666666,19.517271939782034L130.9147,20.495758334516694L130.96448333333333,21.398844749052216L131.65226666666666,21.18407806243863L131.7499,20.991837417508833L131.8949,20.81966209531015L132.70351666666667,22.13406410683777L132.74798333333334,23.35788651822415L133.08245,23.864187743008785L133.30913333333334,24.325797202191097L133.32846666666666,24.746176389038425L133.69483333333335,25.29982072022986L134.27966666666669,23.66828655660001L134.59093333333334,23.933920608840737L135.07330000000002,24.545174161895545L135.07523333333333,25.103980923275685L135.10181666666668,25.61415053213682L135.2734,26.07933321850325L135.4909,26.338801083272358L135.70888333333335,26.573872080632214L136.2043,26.786707352811476L136.2304,26.979300743266634L136.25698333333332,27.153487295299556L136.2594,27.310952204579536L136.5465,26.91181823823507L136.56921666666668,26.55620554571226L136.57018333333335,26.23902117550753L136.67313333333334,25.95583830316366L136.72726666666668,25.702795068142706L137.0917,26.933183952158572L137.47208333333333,28.235033287582297L137.62336666666667,29.446768515941443L138.3619,29.78978689709291L138.47161666666668,30.10121794472292L138.69201666666666,30.38374169208052L138.70555000000002,30.63985173457249L138.96026666666666,32.2338350852267L138.98443333333333,33.72895151483394L139.30005,34.49529273506985L139.33581666666666,35.19869493544249L139.46583333333334,35.843276347689425L139.48806666666667,36.433058541215416L140.4383,34.041309491576015L140.44168333333334,32.012234739018794L140.47213333333335,30.275712927382614L140.9516,28.698324275994366L141.26141666666666,29.258958880368425L141.31168333333332,29.770821350415133L142.53934999999998,27.09963314023736L144.26968333333332,27.599678210584983L144.78153333333333,26.353041169408243L144.83131666666668,25.26554379336264L144.93716666666668,24.31313292084161L145.45626666666666,25.71326673419142L145.67231666666666,26.764030101207453L145.69648333333333,27.735652839059867L145.8666166666667,28.63224422877829L146.6008,30.996226582458945L146.91496666666666,33.25969213585685L146.9169,35.4210481433208L147.21318333333335,35.78627906111461L147.22671666666668,36.11806606100936L147.40796666666665,36.419213295667674L147.4094166666667,36.69233585005759L147.83426666666665,34.920157065543805L147.86085,33.393996262345695L148.6390166666667,34.249720928357135L148.82461666666669,35.03698830893708L148.98556666666667,35.614329933718494L149.19001666666665,36.141673043172744L149.24753333333334,36.62272748863404L149.55058333333332,38.394173953757274L149.67721666666665,40.06358482657296L150.56751666666665,40.49268893105878L151.0523,38.31397653944359L151.56028333333333,35.65524701746719L152.40998333333332,34.245634815780335L152.68016666666665,33.02089078670028L153.17993333333334,32.11336206068344L153.40613333333334,30.29246649561364L153.41241666666664,28.726211203793554L153.56321666666668,27.37058595617094L153.65311666666665,26.191184074375656L154.12533333333332,23.547283711712765L154.5178,24.525995600635355L154.61591666666666,25.429295437941505L155.3762,24.805941144538565L155.59611666666666,24.253673894824004L156.57873333333333,25.104903348836274L156.8571333333333,22.452084086393L157.2902,23.877074746768955L157.39556666666667,25.207730173874666L157.4124833333333,26.44721511654717L157.74259999999998,27.755771219994784L157.77256666666668,28.973963516881582L157.79915,30.105346984608303L158.18630000000002,31.082111534199242L158.4874166666667,31.9835683620299L158.52125,32.8138951969014L158.63241666666667,33.53143253460789L159.39173333333335,34.65860397336735L159.63823333333332,34.273431302104086L159.71846666666667,33.93013694818558L159.88908333333333,33.62384470859149L159.90019999999998,33.35031121908767L160.75618333333333,33.1965681758098L160.88958333333335,33.05873801066841L160.9239,32.93512388873222L161.27866666666668,31.71645783898228L161.62763333333334,31.569056056986653L161.6837,31.436889593422023L161.89298333333335,31.31833800241364L162.31251666666665,32.31944179692613L162.35891666666666,33.2439473173261L163.47928333333334,33.58765689104945L164.27533333333332,32.15150819527767L164.5614666666667,32.445365260312485L165.20236666666665,31.97188918047445L165.24973333333335,31.55082844855241L165.25553333333332,31.175886787066332L165.49333333333334,31.256202830281666L166.0685,29.63901395599362L166.51606666666666,28.267580140350987L166.51703333333333,27.0748886020657L166.61563333333334,26.033064084951036L166.93221666666665,26.7273709990329L166.93366666666665,27.363468076437783L167.1332833333333,27.945359739995467L167.45325,26.806602019977788L167.52768333333333,25.81056238282011L167.5900333333333,24.936268980281938L167.87326666666667,25.9817735763464L168.0211666666667,26.92278853231562L168.08303333333333,27.790444247148855L168.52866666666665,27.978225076387417L169.27541666666667,28.963808069230566L169.33051666666665,29.87361238031687L169.3392166666667,30.71180989693309L169.45666666666668,31.48260154414055L170.09031666666667,31.21547236601512L170.09128333333334,30.976677448449067L170.09756666666667,30.763058566933523L170.26625,31.631187757088924L170.35180000000003,32.4301246027093L170.41366666666667,33.16406505937101L170.77761666666666,33.37790620759276L170.99946666666668,33.57141478211997L171.06810000000002,33.74643314083502L171.3262,31.717035091193964L171.37163333333334,29.98025019719657L172.26531666666665,30.69648340757604L172.34651666666667,31.353040729062172L173.01835,31.488201529522655L173.26823333333334,31.465424842280783L173.41806666666668,31.444937682868897L173.51425,31.42650883471086L173.90768333333332,30.96511520264744L174.36781666666664,31.904930938349537L175.2958166666667,32.99668167799118L175.34318333333334,34.00728545935789L175.65348333333336,34.53057702230544L175.78736666666668,35.007885761403884L176.62933333333334,34.96345405729801L177.3727,35.370169528281366L178.04308333333336,33.874882546006546L178.20548333333332,32.57842929435546L178.74633333333333,32.8774310933305L179.17988333333332,31.68073153060081L179.2412666666667,30.635509439115225L179.27026666666669,29.719163425346636L179.68738333333334,29.7875009255564L179.75650000000002,29.849111674237093L180.10788333333332,30.788503096657934L180.14606666666668,31.65462525848031L180.64293333333336,29.746709288517394L180.93196666666668,30.020374746523487L180.94163333333333,30.268398451723726L181.03733333333332,30.4930355907361L181.4414,31.28155479611047L181.59896666666666,32.00572954387951L181.65890000000002,32.669703135773744L181.93826666666666,33.38390310990977L181.98708333333335,34.03856216674174L181.99336666666667,34.637721179552955L182.11758333333333,35.18530025394651L182.49071666666669,30.453208415264925L182.60961666666665,26.652779066610265L182.9059,27.398760918633315L182.9440833333333,28.083114936471276L183.02045,28.709932247171054L183.13596666666666,29.283197576289695L183.8174666666667,29.38051461805557L183.87933333333334,29.468317101863846L183.96585,29.547516056854533L184.00886666666668,29.61893886917852L184.48301666666666,29.669555791816833L184.51104999999998,29.71516969791722L184.96586666666667,27.85808704514244L185.45451666666665,27.96034842640225L185.5584333333333,28.052623470846584L186.43665000000001,26.455092497348687L186.50673333333333,25.07345548917027L186.70586666666668,25.524588992800943L186.73293333333334,25.93531731354426L186.81123333333332,26.308871390600217L187.00021666666666,26.648291850710024L187.31486666666666,23.55396714685162L187.32018333333335,20.852546540716475L187.74938333333336,21.605335538624047L187.88326666666666,22.29605607357047L187.8939,22.928808773859572L187.97896666666668,23.50759107744244L188.27621666666664,23.788234016802676L188.48018333333334,24.042626847020557L189.63486666666668,24.57241059653154L189.72525,25.05572182195658L189.7325,25.49611008065935L189.76681666666667,25.896944851412428L189.89006666666666,26.261408250571918L189.8949,26.592491496379466L190.19891666666666,27.904300251942743L190.65953333333331,27.608821882743968L190.78761666666665,27.34487369267012L191.23711666666668,28.73929958752956L191.38791666666665,30.040366063294215L191.74026666666666,27.545998509854883L191.78521666666666,25.435070689401442L192.09165,26.671388719955075L192.18106666666668,27.820151877234252L192.27918333333335,28.885116272745904L192.34974999999997,29.870235460061934L192.69678333333334,30.609668646949615L193.02496666666667,31.57676430208585L193.02786666666665,32.46907301893748L193.10375,33.29077819599999L193.10471666666666,34.046080520568125L193.14773333333332,34.739152260941125L193.62913333333333,35.21394624525476L193.64315,35.64647892869888L194.07815,33.850821800792346L194.70261666666667,34.138477098428496L194.96845000000002,33.24456708306994L195.09798333333333,32.45792671806652L195.19029999999998,31.763831854324764L195.25458333333333,31.149978338639357L195.57068333333333,30.81851407469631L195.97813333333332,29.921421343071273L196.1091166666667,29.132042676980973L196.42956666666666,29.3805627528985L196.51995,29.605652315879723L197.05983333333333,29.588777126254115L198.14298333333335,29.614846614427734L198.14443333333332,29.63832470862326L198.4441,25.690468299643186L198.6239,21.552935785391554L199.30298333333334,22.34982486280839L199.79791666666668,22.090115258443745L200.7206,22.751702475671152L200.7844,23.357310678363604L200.86608333333334,23.910875837399033L201.20876666666666,24.27280849043811L201.21311666666668,24.601571437769707L201.22278333333333,24.899950764075243L201.4108,25.17054381441551L201.92409999999998,21.05679254199984L202.00385,17.70566973643227L202.34411666666668,17.254675945068556L202.6404,18.635835275594275L202.76558333333332,19.92407354465061L202.84581666666668,21.122711446874206L203.17013333333335,23.335534266814307L203.37361666666666,25.445654188655794L204.16434999999998,25.925756892854707L204.58388333333332,26.275008203870215L204.86566666666667,26.59214887666272L205.27021666666664,27.98291810398686L205.66316666666668,29.926863098452742L205.67428333333334,31.76727535480768L205.9865166666667,32.92918779320556L206.19531666666666,34.00671287089503L206.1991833333333,35.0037778850982L206.31663333333336,35.92445675311447L207.14216666666667,36.789577955958606L207.22771666666665,37.585684369291016L207.24560000000002,38.31697099915041L207.437,40.02726065444256L207.49113333333335,41.63642134395164L207.72796666666665,43.14638010287703L207.77098333333333,44.559541754553265L207.79128333333333,45.87874017877073L208.2867,45.47387436576267L209.63133333333334,42.61605010309398L209.75603333333333,40.218431179699394L210.1978,42.06472408070937L210.38001666666668,41.906505576133924L210.49166666666667,41.650602843740444L211.13788333333335,42.435396642100216L211.31526666666664,42.23853042788855L212.06878333333333,41.13336607150697L212.37618333333336,38.71656301489048L212.41195,36.66746678171381L212.4312833333333,34.914660312219326L213.00403333333333,36.15230881102411L213.01611666666665,37.3023483257945L213.0460833333333,38.36853156690114L213.46078333333332,40.34984685874065L213.614,42.22751283817669L213.73145,42.476921005291615L214.3883,42.449843776253175L214.44581666666664,42.425491028522856L214.52315000000002,42.40358711213145L214.54006666666666,42.38388455528789L214.70101666666667,44.149594498275064L214.81411666666668,45.81334556853815L214.97699999999998,47.37678843521937L215.35206666666667,47.24299698187593L215.38251666666667,47.122992736172904L215.75323333333333,46.55794525086594L216.25976666666665,48.34662665336137L216.3835,50.03305235081828L216.53188333333333,51.61875585659838L216.9209666666667,53.209087205509476L217.19260000000003,54.166167569776604L217.62421666666668,54.00421876037845L218.08531666666667,52.71872594617898L218.56381666666667,52.960602872636684L218.70253333333332,53.17963839641796L218.91713333333334,53.37787375897712L219.05101666666664,53.89809628395186L219.07905000000002,54.37256817836068L219.40771666666666,54.80480386111516L219.41593333333333,55.198135892643734L219.60975000000002,52.23763245045012L219.62328333333335,49.75991863356205L219.70158333333333,47.66224713582176L219.79245,45.86999716861084L220.67163333333335,45.00640519192177L221.04911666666666,43.66037166957801L221.24824999999998,42.489038227832054L221.32945,41.465330176868605L221.74173333333334,40.09093611308833L222.08296666666666,38.26622733196106L222.11003333333335,36.69683773530238L222.16513333333333,35.338603910936115L222.18495000000001,34.157008386005685L222.44063333333335,35.01529313211492L222.67698333333334,35.804968273846185L222.69776666666667,36.53022635993074L222.99598333333336,35.77343366153147L223.19898333333333,35.10517763831558L223.63205,34.232536951750234L224.03853333333333,34.1879206478834L224.57503333333332,34.67964831597152L224.57938333333334,35.12780256305615L224.72438333333332,35.535787223225725L225.05836666666667,34.626607477585765L225.3619,35.063566907882574L225.49868333333333,35.46124577712331L225.65528333333336,35.82281035056252L226.04436666666666,34.70478843288885L226.07916666666665,33.726384139107836L226.3686833333333,32.404804785654676L226.42136666666667,31.254059146471945L226.57313333333335,30.247832301549323L226.5915,29.36482007141521L226.64708333333334,28.587559077239206L226.65143333333333,27.90157969856432L226.68043333333333,27.294780406305875L226.79015,28.465011241484717L226.99701666666667,29.550486824013205L227.53061666666667,31.993256000381592L227.85444999999999,33.856328978335114L227.89311666666666,35.61637543591331L227.9129333333333,37.27454045588067L228.20003333333335,39.079792362468766L228.57558333333333,40.782591646535394L228.8264333333333,42.037519261319574L229.00671666666668,43.20414323073467L229.02556666666666,44.286171040933255L229.76458333333332,46.155384495515335L229.90813333333332,47.92152084356468L230.67518333333334,49.93945977259801L230.9192666666667,51.8537074071274L230.91975,53.6645679073813L231.23826666666668,53.37214609628592L231.26098333333334,53.11090815512698L231.47606666666667,52.87734485196789L231.594,54.684600388351285L231.75688333333332,56.389380470023156L231.78830000000002,57.99312286264862L231.89415,59.49778155465796L232.26776666666666,59.07653381590886L232.69841666666665,56.18211047736848L232.78831666666667,53.7558975122661L232.84873333333334,51.69928774538745L232.86178333333334,49.940374153035265L232.93476666666666,48.425147275555446L233.04883333333333,49.77521406464308L233.27213333333333,51.033422214706036L233.31369999999998,52.203196531613955L233.6153,51.5661440500825L233.64816666666667,51.0019342199747L233.85986666666665,50.50132546678671L234.12086666666667,49.32671627443693L234.28664999999998,48.30022840841758L234.28955000000002,47.39988867156018L234.30114999999998,46.60771683925569L234.30356666666668,45.90883766265216L234.33014999999997,45.290826819493105L234.7695,47.259324992280824L234.95558333333332,48.4805919415499L235.32146666666668,49.6149223484266L235.32581666666667,50.666109983830765L235.34225,51.6381357952492L235.56748333333334,51.18805545799381L236.08851666666666,51.03075655778841L236.71394999999998,49.179410135697765L236.72748333333334,47.588141744477014L236.80191666666667,46.211710089891426L237.1939,46.584406863216515L237.97158333333334,46.705083751058766L238.60088333333331,44.9021485131108L238.62311666666668,43.350663699542736L238.6294,42.00733682174595L239.41626666666667,42.93957300572907L239.45686666666666,43.7989380343698L239.57431666666665,44.589629280284726L240.16978333333333,45.84302597262743L240.18428333333333,47.008179959600454L240.3665,46.585899478164464L240.52358333333333,46.20988320443976L240.6362,45.874672433097885L240.69081666666665,45.5755315415208L241.4975,46.133859656464864L241.73965,46.861183823927746L242.35155,46.36881065582139L242.38055,45.931152588308606L242.5241,45.54159415362648L242.84116666666668,43.56092240693954L243.04899999999998,41.86383505966202L243.54345,42.41757188777319L243.66670000000002,44.94063743146697L244.5512,45.155175200738285L244.85183333333336,46.326045346211885L244.8847,47.41213210790889L244.88711666666666,48.41734419509669L245.2249666666667,49.25256712429896L245.81173333333334,49.05936467576021L247.17135000000002,50.583008270204076L247.20228333333333,52.00949286427263L247.82723333333334,52.54554889126037L247.90408333333335,53.03466118750997L247.94226666666668,53.48040182845786L247.99543333333332,55.253980972103435L248.182,56.92549644129758L248.29075,58.49655893387853L248.3763,59.969283012549425L248.42415,61.34624331861704L248.61458333333334,62.00347063783914L248.70593333333332,62.60502008993703L248.81178333333335,63.15481771802331L249.12256666666667,63.486026027058244L249.17863333333332,63.78664355412073L249.33571666666666,64.05928199772664L249.51358333333334,64.02898713667977L249.55563333333333,64.00174273796075L249.98531666666668,62.060907334450164L250.02543333333332,60.39634471554905L250.23326666666668,58.959091982080395L250.47203333333334,59.534463251617865L250.62331666666665,60.059979946558784L251.03511666666665,61.56004919794614L251.03946666666667,62.963588857420234L251.21878333333333,64.27347314936914L251.2734,65.49294445478719L251.5083,61.479285335755876L251.59095,58.20211042156653L251.60448333333335,55.47982288051787L251.91768333333334,57.051924403693064L252.18351666666666,58.52566296789395L252.59676666666667,58.74619013872811L252.6997166666667,58.945783105069566L253.57503333333335,56.7209555371047L253.83603333333332,56.595484512783656L254.01583333333335,56.482919551270655L254.38751666666667,55.767598928170486L254.53058333333334,55.135308871512464L254.53686666666667,54.575250168352L254.9883,55.31620678140679L255.1275,55.99586228488273L255.18888333333334,56.61830050746862L255.31793333333334,54.60358314580573L255.51706666666666,52.87874879509336L256.2846,53.86104960775873L256.64855,54.767746579736354L256.7921,55.6305969475453L256.97045,56.424566861170376L257.2793,55.33087348262765L257.37403333333333,54.373183174102806L257.4736,53.53175102989593L257.61473333333333,52.79032346241577L257.8211166666667,52.71789310395823L258.21455000000003,52.47488654205853L258.44558333333333,52.257523178244256L258.51615,52.06297098326421L258.52775,51.888735569203234L258.6954666666667,50.630290697728185L258.7384833333333,49.532812465833786L259.00624999999997,48.57189798959152L259.24308333333335,48.086780276352954L259.8680333333333,46.47070475672649L260.17736666666667,46.04312093488022L260.2228,45.66243312880752L260.3958333333333,45.32309770226209L260.49008333333336,45.02030746482316L260.6636,46.84961703367725L261.2987,43.94075725327784L261.7946,38.57654154876096L261.81393333333335,34.32978777916804L262.0701,35.85094927210076L262.2035,37.27501668870494L262.30451666666664,38.604777649951785L262.60176666666666,39.35819239414428L262.72743333333335,40.04949828323052L262.73275,40.68279679673634L263.19820000000004,37.61344799649038L263.2334833333333,35.051255409780396L263.38428333333337,32.88644844652043L263.56166666666667,32.79551525323379L263.8439333333333,32.71386408186493L264.0561166666667,33.577062234750684L264.2325333333333,34.371359343266136L264.306,35.100949764280955L264.52881666666667,34.43171696980701L264.6482,33.839483364864776L265.27411666666666,27.802550943576392L265.34516666666667,23.094660355852938L265.6168,20.543083307047283L265.6255,18.20375764820062L265.74875000000003,15.653710532966727L265.80385,13.498538854551555L265.8333333333333,11.659718098126262" style="fill: none;" fill="none"></path></g></g></g></g><g opacity="0.2"><g><g><g><path stroke="rgb(0, 153, 136)" stroke-width="2px" d="M24.256566666666668,129.0582544215093L24.40495,129.0582544215093L24.43491666666667,123.57810183285598L24.459083333333332,123.57810183285598L24.488566666666664,123.57810183285598L24.874750000000002,149.48848585889738L25.020233333333334,149.48848585889738L25.0879,149.48848585889738L25.3083,115.92272642793952L25.34793333333333,115.92272642793952L25.394816666666667,115.92272642793952L25.768916666666666,137.89465192967342L26.376949999999997,143.24387344736766L26.70175,110.75855866709841L27.080683333333333,146.23593249697686L27.120800000000003,146.23593249697686L27.463483333333333,146.23593249697686L27.469283333333333,146.23593249697686L27.59785,146.23593249697686L27.838066666666666,146.23593249697686L27.999983333333333,146.23593249697686L28.0169,146.23593249697686L28.18896666666667,153.05125496419208L28.208783333333336,153.05125496419208L28.34266666666667,153.05125496419208L28.71725,140.4736594556683L28.81778333333333,140.4736594556683L29.274533333333334,137.89465192967342L29.523933333333336,149.48848585889738L29.553416666666667,149.48848585889738L29.82698333333333,149.48848585889738L29.843416666666666,149.48848585889738L30.043033333333334,149.48848585889738L30.485766666666667,156.9897134884996L30.56165,156.9897134884996L31.178383333333336,133.21595570064918L31.35915,133.21595570064918L31.4128,133.21595570064918L31.462583333333335,153.05125496419208L31.752583333333334,153.05125496419208L32.06916666666667,143.24387344736766L32.432633333333335,146.23593249697686L32.548633333333335,146.23593249697686L32.65496666666667,146.23593249697686L32.7642,146.23593249697686L33.73328333333333,153.05125496419208L33.78596666666667,153.05125496419208L33.82995,153.05125496419208L33.994283333333335,153.05125496419208L34.08225,153.05125496419208L34.224833333333336,153.05125496419208L34.24368333333334,153.05125496419208L34.34663333333333,153.05125496419208L34.38191666666667,153.05125496419208L34.49066666666667,153.05125496419208L34.5216,153.05125496419208L34.606183333333334,153.05125496419208L35.10015,146.23593249697686L35.113683333333334,146.23593249697686L35.56608333333333,156.9897134884996L35.602333333333334,156.9897134884996L35.634233333333334,156.9897134884996L35.75168333333333,156.9897134884996L35.766666666666666,156.9897134884996L35.986583333333336,153.05125496419208L36.051833333333335,153.05125496419208L36.07116666666666,153.05125496419208L36.288183333333336,96.82766486911335L36.38823333333333,96.82766486911335L36.54241666666667,96.82766486911335L37.297866666666664,149.48848585889738L37.68743333333333,149.48848585889738L38.35733333333334,149.48848585889738L38.3699,149.48848585889738L38.49895,149.48848585889738L38.77976666666667,135.48215150545414L38.86483333333334,135.48215150545414L39.08958333333334,135.48215150545414L39.16401666666666,143.24387344736766L39.20945,143.24387344736766L39.21621666666667,143.24387344736766L39.547783333333335,143.24387344736766L39.565666666666665,143.24387344736766L39.809266666666666,146.23593249697686L40.050450000000005,146.23593249697686L40.27858333333333,140.4736594556683L40.28245,140.4736594556683L40.34625,140.4736594556683L40.4173,140.4736594556683L40.511066666666665,140.4736594556683L40.691833333333335,143.24387344736766L40.697633333333336,143.24387344736766L40.71503333333333,143.24387344736766L40.74113333333334,143.24387344736766L40.75901666666667,143.24387344736766L40.776900000000005,143.24387344736766L40.836349999999996,143.24387344736766L40.99391666666667,143.24387344736766L41.072700000000005,143.24387344736766L41.11571666666667,135.48215150545414L41.54298333333333,135.48215150545414L41.7948,91.42310539528486L41.8354,91.42310539528486L42.144733333333335,93.64439935379967L42.15923333333333,93.64439935379967L42.251549999999995,93.64439935379967L42.421683333333334,93.64439935379967L42.56475,153.05125496419208L42.69766666666666,153.05125496419208L42.751799999999996,153.05125496419208L43.16988333333333,123.57810183285598L43.22788333333334,123.57810183285598L43.44828333333333,123.57810183285598L43.67641666666667,81.9489871486403L44.17908333333333,121.91646016259153L44.21436666666667,121.91646016259153L44.4454,121.91646016259153L44.86686666666667,153.05125496419208L45.03313333333333,149.48848585889738L45.60346666666666,153.05125496419208L45.63826666666667,153.05125496419208L45.6837,153.05125496419208L45.774566666666665,153.05125496419208L45.81323333333333,153.05125496419208L45.87461666666666,153.05125496419208L45.89926666666666,153.05125496419208L45.9302,146.23593249697686L46.17766666666667,146.23593249697686L46.2492,146.23593249697686L46.47685,83.66138345337137L46.5421,83.66138345337137L46.61508333333334,83.66138345337137L46.95728333333333,108.42149879833731L46.995466666666665,108.42149879833731L47.4353,121.91646016259153L47.64941666666667,121.91646016259153L47.75865,121.91646016259153L47.8703,125.31705642114963L48.403416666666665,143.24387344736766L48.4416,143.24387344736766L48.78235,143.24387344736766L49.15596666666667,149.48848585889738L49.333349999999996,90.71106896126965L49.3783,90.71106896126965L49.65428333333333,90.71106896126965L50.09798333333333,106.22199486232346L50.20625,106.22199486232346L50.2222,106.22199486232346L50.311616666666666,108.42149879833731L50.318866666666665,108.42149879833731L50.49335,108.42149879833731L50.68378333333333,108.42149879833731L51.16905,86.07388387759063L51.6519,100.30745773047728L51.94963333333333,96.00607613655015L52.03856666666667,96.00607613655015L52.183083333333336,96.00607613655015L53.15458333333333,80.31161083628206L53.19325,90.01234240189814L53.206783333333334,83.08182482798141L53.448933333333336,83.08182482798141L53.911,99.40667239510825L53.9139,99.40667239510825L54.054066666666664,99.40667239510825L54.47408333333333,80.84947310203145L54.917300000000004,89.32643723951114L55.14108333333333,88.65289140358553L55.7264,71.7573337807732L55.820166666666665,71.7573337807732L56.169133333333335,81.9489871486403L56.347,81.9489871486403L56.54178333333333,81.9489871486403L56.76508333333334,62.74250737754413L57.38326666666667,55.484803622524964L57.47461666666666,55.484803622524964L57.496366666666674,55.484803622524964L57.74818333333334,65.87389115997432L58.68005,65.15500780176339L58.81055,65.15500780176339L58.93815,65.15500780176339L59.19866666666667,20.795931910190887L59.577600000000004,34.565927546697736L59.63463333333333,34.565927546697736L59.671366666666664,34.565927546697736L59.8357,34.565927546697736L60.11071666666667,54.93908907599008L60.341750000000005,54.93908907599008L60.366400000000006,54.93908907599008L60.37703333333334,54.93908907599008L60.39298333333333,54.93908907599008L60.40506666666666,54.93908907599008L60.63416666666667,38.36503536892883L60.840066666666665,38.36503536892883L61.04403333333333,55.21095051094997L62.68591666666667,44.38901857522299L63.14653333333334,36.99937545397677L63.27413333333333,36.99937545397677L63.5013,28.49084278419926L63.55785,28.49084278419926L63.61391666666666,28.49084278419926L63.6173,28.49084278419926L64.4931,33.02740658897426L64.89909999999999,29.300566484908558L64.96918333333333,29.300566484908558L64.9948,29.300566484908558L65.01026666666667,29.300566484908558L65.64246666666666,28.092464776982155L65.67581666666666,28.092464776982155L65.91603333333333,39.602337343202066L65.92376666666667,39.602337343202066L66.00593333333333,39.602337343202066L66.02381666666666,39.602337343202066L66.20893333333333,39.602337343202066L66.37036666666667,23.96953955630164L67.61446666666666,9.050275620947929L67.99436666666666,27.179101789225967L68.76963333333333,40.696487138880855L68.86243333333334,40.696487138880855L69.09830000000001,29.98899814403822L69.85713333333334,22.010776219299657L70.31775,43.38138930380106L70.35883333333334,43.38138930380106L70.42795,43.38138930380106L70.75323333333334,27.308223791678586L70.88518333333333,27.308223791678586L71.22641666666667,34.88137906044847L71.48596666666667,34.88137906044847L71.74938333333333,14.69369074799323L72.00651666666667,14.69369074799323L72.01425,14.69369074799323L72.39028333333333,47.36405928511556L72.66046666666666,26.413598262295636L73.30765,28.893512199000327L73.46425,28.893512199000327L73.60925,28.758806530553187L73.83786666666667,28.758806530553187L74.28881666666666,30.408226267557865L74.62183333333334,31.986920020702854L74.74170000000001,31.986920020702854L75.10758333333334,22.576305652353113L75.51213333333332,40.51189030674357L75.63199999999999,40.51189030674357L75.76395000000001,40.51189030674357L76.03606666666667,33.635237583700274L76.08585000000001,33.635237583700274L76.62525,26.413598262295636L76.73835,26.413598262295636L77.57983333333334,28.35757782115678L77.67166666666667,28.35757782115678L77.7809,28.35757782115678L78.01821666666666,35.84402751716391L78.29903333333333,35.84402751716391L79.00566666666667,17.371720272401518L79.45226666666667,37.50566918742837L79.58228333333334,37.50566918742837L79.6108,37.50566918742837L79.64946666666667,37.50566918742837L79.68571666666666,37.50566918742837L79.97523333333334,21.564433214302483L80.37785,33.33008664387583L80.38751666666667,33.33008664387583L81.01053333333334,19.830520884402148L81.02551666666668,19.830520884402148L81.05210000000001,19.830520884402148L81.06901666666667,19.830520884402148L81.07385000000001,19.830520884402148L81.44505000000001,30.832209442819618L81.65288333333334,30.832209442819618L81.9366,31.405106212509764L81.96463333333332,31.405106212509764L82.32616666666667,43.580753949926816L82.33970000000001,43.580753949926816L82.42138333333332,43.580753949926816L82.58619999999999,43.580753949926816L82.88055,29.850293782511898L82.88731666666666,29.850293782511898L83.11883333333334,29.850293782511898L83.42091666666667,22.69044553505583L84.28366666666668,22.34906615290967L84.7177,51.82221928424579L85.06328333333333,51.82221928424579L85.44318333333334,30.408226267557865L85.72786666666667,43.38138930380106L85.82163333333334,43.38138930380106L85.92941666666667,43.38138930380106L86.35233333333333,42.20702730410753L86.68776666666666,23.49933483398513L86.79265000000001,23.49933483398513L87.36685,40.696487138880855L87.76705,14.32630909266436L88.21074999999999,6.444822545536027L88.32626666666665,3.118321023907299L88.58485,36.83212335150273L89.1576,16.879212719175285L89.35576666666667,16.879212719175285L89.36156666666666,16.879212719175285L89.76805,8.187302126292224L90.30406666666667,24.08802074120331L90.32243333333334,24.08802074120331L90.35723333333334,24.08802074120331L90.72601666666667,4.638636315842007L91.09915,43.98270172103358L91.19098333333334,43.98270172103358L91.24705,43.98270172103358L91.50659999999999,27.308223791678586L92.08853333333333,15.439466756674761L92.23546666666667,15.439466756674761L93.61151666666667,17.570554690900934L93.612,17.570554690900934L93.67918333333333,17.570554690900934L93.69368333333333,17.570554690900934L93.7135,17.570554690900934L94.09581666666668,19.096512790989152L94.42061666666666,25.539884104362187L94.62216666666666,25.539884104362187L94.62796666666667,25.539884104362187L94.98515,25.17159755348763L95.4477,19.096512790989152L95.90735,13.245343673202484L96.56613333333333,29.712102192438607L98.11425,26.540098493145024L98.31241666666668,23.96953955630164L98.542,23.96953955630164L99.30228333333334,34.88137906044847L99.38541666666667,34.88137906044847L99.42795000000001,34.88137906044847L99.47435,34.88137906044847L99.84313333333334,21.123356916376054L99.9137,21.123356916376054L101.36321666666666,15.818009561631584L101.38931666666666,15.818009561631584L101.45795000000001,15.818009561631584L101.97801666666666,28.893512199000327L102.23514999999999,26.794390511504304L102.42945,26.794390511504304L102.81176666666667,32.7271577254196L102.88281666666667,32.7271577254196L103.17233333333334,35.6818546704273L103.17861666666666,35.6818546704273L103.2197,35.6818546704273L103.41448333333332,35.6818546704273L103.88525,34.723320547824386L104.14576666666667,28.092464776982155L104.30865,28.092464776982155L104.66776666666667,28.49084278419926L104.67018333333333,28.49084278419926L104.8524,28.49084278419926L105.19411666666666,41.44412771173586L106.2241,31.405106212509764L106.49573333333333,33.635237583700274L106.56581666666666,33.635237583700274L106.58805000000001,33.635237583700274L107.03561666666667,15.064718930945133L107.05495,15.064718930945133L107.06945,15.064718930945133L107.07428333333334,15.064718930945133L107.11101666666667,15.064718930945133L107.53441666666667,31.549712901713605L107.64993333333334,31.549712901713605L107.76255,31.549712901713605L108.18159999999999,34.723320547824386L108.199,34.723320547824386L108.48416666666667,27.96061002812877L108.48465,27.96061002812877L108.86551666666666,35.040108736497615L108.93366666666667,35.040108736497615L109.07576666666667,35.040108736497615L109.15116666666667,35.040108736497615L109.52284999999999,23.49933483398513L109.58375000000001,23.49933483398513L109.852,33.02740658897426L109.88051666666667,33.02740658897426L109.93803333333334,33.02740658897426L111.34791666666668,37.8470485695745L111.53351666666666,37.8470485695745L112.03231666666666,34.565927546697736L112.48085,35.6818546704273L112.59443333333334,35.6818546704273L112.78728333333333,28.758806530553187L112.81531666666667,28.758806530553187L112.84866666666666,28.758806530553187L112.8506,28.758806530553187L113.35374999999999,28.893512199000327L113.47023333333333,28.893512199000327L113.56835,28.893512199000327L114.24356666666667,25.911835258204377L114.29431666666667,25.911835258204377L114.38083333333334,25.911835258204377L114.3876,25.911835258204377L114.405,25.911835258204377L114.42481666666667,25.911835258204377L114.47025,25.911835258204377L114.49393333333333,25.911835258204377L114.7269,38.19157434981534L115.31318333333333,35.199515300206144L115.43063333333333,35.199515300206144L116.17061666666666,33.78875230681939L116.78686666666665,47.58590434302545L117.20978333333333,20.042912265687477L117.4007,20.042912265687477L117.5689,38.71439101965149L117.57615,38.71439101965149L118.1344,34.40919447623469L118.32435000000001,34.40919447623469L118.33353333333334,34.40919447623469L118.36543333333333,34.40919447623469L118.57955,28.092464776982155L118.64673333333334,28.092464776982155L118.74001666666668,28.092464776982155L118.88695,28.092464776982155L119.81881666666668,33.482350734413444L120.17261666666667,18.88941651312541L120.49886666666667,32.2812584118692L120.52303333333333,32.2812584118692L120.60616666666667,32.2812584118692L120.62405,32.2812584118692L120.74343333333333,32.2812584118692L121.05856666666666,40.696487138880855L121.0721,40.696487138880855L121.15765,40.696487138880855L121.58104999999999,27.05042426958886L121.67385,27.05042426958886L121.70478333333334,27.05042426958886L122.01701666666666,29.850293782511898L122.11658333333332,29.850293782511898L122.47038333333333,36.499847541072285L123.2036,42.59439639281129L123.9112,19.6193294608253L123.97596666666666,19.6193294608253L124.07408333333333,19.6193294608253L124.46993333333334,23.266432008640123L124.48105,23.266432008640123L124.9378,23.49933483398513L125.07651666666666,23.49933483398513L125.15481666666666,23.49933483398513L125.46366666666665,15.913247275675502L125.65361666666666,15.913247275675502L125.84163333333333,33.17844025925723L125.94264999999999,33.17844025925723L126.10263333333333,33.17844025925723L126.51781666666666,31.694881171701837L126.62946666666667,31.694881171701837L126.96006666666666,18.478634549181606L127.00356666666667,18.478634549181606L127.11231666666666,18.478634549181606L127.46805,12.454651342887416L128.01711666666665,13.33423974968062L128.31195,40.51189030674357L128.3308,40.51189030674357L128.33563333333333,40.51189030674357L128.87793333333335,17.471005277759673L129.27426666666668,30.54902034188342L129.33275,30.54902034188342L129.3719,30.54902034188342L129.43038333333334,30.54902034188342L129.79771666666667,3.4584578797510233L129.88906666666665,-7.635459967615446L130.42218333333332,12.0224987547073L130.66191666666666,30.690346720213142L130.9147,30.690346720213142L130.96448333333333,30.690346720213142L131.65226666666666,19.304762814513964L131.7499,19.304762814513964L131.8949,19.304762814513964L132.70351666666667,36.66561624972712L132.74798333333334,36.66561624972712L133.08245,28.758806530553187L133.30913333333334,28.758806530553187L133.32846666666666,28.758806530553187L133.69483333333335,30.690346720213142L134.27966666666669,11.510425232679552L134.59093333333334,26.413598262295636L135.07330000000002,30.54902034188342L135.07523333333333,30.54902034188342L135.10181666666668,30.54902034188342L135.2734,30.54902034188342L135.4909,28.758806530553187L135.70888333333335,28.758806530553187L136.2043,28.758806530553187L136.2304,28.758806530553187L136.25698333333332,28.758806530553187L136.2594,28.758806530553187L136.5465,23.49933483398513L136.56921666666668,23.49933483398513L136.57018333333335,23.49933483398513L136.67313333333334,23.49933483398513L136.72726666666668,23.49933483398513L137.0917,40.328200588006325L137.47208333333333,42.59439639281129L137.62336666666667,42.59439639281129L138.3619,33.02740658897426L138.47161666666668,33.02740658897426L138.69201666666666,33.02740658897426L138.70555000000002,33.02740658897426L138.96026666666666,50.83845770494594L138.98443333333333,50.83845770494594L139.30005,42.20702730410753L139.33581666666666,42.20702730410753L139.46583333333334,42.20702730410753L139.48806666666667,42.20702730410753L140.4383,17.471005277759673L140.44168333333334,17.471005277759673L140.47213333333335,17.471005277759673L140.9516,16.879212719175285L141.26141666666666,34.723320547824386L141.31168333333332,34.723320547824386L142.53934999999998,9.050275620947929L144.26968333333332,32.42930130850678L144.78153333333333,16.684012366769906L144.83131666666668,16.684012366769906L144.93716666666668,16.684012366769906L145.45626666666666,41.44412771173586L145.67231666666666,37.8470485695745L145.69648333333333,37.8470485695745L145.8666166666667,37.8470485695745L146.6008,64.10195837585675L146.91496666666666,64.10195837585675L146.9169,64.10195837585675L147.21318333333335,39.244623775722005L147.22671666666668,39.244623775722005L147.40796666666665,39.244623775722005L147.4094166666667,39.244623775722005L147.83426666666665,21.8986898308454L147.86085,21.8986898308454L148.6390166666667,42.98582177608168L148.82461666666669,42.98582177608168L148.98556666666667,41.255811028611134L149.19001666666665,41.255811028611134L149.24753333333334,41.255811028611134L149.55058333333332,59.85328410817503L149.67721666666665,59.85328410817503L150.56751666666665,44.59384529341622L151.0523,22.91977620859518L151.56028333333333,17.67036992388543L152.40998333333332,23.49933483398513L152.68016666666665,23.49933483398513L153.17993333333334,24.806904099414254L153.40613333333334,16.97719647787801L153.41241666666664,16.97719647787801L153.56321666666668,16.97719647787801L153.65311666666665,16.97719647787801L154.12533333333332,5.6393288756721915L154.5178,34.723320547824386L154.61591666666666,34.723320547824386L155.3762,19.6193294608253L155.59611666666666,19.6193294608253L156.57873333333333,33.78875230681939L156.8571333333333,4.49784224151648L157.2902,39.96350713393292L157.39556666666667,39.96350713393292L157.4124833333333,39.96350713393292L157.74259999999998,42.20702730410753L157.77256666666668,42.20702730410753L157.79915,42.20702730410753L158.18630000000002,41.255811028611134L158.4874166666667,41.255811028611134L158.52125,41.255811028611134L158.63241666666667,40.696487138880855L159.39173333333335,46.70631593623227L159.63823333333332,30.97461259615025L159.71846666666667,30.97461259615025L159.88908333333333,30.97461259615025L159.90019999999998,30.97461259615025L160.75618333333333,31.840615401288574L160.88958333333335,31.840615401288574L160.9239,31.840615401288574L161.27866666666668,22.235962337296115L161.62763333333334,30.267960502445675L161.6837,30.267960502445675L161.89298333333335,30.267960502445675L162.31251666666665,42.7895967452167L162.35891666666666,42.7895967452167L163.47928333333334,36.83212335150273L164.27533333333332,21.233139029180137L164.5614666666667,35.199515300206144L165.20236666666665,27.96061002812877L165.24973333333335,27.96061002812877L165.25553333333332,27.96061002812877L165.49333333333334,31.986920020702854L166.0685,17.570554690900934L166.51606666666666,17.77045240011509L166.51703333333333,17.77045240011509L166.61563333333334,17.77045240011509L166.93221666666665,33.635237583700274L166.93366666666665,33.635237583700274L167.1332833333333,33.635237583700274L167.45325,17.87080355445559L167.52768333333333,17.87080355445559L167.5900333333333,17.87080355445559L167.87326666666667,36.99937545397677L168.0211666666667,36.66561624972712L168.08303333333333,36.66561624972712L168.52866666666665,29.712102192438607L169.27541666666667,39.244623775722005L169.33051666666665,39.244623775722005L169.3392166666667,39.244623775722005L169.45666666666668,39.244623775722005L170.09031666666667,28.893512199000327L170.09128333333334,28.893512199000327L170.09756666666667,28.893512199000327L170.26625,40.51189030674357L170.35180000000003,40.51189030674357L170.41366666666667,40.51189030674357L170.77761666666666,35.359604549353435L170.99946666666668,35.359604549353435L171.06810000000002,35.359604549353435L171.3262,17.173937892784068L171.37163333333334,17.173937892784068L172.26531666666665,37.8470485695745L172.34651666666667,37.8470485695745L173.01835,32.7271577254196L173.26823333333334,31.261056775898624L173.41806666666668,31.261056775898624L173.51425,31.261056775898624L173.90768333333332,27.05042426958886L174.36781666666664,41.63339790111749L175.2958166666667,44.59384529341622L175.34318333333334,44.59384529341622L175.65348333333336,39.602337343202066L175.78736666666668,39.602337343202066L176.62933333333334,34.565927546697736L177.3727,39.244623775722005L178.04308333333336,22.576305652353113L178.20548333333332,22.576305652353113L178.74633333333333,35.6818546704273L179.17988333333332,22.34906615290967L179.2412666666667,22.34906615290967L179.27026666666669,22.34906615290967L179.68738333333334,30.408226267557865L179.75650000000002,30.408226267557865L180.10788333333332,40.51189030674357L180.14606666666668,40.51189030674357L180.64293333333336,15.913247275675502L180.93196666666668,32.577932846440376L180.94163333333333,32.577932846440376L181.03733333333332,32.577932846440376L181.4414,39.244623775722005L181.59896666666666,39.244623775722005L181.65890000000002,39.244623775722005L181.93826666666666,40.51189030674357L181.98708333333335,40.51189030674357L181.99336666666667,40.51189030674357L182.11758333333333,40.51189030674357L182.49071666666669,3.2540045940835114L182.60961666666665,3.2540045940835114L182.9059,34.88137906044847L182.9440833333333,34.88137906044847L183.02045,34.88137906044847L183.13596666666666,34.88137906044847L183.8174666666667,30.267960502445675L183.87933333333334,30.267960502445675L183.96585,30.267960502445675L184.00886666666668,30.267960502445675L184.48301666666666,30.1282190965575L184.51104999999998,30.1282190965575L184.96586666666667,14.32630909266436L185.45451666666665,28.893512199000327L185.5584333333333,28.893512199000327L186.43665000000001,14.50954858969746L186.50673333333333,14.50954858969746L186.70586666666668,29.850293782511898L186.73293333333334,29.850293782511898L186.81123333333332,29.850293782511898L187.00021666666666,29.850293782511898L187.31486666666666,3.3901824588672014L187.32018333333335,2.6472698260629954L187.74938333333336,29.164388620124896L187.88326666666666,29.164388620124896L187.8939,29.164388620124896L187.97896666666668,29.164388620124896L188.27621666666664,26.413598262295636L188.48018333333334,26.413598262295636L189.63486666666668,29.712102192438607L189.72525,29.712102192438607L189.7325,29.712102192438607L189.76681666666667,29.712102192438607L189.89006666666666,29.712102192438607L189.8949,29.712102192438607L190.19891666666666,42.40021007278327L190.65953333333331,25.049637306501296L190.78761666666665,25.049637306501296L191.23711666666668,44.38901857522299L191.38791666666665,44.38901857522299L191.74026666666666,10.424426679437374L191.78521666666666,10.424426679437374L192.09165,40.14540911109103L192.18106666666668,40.14540911109103L192.27918333333335,40.14540911109103L192.34974999999997,40.14540911109103L192.69678333333334,38.01891453918839L193.02496666666667,41.63339790111749L193.02786666666665,41.63339790111749L193.10375,41.63339790111749L193.10471666666666,41.63339790111749L193.14773333333332,41.63339790111749L193.62913333333333,39.7824860414714L193.64315,39.7824860414714L194.07815,20.68742448264524L194.70261666666667,36.83212335150273L194.96845000000002,26.036646000339488L195.09798333333333,26.036646000339488L195.19029999999998,26.036646000339488L195.25458333333333,26.036646000339488L195.57068333333333,27.96061002812877L195.97813333333332,22.69044553505583L196.1091166666667,22.69044553505583L196.42956666666666,31.694881171701837L196.51995,31.694881171701837L197.05983333333333,29.437242258897555L198.14298333333335,29.850293782511898L198.14443333333332,29.850293782511898L198.4441,1.6574295765258853L198.6239,-3.2770519971946044L199.30298333333334,30.408226267557865L199.79791666666668,19.830520884402148L200.7206,29.300566484908558L200.7844,29.300566484908558L200.86608333333334,29.300566484908558L201.20876666666666,27.698287670603918L201.21311666666668,27.698287670603918L201.22278333333333,27.698287670603918L201.4108,27.698287670603918L201.92409999999998,-3.6744216887452694L202.00385,-3.6744216887452694L202.34411666666668,13.423347735957435L202.6404,34.09768615233364L202.76558333333332,34.09768615233364L202.84581666666668,34.09768615233364L203.17013333333335,53.089485815267366L203.37361666666666,53.089485815267366L204.16434999999998,30.54902034188342L204.58388333333332,29.57441959648358L204.86566666666667,29.57441959648358L205.27021666666664,43.580753949926816L205.66316666666668,54.40122681024067L205.67428333333334,54.40122681024067L205.9865166666667,45.42456353696434L206.19531666666666,45.42456353696434L206.1991833333333,45.42456353696434L206.31663333333336,45.42456353696434L207.14216666666667,45.635160051971184L207.22771666666665,45.635160051971184L207.24560000000002,45.635160051971184L207.437,60.476311572739135L207.49113333333335,60.476311572739135L207.72796666666665,60.476311572739135L207.77098333333333,60.476311572739135L207.79128333333333,60.476311572739135L208.2867,42.01483776742134L209.63133333333334,23.616332683931233L209.75603333333333,23.616332683931233L210.1978,64.80068493522826L210.38001666666668,40.51189030674357L210.49166666666667,39.42305267078697L211.13788333333335,50.35611833472478L211.31526666666664,40.51189030674357L212.06878333333333,32.42930130850678L212.37618333333336,22.010776219299657L212.41195,22.010776219299657L212.4312833333333,22.010776219299657L213.00403333333333,49.64408190070958L213.01611666666665,49.64408190070958L213.0460833333333,49.64408190070958L213.46078333333332,65.51272136924347L213.614,65.51272136924347L213.73145,44.799800539166796L214.3883,42.20702730410753L214.44581666666664,42.20702730410753L214.52315000000002,42.20702730410753L214.54006666666666,42.20702730410753L214.70101666666667,65.51272136924347L214.81411666666668,65.51272136924347L214.97699999999998,65.51272136924347L215.35206666666667,46.05994624293723L215.38251666666667,46.05994624293723L215.75323333333333,41.82363130171689L216.25976666666665,70.09569211050875L216.3835,70.09569211050875L216.53188333333333,70.09569211050875L216.9209666666667,71.7573337807732L217.19260000000003,64.10195837585675L217.62421666666668,52.577412293239604L218.08531666666667,42.7895967452167L218.56381666666667,55.21095051094997L218.70253333333332,55.21095051094997L218.91713333333334,55.21095051094997L219.05101666666664,58.93779061501563L219.07905000000002,58.93779061501563L219.40771666666666,58.93779061501563L219.41593333333333,58.93779061501563L219.60975000000002,32.7271577254196L219.62328333333335,32.7271577254196L219.70158333333333,32.7271577254196L219.79245,32.7271577254196L220.67163333333335,38.01891453918839L221.04911666666666,33.33008664387583L221.24824999999998,33.33008664387583L221.32945,33.33008664387583L221.74173333333334,29.57441959648358L222.08296666666666,24.928073678904553L222.11003333333335,24.928073678904553L222.16513333333333,24.928073678904553L222.18495000000001,24.928073678904553L222.44063333333335,43.781187580496976L222.67698333333334,43.781187580496976L222.69776666666667,43.781187580496976L222.99598333333336,29.57441959648358L223.19898333333333,29.57441959648358L223.63205,27.179101789225967L224.03853333333333,33.78875230681939L224.57503333333332,39.42305267078697L224.57938333333334,39.42305267078697L224.72438333333332,39.42305267078697L225.05836666666667,27.308223791678586L225.3619,39.244623775722005L225.49868333333333,39.244623775722005L225.65528333333336,39.244623775722005L226.04436666666666,25.911835258204377L226.07916666666665,25.911835258204377L226.3686833333333,22.235962337296115L226.42136666666667,22.235962337296115L226.57313333333335,22.235962337296115L226.5915,22.235962337296115L226.64708333333334,22.235962337296115L226.65143333333333,22.235962337296115L226.68043333333333,22.235962337296115L226.79015,41.06843829272307L226.99701666666667,41.06843829272307L227.53061666666667,66.97882231876447L227.85444999999999,56.884996622191665L227.89311666666666,56.884996622191665L227.9129333333333,56.884996622191665L228.20003333333335,61.109899326247515L228.57558333333333,61.109899326247515L228.8264333333333,55.7606778085533L229.00671666666668,55.7606778085533L229.02556666666666,55.7606778085533L229.76458333333332,69.29177332984246L229.90813333333332,69.29177332984246L230.67518333333334,75.79030760838444L230.9192666666667,75.79030760838444L230.91975,75.79030760838444L231.23826666666668,50.83845770494594L231.26098333333334,50.83845770494594L231.47606666666667,50.83845770494594L231.594,76.74884173098734L231.75688333333332,76.74884173098734L231.78830000000002,76.74884173098734L231.89415,76.74884173098734L232.26776666666666,55.484803622524964L232.69841666666665,36.99937545397677L232.78831666666667,36.99937545397677L232.84873333333334,36.99937545397677L232.86178333333334,36.99937545397677L232.93476666666666,36.99937545397677L233.04883333333333,64.80068493522826L233.27213333333333,64.80068493522826L233.31369999999998,64.80068493522826L233.6153,46.274163348052156L233.64816666666667,46.274163348052156L233.85986666666665,46.274163348052156L234.12086666666667,40.14540911109103L234.28664999999998,40.14540911109103L234.28955000000002,40.14540911109103L234.30114999999998,40.14540911109103L234.30356666666668,40.14540911109103L234.33014999999997,40.14540911109103L234.7695,72.18454737409355L234.95558333333332,61.75441154320531L235.32146666666668,61.75441154320531L235.32581666666667,61.75441154320531L235.34225,61.75441154320531L235.56748333333334,47.36405928511556L236.08851666666666,49.64408190070958L236.71394999999998,35.6818546704273L236.72748333333334,35.6818546704273L236.80191666666667,35.6818546704273L237.1939,50.11726268150801L237.97158333333334,47.80907385688678L238.60088333333331,31.694881171701837L238.62311666666668,31.694881171701837L238.6294,31.694881171701837L239.41626666666667,52.577412293239604L239.45686666666666,52.577412293239604L239.57431666666665,52.577412293239604L240.16978333333333,59.54562160974166L240.18428333333333,59.54562160974166L240.3665,42.98582177608168L240.52358333333333,42.98582177608168L240.6362,42.98582177608168L240.69081666666665,42.98582177608168L241.4975,51.57384107778887L241.73965,54.1351702953238L242.35155,42.20702730410753L242.38055,42.20702730410753L242.5241,42.20702730410753L242.84116666666668,29.300566484908558L243.04899999999998,29.300566484908558L243.54345,47.80907385688678L243.66670000000002,81.9489871486403L244.5512,47.14352305522152L244.85183333333336,58.93779061501563L244.8847,58.93779061501563L244.88711666666666,58.93779061501563L245.2249666666667,57.75099942732996L245.81173333333334,47.36405928511556L247.17135000000002,68.11741133014891L247.20228333333333,68.11741133014891L247.82723333333334,57.75099942732996L247.90408333333335,57.75099942732996L247.94226666666668,57.75099942732996L247.99543333333332,76.74884173098734L248.182,76.74884173098734L248.29075,76.74884173098734L248.3763,76.74884173098734L248.42415,76.74884173098734L248.61458333333334,68.50478041885268L248.70593333333332,68.50478041885268L248.81178333333335,68.50478041885268L249.12256666666667,66.60687116492223L249.17863333333332,66.60687116492223L249.33571666666666,66.60687116492223L249.51358333333334,63.75743259561591L249.55563333333333,63.75743259561591L249.98531666666668,48.033583736222965L250.02543333333332,48.033583736222965L250.23326666666668,48.033583736222965L250.47203333333334,65.15500780176339L250.62331666666665,65.15500780176339L251.03511666666665,78.74295623521621L251.03946666666667,78.74295623521621L251.21878333333333,78.74295623521621L251.2734,78.74295623521621L251.5083,37.16737925381835L251.59095,37.16737925381835L251.60448333333335,37.16737925381835L251.91768333333334,75.32010288606791L252.18351666666666,75.32010288606791L252.59676666666667,60.79176308648985L252.6997166666667,60.79176308648985L253.57503333333335,41.06843829272307L253.83603333333332,55.484803622524964L254.01583333333335,55.484803622524964L254.38751666666667,49.879923582343054L254.53058333333334,49.879923582343054L254.53686666666667,49.879923582343054L254.9883,62.74250737754413L255.1275,62.74250737754413L255.18888333333334,62.74250737754413L255.31793333333334,40.14540911109103L255.51706666666666,40.14540911109103L256.2846,64.10195837585675L256.64855,64.10195837585675L256.7921,64.44968909308604L256.97045,64.44968909308604L257.2793,46.70631593623227L257.37403333333333,46.70631593623227L257.4736,46.70631593623227L257.61473333333333,46.70631593623227L257.8211166666667,52.072258895736056L258.21455000000003,50.35611833472478L258.44558333333333,50.35611833472478L258.51615,50.35611833472478L258.52775,50.35611833472478L258.6954666666667,40.88200008808022L258.7384833333333,40.88200008808022L259.00624999999997,40.88200008808022L259.24308333333335,43.98270172103358L259.8680333333333,34.40919447623469L260.17736666666667,42.40021007278327L260.2228,42.40021007278327L260.3958333333333,42.40021007278327L260.49008333333336,42.40021007278327L260.6636,69.29177332984246L261.2987,24.686126021670816L261.7946,9.050275620947929L261.81393333333335,9.050275620947929L262.0701,53.34817738433401L262.2035,53.34817738433401L262.30451666666664,53.34817738433401L262.60176666666666,46.92428030038917L262.72743333333335,46.92428030038917L262.73275,46.92428030038917L263.19820000000004,17.570554690900934L263.2334833333333,17.570554690900934L263.38428333333337,17.570554690900934L263.56166666666667,31.986920020702854L263.8439333333333,31.986920020702854L264.0561166666667,42.40021007278327L264.2325333333333,42.40021007278327L264.306,42.40021007278327L264.52881666666667,28.893512199000327L264.6482,28.893512199000327L265.27411666666666,-4.011694195196014L265.34516666666667,-4.011694195196014L265.6168,3.118321023907299L265.6255,1.9188347155216263L265.74875000000003,-1.7629815685507708" style="fill: none;" fill="none"></path></g></g></g></g></g></g><g transform="translate(40, 178)" clip-path="url(#clip_1)"><clipPath id="clip_1"><rect width="290" height="22"></rect></clipPath><g><g><line x1="0" y1="0" x2="0" y2="5" style="visibility: inherit;" fill="rgb(0, 0, 0)" stroke="rgb(204, 204, 204)" stroke-width="1px"></line><line x1="24.166666666666664" y1="0" x2="24.166666666666664" y2="5" style="visibility: inherit;" fill="rgb(0, 0, 0)" stroke="rgb(204, 204, 204)" stroke-width="1px"></line><line x1="48.33333333333333" y1="0" x2="48.33333333333333" y2="5" style="visibility: inherit;" fill="rgb(0, 0, 0)" stroke="rgb(204, 204, 204)" stroke-width="1px"></line><line x1="72.5" y1="0" x2="72.5" y2="5" style="visibility: inherit;" fill="rgb(0, 0, 0)" stroke="rgb(204, 204, 204)" stroke-width="1px"></line><line x1="96.66666666666666" y1="0" x2="96.66666666666666" y2="5" style="visibility: inherit;" fill="rgb(0, 0, 0)" stroke="rgb(204, 204, 204)" stroke-width="1px"></line><line x1="120.83333333333334" y1="0" x2="120.83333333333334" y2="5" style="visibility: inherit;" fill="rgb(0, 0, 0)" stroke="rgb(204, 204, 204)" stroke-width="1px"></line><line x1="145" y1="0" x2="145" y2="5" style="visibility: inherit;" fill="rgb(0, 0, 0)" stroke="rgb(204, 204, 204)" stroke-width="1px"></line><line x1="169.16666666666669" y1="0" x2="169.16666666666669" y2="5" style="visibility: inherit;" fill="rgb(0, 0, 0)" stroke="rgb(204, 204, 204)" stroke-width="1px"></line><line x1="193.33333333333331" y1="0" x2="193.33333333333331" y2="5" style="visibility: inherit;" fill="rgb(0, 0, 0)" stroke="rgb(204, 204, 204)" stroke-width="1px"></line><line x1="217.5" y1="0" x2="217.5" y2="5" style="visibility: inherit;" fill="rgb(0, 0, 0)" stroke="rgb(204, 204, 204)" stroke-width="1px"></line><line x1="241.66666666666669" y1="0" x2="241.66666666666669" y2="5" style="visibility: inherit;" fill="rgb(0, 0, 0)" stroke="rgb(204, 204, 204)" stroke-width="1px"></line><line x1="265.8333333333333" y1="0" x2="265.8333333333333" y2="5" style="visibility: inherit;" fill="rgb(0, 0, 0)" stroke="rgb(204, 204, 204)" stroke-width="1px"></line><line x1="290" y1="0" x2="290" y2="5" style="visibility: inherit;" fill="rgb(0, 0, 0)" stroke="rgb(204, 204, 204)" stroke-width="1px"></line></g><g transform="translate(0, 8)"><text x="0" y="0" dx="0em" dy="0.95em" style="text-anchor: middle; visibility: hidden; font-family: &quot;Helvetica Neue&quot;, sans-serif; font-size: 12px; font-weight: 200;" fill="rgb(50, 49, 63)" stroke="none" stroke-width="1px">-50k</text><text x="24.166666666666664" y="0" dx="0em" dy="0.95em" style="text-anchor: middle; visibility: inherit; font-family: &quot;Helvetica Neue&quot;, sans-serif; font-size: 12px; font-weight: 200;" fill="rgb(50, 49, 63)" stroke="none" stroke-width="1px">0</text><text x="48.33333333333333" y="0" dx="0em" dy="0.95em" style="text-anchor: middle; visibility: hidden; font-family: &quot;Helvetica Neue&quot;, sans-serif; font-size: 12px; font-weight: 200;" fill="rgb(50, 49, 63)" stroke="none" stroke-width="1px">50k</text><text x="72.5" y="0" dx="0em" dy="0.95em" style="text-anchor: middle; visibility: inherit; font-family: &quot;Helvetica Neue&quot;, sans-serif; font-size: 12px; font-weight: 200;" fill="rgb(50, 49, 63)" stroke="none" stroke-width="1px">100k</text><text x="96.66666666666666" y="0" dx="0em" dy="0.95em" style="text-anchor: middle; visibility: hidden; font-family: &quot;Helvetica Neue&quot;, sans-serif; font-size: 12px; font-weight: 200;" fill="rgb(50, 49, 63)" stroke="none" stroke-width="1px">150k</text><text x="120.83333333333334" y="0" dx="0em" dy="0.95em" style="text-anchor: middle; visibility: inherit; font-family: &quot;Helvetica Neue&quot;, sans-serif; font-size: 12px; font-weight: 200;" fill="rgb(50, 49, 63)" stroke="none" stroke-width="1px">200k</text><text x="145" y="0" dx="0em" dy="0.95em" style="text-anchor: middle; visibility: hidden; font-family: &quot;Helvetica Neue&quot;, sans-serif; font-size: 12px; font-weight: 200;" fill="rgb(50, 49, 63)" stroke="none" stroke-width="1px">250k</text><text x="169.16666666666669" y="0" dx="0em" dy="0.95em" style="text-anchor: middle; visibility: inherit; font-family: &quot;Helvetica Neue&quot;, sans-serif; font-size: 12px; font-weight: 200;" fill="rgb(50, 49, 63)" stroke="none" stroke-width="1px">300k</text><text x="193.33333333333331" y="0" dx="0em" dy="0.95em" style="text-anchor: middle; visibility: hidden; font-family: &quot;Helvetica Neue&quot;, sans-serif; font-size: 12px; font-weight: 200;" fill="rgb(50, 49, 63)" stroke="none" stroke-width="1px">350k</text><text x="217.5" y="0" dx="0em" dy="0.95em" style="text-anchor: middle; visibility: inherit; font-family: &quot;Helvetica Neue&quot;, sans-serif; font-size: 12px; font-weight: 200;" fill="rgb(50, 49, 63)" stroke="none" stroke-width="1px">400k</text><text x="241.66666666666669" y="0" dx="0em" dy="0.95em" style="text-anchor: middle; visibility: hidden; font-family: &quot;Helvetica Neue&quot;, sans-serif; font-size: 12px; font-weight: 200;" fill="rgb(50, 49, 63)" stroke="none" stroke-width="1px">450k</text><text x="265.8333333333333" y="0" dx="0em" dy="0.95em" style="text-anchor: middle; visibility: inherit; font-family: &quot;Helvetica Neue&quot;, sans-serif; font-size: 12px; font-weight: 200;" fill="rgb(50, 49, 63)" stroke="none" stroke-width="1px">500k</text><text x="290" y="0" dx="0em" dy="0.95em" style="text-anchor: middle; visibility: hidden; font-family: &quot;Helvetica Neue&quot;, sans-serif; font-size: 12px; font-weight: 200;" fill="rgb(50, 49, 63)" stroke="none" stroke-width="1px">550k</text></g><line x1="0" y1="0" x2="290" y2="0" fill="rgb(0, 0, 0)" stroke="rgb(204, 204, 204)" stroke-width="1px"></line></g></g></g></g></svg>